%TF.GenerationSoftware,KiCad,Pcbnew,9.0.6*%
%TF.CreationDate,2026-01-16T18:30:39-06:00*%
%TF.ProjectId,SIP_Hat,5349505f-4861-4742-9e6b-696361645f70,rev?*%
%TF.SameCoordinates,Original*%
%TF.FileFunction,Legend,Top*%
%TF.FilePolarity,Positive*%
%FSLAX46Y46*%
G04 Gerber Fmt 4.6, Leading zero omitted, Abs format (unit mm)*
G04 Created by KiCad (PCBNEW 9.0.6) date 2026-01-16 18:30:39*
%MOMM*%
%LPD*%
G01*
G04 APERTURE LIST*
%ADD10C,0.100000*%
%ADD11C,0.150000*%
%ADD12C,0.093750*%
%ADD13C,0.234811*%
%ADD14C,0.000000*%
%ADD15C,0.120000*%
%ADD16C,0.127000*%
%ADD17C,0.200000*%
G04 APERTURE END LIST*
D10*
X112250000Y-116750000D02*
X108750000Y-118000000D01*
X130740000Y-95485000D02*
X144750000Y-95485000D01*
X144750000Y-107500000D01*
X130740000Y-107500000D01*
X130740000Y-95485000D01*
X114250000Y-118000000D02*
X111750000Y-120000000D01*
D11*
X109795180Y-92535714D02*
X109795180Y-91964286D01*
X109795180Y-92250000D02*
X110795180Y-92250000D01*
X110795180Y-92250000D02*
X110652323Y-92154762D01*
X110652323Y-92154762D02*
X110557085Y-92059524D01*
X110557085Y-92059524D02*
X110509466Y-91964286D01*
X105238095Y-89181009D02*
X105380952Y-89228628D01*
X105380952Y-89228628D02*
X105428571Y-89276247D01*
X105428571Y-89276247D02*
X105476190Y-89371485D01*
X105476190Y-89371485D02*
X105476190Y-89514342D01*
X105476190Y-89514342D02*
X105428571Y-89609580D01*
X105428571Y-89609580D02*
X105380952Y-89657200D01*
X105380952Y-89657200D02*
X105285714Y-89704819D01*
X105285714Y-89704819D02*
X104904762Y-89704819D01*
X104904762Y-89704819D02*
X104904762Y-88704819D01*
X104904762Y-88704819D02*
X105238095Y-88704819D01*
X105238095Y-88704819D02*
X105333333Y-88752438D01*
X105333333Y-88752438D02*
X105380952Y-88800057D01*
X105380952Y-88800057D02*
X105428571Y-88895295D01*
X105428571Y-88895295D02*
X105428571Y-88990533D01*
X105428571Y-88990533D02*
X105380952Y-89085771D01*
X105380952Y-89085771D02*
X105333333Y-89133390D01*
X105333333Y-89133390D02*
X105238095Y-89181009D01*
X105238095Y-89181009D02*
X104904762Y-89181009D01*
X106333333Y-89038152D02*
X106333333Y-89704819D01*
X105904762Y-89038152D02*
X105904762Y-89561961D01*
X105904762Y-89561961D02*
X105952381Y-89657200D01*
X105952381Y-89657200D02*
X106047619Y-89704819D01*
X106047619Y-89704819D02*
X106190476Y-89704819D01*
X106190476Y-89704819D02*
X106285714Y-89657200D01*
X106285714Y-89657200D02*
X106333333Y-89609580D01*
X106761905Y-89657200D02*
X106857143Y-89704819D01*
X106857143Y-89704819D02*
X107047619Y-89704819D01*
X107047619Y-89704819D02*
X107142857Y-89657200D01*
X107142857Y-89657200D02*
X107190476Y-89561961D01*
X107190476Y-89561961D02*
X107190476Y-89514342D01*
X107190476Y-89514342D02*
X107142857Y-89419104D01*
X107142857Y-89419104D02*
X107047619Y-89371485D01*
X107047619Y-89371485D02*
X106904762Y-89371485D01*
X106904762Y-89371485D02*
X106809524Y-89323866D01*
X106809524Y-89323866D02*
X106761905Y-89228628D01*
X106761905Y-89228628D02*
X106761905Y-89181009D01*
X106761905Y-89181009D02*
X106809524Y-89085771D01*
X106809524Y-89085771D02*
X106904762Y-89038152D01*
X106904762Y-89038152D02*
X107047619Y-89038152D01*
X107047619Y-89038152D02*
X107142857Y-89085771D01*
X108142857Y-89704819D02*
X107571429Y-89704819D01*
X107857143Y-89704819D02*
X107857143Y-88704819D01*
X107857143Y-88704819D02*
X107761905Y-88847676D01*
X107761905Y-88847676D02*
X107666667Y-88942914D01*
X107666667Y-88942914D02*
X107571429Y-88990533D01*
X166823866Y-92630951D02*
X166823866Y-91869047D01*
X167204819Y-92249999D02*
X166442914Y-92249999D01*
X132411133Y-97349048D02*
X132411133Y-98110953D01*
X110176133Y-111869048D02*
X110176133Y-112630953D01*
D12*
X98153339Y-124116894D02*
X98153339Y-124045465D01*
X98153339Y-124045465D02*
X98189053Y-123974037D01*
X98189053Y-123974037D02*
X98224767Y-123938323D01*
X98224767Y-123938323D02*
X98296196Y-123902608D01*
X98296196Y-123902608D02*
X98439053Y-123866894D01*
X98439053Y-123866894D02*
X98617625Y-123866894D01*
X98617625Y-123866894D02*
X98760482Y-123902608D01*
X98760482Y-123902608D02*
X98831910Y-123938323D01*
X98831910Y-123938323D02*
X98867625Y-123974037D01*
X98867625Y-123974037D02*
X98903339Y-124045465D01*
X98903339Y-124045465D02*
X98903339Y-124116894D01*
X98903339Y-124116894D02*
X98867625Y-124188323D01*
X98867625Y-124188323D02*
X98831910Y-124224037D01*
X98831910Y-124224037D02*
X98760482Y-124259751D01*
X98760482Y-124259751D02*
X98617625Y-124295465D01*
X98617625Y-124295465D02*
X98439053Y-124295465D01*
X98439053Y-124295465D02*
X98296196Y-124259751D01*
X98296196Y-124259751D02*
X98224767Y-124224037D01*
X98224767Y-124224037D02*
X98189053Y-124188323D01*
X98189053Y-124188323D02*
X98153339Y-124116894D01*
X103096660Y-124383105D02*
X103096660Y-123954534D01*
X103096660Y-124168819D02*
X103846660Y-124168819D01*
X103846660Y-124168819D02*
X103739517Y-124097391D01*
X103739517Y-124097391D02*
X103668089Y-124025962D01*
X103668089Y-124025962D02*
X103632375Y-123954534D01*
D11*
X132461133Y-99849048D02*
X132461133Y-100610953D01*
X132080180Y-100230000D02*
X132842085Y-100230000D01*
X167204819Y-110190476D02*
X167204819Y-110761904D01*
X167204819Y-110476190D02*
X166204819Y-110476190D01*
X166204819Y-110476190D02*
X166347676Y-110571428D01*
X166347676Y-110571428D02*
X166442914Y-110666666D01*
X166442914Y-110666666D02*
X166490533Y-110761904D01*
X167204819Y-109238095D02*
X167204819Y-109809523D01*
X167204819Y-109523809D02*
X166204819Y-109523809D01*
X166204819Y-109523809D02*
X166347676Y-109619047D01*
X166347676Y-109619047D02*
X166442914Y-109714285D01*
X166442914Y-109714285D02*
X166490533Y-109809523D01*
X167204819Y-114940475D02*
X167204819Y-114749999D01*
X167204819Y-114749999D02*
X167157200Y-114654761D01*
X167157200Y-114654761D02*
X167109580Y-114607142D01*
X167109580Y-114607142D02*
X166966723Y-114511904D01*
X166966723Y-114511904D02*
X166776247Y-114464285D01*
X166776247Y-114464285D02*
X166395295Y-114464285D01*
X166395295Y-114464285D02*
X166300057Y-114511904D01*
X166300057Y-114511904D02*
X166252438Y-114559523D01*
X166252438Y-114559523D02*
X166204819Y-114654761D01*
X166204819Y-114654761D02*
X166204819Y-114845237D01*
X166204819Y-114845237D02*
X166252438Y-114940475D01*
X166252438Y-114940475D02*
X166300057Y-114988094D01*
X166300057Y-114988094D02*
X166395295Y-115035713D01*
X166395295Y-115035713D02*
X166633390Y-115035713D01*
X166633390Y-115035713D02*
X166728628Y-114988094D01*
X166728628Y-114988094D02*
X166776247Y-114940475D01*
X166776247Y-114940475D02*
X166823866Y-114845237D01*
X166823866Y-114845237D02*
X166823866Y-114654761D01*
X166823866Y-114654761D02*
X166776247Y-114559523D01*
X166776247Y-114559523D02*
X166728628Y-114511904D01*
X166728628Y-114511904D02*
X166633390Y-114464285D01*
X110795180Y-106916667D02*
X110795180Y-107583333D01*
X110795180Y-107583333D02*
X109795180Y-107154762D01*
D12*
X167903339Y-124616894D02*
X167903339Y-124474037D01*
X167903339Y-124474037D02*
X167939053Y-124402608D01*
X167939053Y-124402608D02*
X168010482Y-124331180D01*
X168010482Y-124331180D02*
X168153339Y-124295465D01*
X168153339Y-124295465D02*
X168403339Y-124295465D01*
X168403339Y-124295465D02*
X168546196Y-124331180D01*
X168546196Y-124331180D02*
X168617625Y-124402608D01*
X168617625Y-124402608D02*
X168653339Y-124474037D01*
X168653339Y-124474037D02*
X168653339Y-124616894D01*
X168653339Y-124616894D02*
X168617625Y-124688323D01*
X168617625Y-124688323D02*
X168546196Y-124759751D01*
X168546196Y-124759751D02*
X168403339Y-124795465D01*
X168403339Y-124795465D02*
X168153339Y-124795465D01*
X168153339Y-124795465D02*
X168010482Y-124759751D01*
X168010482Y-124759751D02*
X167939053Y-124688323D01*
X167939053Y-124688323D02*
X167903339Y-124616894D01*
X168260482Y-123974037D02*
X168260482Y-123724037D01*
X168653339Y-123616894D02*
X168653339Y-123974037D01*
X168653339Y-123974037D02*
X167903339Y-123974037D01*
X167903339Y-123974037D02*
X167903339Y-123616894D01*
D11*
X140030180Y-102468095D02*
X141030180Y-102468095D01*
X141030180Y-102468095D02*
X141030180Y-102706190D01*
X141030180Y-102706190D02*
X140982561Y-102849047D01*
X140982561Y-102849047D02*
X140887323Y-102944285D01*
X140887323Y-102944285D02*
X140792085Y-102991904D01*
X140792085Y-102991904D02*
X140601609Y-103039523D01*
X140601609Y-103039523D02*
X140458752Y-103039523D01*
X140458752Y-103039523D02*
X140268276Y-102991904D01*
X140268276Y-102991904D02*
X140173038Y-102944285D01*
X140173038Y-102944285D02*
X140077800Y-102849047D01*
X140077800Y-102849047D02*
X140030180Y-102706190D01*
X140030180Y-102706190D02*
X140030180Y-102468095D01*
X110795180Y-104940476D02*
X110795180Y-104750000D01*
X110795180Y-104750000D02*
X110747561Y-104654762D01*
X110747561Y-104654762D02*
X110699942Y-104607143D01*
X110699942Y-104607143D02*
X110557085Y-104511905D01*
X110557085Y-104511905D02*
X110366609Y-104464286D01*
X110366609Y-104464286D02*
X109985657Y-104464286D01*
X109985657Y-104464286D02*
X109890419Y-104511905D01*
X109890419Y-104511905D02*
X109842800Y-104559524D01*
X109842800Y-104559524D02*
X109795180Y-104654762D01*
X109795180Y-104654762D02*
X109795180Y-104845238D01*
X109795180Y-104845238D02*
X109842800Y-104940476D01*
X109842800Y-104940476D02*
X109890419Y-104988095D01*
X109890419Y-104988095D02*
X109985657Y-105035714D01*
X109985657Y-105035714D02*
X110223752Y-105035714D01*
X110223752Y-105035714D02*
X110318990Y-104988095D01*
X110318990Y-104988095D02*
X110366609Y-104940476D01*
X110366609Y-104940476D02*
X110414228Y-104845238D01*
X110414228Y-104845238D02*
X110414228Y-104654762D01*
X110414228Y-104654762D02*
X110366609Y-104559524D01*
X110366609Y-104559524D02*
X110318990Y-104511905D01*
X110318990Y-104511905D02*
X110223752Y-104464286D01*
X175011904Y-84795180D02*
X175011904Y-85795180D01*
X175011904Y-85795180D02*
X174773809Y-85795180D01*
X174773809Y-85795180D02*
X174630952Y-85747561D01*
X174630952Y-85747561D02*
X174535714Y-85652323D01*
X174535714Y-85652323D02*
X174488095Y-85557085D01*
X174488095Y-85557085D02*
X174440476Y-85366609D01*
X174440476Y-85366609D02*
X174440476Y-85223752D01*
X174440476Y-85223752D02*
X174488095Y-85033276D01*
X174488095Y-85033276D02*
X174535714Y-84938038D01*
X174535714Y-84938038D02*
X174630952Y-84842800D01*
X174630952Y-84842800D02*
X174773809Y-84795180D01*
X174773809Y-84795180D02*
X175011904Y-84795180D01*
X164369048Y-85323866D02*
X165130953Y-85323866D01*
X164750000Y-85704819D02*
X164750000Y-84942914D01*
X110699942Y-94464286D02*
X110747561Y-94511905D01*
X110747561Y-94511905D02*
X110795180Y-94607143D01*
X110795180Y-94607143D02*
X110795180Y-94845238D01*
X110795180Y-94845238D02*
X110747561Y-94940476D01*
X110747561Y-94940476D02*
X110699942Y-94988095D01*
X110699942Y-94988095D02*
X110604704Y-95035714D01*
X110604704Y-95035714D02*
X110509466Y-95035714D01*
X110509466Y-95035714D02*
X110366609Y-94988095D01*
X110366609Y-94988095D02*
X109795180Y-94416667D01*
X109795180Y-94416667D02*
X109795180Y-95035714D01*
D12*
X160983339Y-125831180D02*
X160626196Y-126081180D01*
X160983339Y-126259751D02*
X160233339Y-126259751D01*
X160233339Y-126259751D02*
X160233339Y-125974037D01*
X160233339Y-125974037D02*
X160269053Y-125902608D01*
X160269053Y-125902608D02*
X160304767Y-125866894D01*
X160304767Y-125866894D02*
X160376196Y-125831180D01*
X160376196Y-125831180D02*
X160483339Y-125831180D01*
X160483339Y-125831180D02*
X160554767Y-125866894D01*
X160554767Y-125866894D02*
X160590482Y-125902608D01*
X160590482Y-125902608D02*
X160626196Y-125974037D01*
X160626196Y-125974037D02*
X160626196Y-126259751D01*
X160911910Y-125081180D02*
X160947625Y-125116894D01*
X160947625Y-125116894D02*
X160983339Y-125224037D01*
X160983339Y-125224037D02*
X160983339Y-125295465D01*
X160983339Y-125295465D02*
X160947625Y-125402608D01*
X160947625Y-125402608D02*
X160876196Y-125474037D01*
X160876196Y-125474037D02*
X160804767Y-125509751D01*
X160804767Y-125509751D02*
X160661910Y-125545465D01*
X160661910Y-125545465D02*
X160554767Y-125545465D01*
X160554767Y-125545465D02*
X160411910Y-125509751D01*
X160411910Y-125509751D02*
X160340482Y-125474037D01*
X160340482Y-125474037D02*
X160269053Y-125402608D01*
X160269053Y-125402608D02*
X160233339Y-125295465D01*
X160233339Y-125295465D02*
X160233339Y-125224037D01*
X160233339Y-125224037D02*
X160269053Y-125116894D01*
X160269053Y-125116894D02*
X160304767Y-125081180D01*
X160983339Y-124402608D02*
X160983339Y-124759751D01*
X160983339Y-124759751D02*
X160233339Y-124759751D01*
X160911910Y-123724037D02*
X160947625Y-123759751D01*
X160947625Y-123759751D02*
X160983339Y-123866894D01*
X160983339Y-123866894D02*
X160983339Y-123938322D01*
X160983339Y-123938322D02*
X160947625Y-124045465D01*
X160947625Y-124045465D02*
X160876196Y-124116894D01*
X160876196Y-124116894D02*
X160804767Y-124152608D01*
X160804767Y-124152608D02*
X160661910Y-124188322D01*
X160661910Y-124188322D02*
X160554767Y-124188322D01*
X160554767Y-124188322D02*
X160411910Y-124152608D01*
X160411910Y-124152608D02*
X160340482Y-124116894D01*
X160340482Y-124116894D02*
X160269053Y-124045465D01*
X160269053Y-124045465D02*
X160233339Y-123938322D01*
X160233339Y-123938322D02*
X160233339Y-123866894D01*
X160233339Y-123866894D02*
X160269053Y-123759751D01*
X160269053Y-123759751D02*
X160304767Y-123724037D01*
D11*
X167204819Y-97690476D02*
X167204819Y-98261904D01*
X167204819Y-97976190D02*
X166204819Y-97976190D01*
X166204819Y-97976190D02*
X166347676Y-98071428D01*
X166347676Y-98071428D02*
X166442914Y-98166666D01*
X166442914Y-98166666D02*
X166490533Y-98261904D01*
X166204819Y-96833333D02*
X166204819Y-97023809D01*
X166204819Y-97023809D02*
X166252438Y-97119047D01*
X166252438Y-97119047D02*
X166300057Y-97166666D01*
X166300057Y-97166666D02*
X166442914Y-97261904D01*
X166442914Y-97261904D02*
X166633390Y-97309523D01*
X166633390Y-97309523D02*
X167014342Y-97309523D01*
X167014342Y-97309523D02*
X167109580Y-97261904D01*
X167109580Y-97261904D02*
X167157200Y-97214285D01*
X167157200Y-97214285D02*
X167204819Y-97119047D01*
X167204819Y-97119047D02*
X167204819Y-96928571D01*
X167204819Y-96928571D02*
X167157200Y-96833333D01*
X167157200Y-96833333D02*
X167109580Y-96785714D01*
X167109580Y-96785714D02*
X167014342Y-96738095D01*
X167014342Y-96738095D02*
X166776247Y-96738095D01*
X166776247Y-96738095D02*
X166681009Y-96785714D01*
X166681009Y-96785714D02*
X166633390Y-96833333D01*
X166633390Y-96833333D02*
X166585771Y-96928571D01*
X166585771Y-96928571D02*
X166585771Y-97119047D01*
X166585771Y-97119047D02*
X166633390Y-97214285D01*
X166633390Y-97214285D02*
X166681009Y-97261904D01*
X166681009Y-97261904D02*
X166776247Y-97309523D01*
X140461133Y-99819048D02*
X140461133Y-100580953D01*
X140080180Y-100200000D02*
X140842085Y-100200000D01*
X110795180Y-102488095D02*
X110795180Y-102011905D01*
X110795180Y-102011905D02*
X110318990Y-101964286D01*
X110318990Y-101964286D02*
X110366609Y-102011905D01*
X110366609Y-102011905D02*
X110414228Y-102107143D01*
X110414228Y-102107143D02*
X110414228Y-102345238D01*
X110414228Y-102345238D02*
X110366609Y-102440476D01*
X110366609Y-102440476D02*
X110318990Y-102488095D01*
X110318990Y-102488095D02*
X110223752Y-102535714D01*
X110223752Y-102535714D02*
X109985657Y-102535714D01*
X109985657Y-102535714D02*
X109890419Y-102488095D01*
X109890419Y-102488095D02*
X109842800Y-102440476D01*
X109842800Y-102440476D02*
X109795180Y-102345238D01*
X109795180Y-102345238D02*
X109795180Y-102107143D01*
X109795180Y-102107143D02*
X109842800Y-102011905D01*
X109842800Y-102011905D02*
X109890419Y-101964286D01*
X110366609Y-109654762D02*
X110414228Y-109559524D01*
X110414228Y-109559524D02*
X110461847Y-109511905D01*
X110461847Y-109511905D02*
X110557085Y-109464286D01*
X110557085Y-109464286D02*
X110604704Y-109464286D01*
X110604704Y-109464286D02*
X110699942Y-109511905D01*
X110699942Y-109511905D02*
X110747561Y-109559524D01*
X110747561Y-109559524D02*
X110795180Y-109654762D01*
X110795180Y-109654762D02*
X110795180Y-109845238D01*
X110795180Y-109845238D02*
X110747561Y-109940476D01*
X110747561Y-109940476D02*
X110699942Y-109988095D01*
X110699942Y-109988095D02*
X110604704Y-110035714D01*
X110604704Y-110035714D02*
X110557085Y-110035714D01*
X110557085Y-110035714D02*
X110461847Y-109988095D01*
X110461847Y-109988095D02*
X110414228Y-109940476D01*
X110414228Y-109940476D02*
X110366609Y-109845238D01*
X110366609Y-109845238D02*
X110366609Y-109654762D01*
X110366609Y-109654762D02*
X110318990Y-109559524D01*
X110318990Y-109559524D02*
X110271371Y-109511905D01*
X110271371Y-109511905D02*
X110176133Y-109464286D01*
X110176133Y-109464286D02*
X109985657Y-109464286D01*
X109985657Y-109464286D02*
X109890419Y-109511905D01*
X109890419Y-109511905D02*
X109842800Y-109559524D01*
X109842800Y-109559524D02*
X109795180Y-109654762D01*
X109795180Y-109654762D02*
X109795180Y-109845238D01*
X109795180Y-109845238D02*
X109842800Y-109940476D01*
X109842800Y-109940476D02*
X109890419Y-109988095D01*
X109890419Y-109988095D02*
X109985657Y-110035714D01*
X109985657Y-110035714D02*
X110176133Y-110035714D01*
X110176133Y-110035714D02*
X110271371Y-109988095D01*
X110271371Y-109988095D02*
X110318990Y-109940476D01*
X110318990Y-109940476D02*
X110366609Y-109845238D01*
X167204819Y-102690476D02*
X167204819Y-103261904D01*
X167204819Y-102976190D02*
X166204819Y-102976190D01*
X166204819Y-102976190D02*
X166347676Y-103071428D01*
X166347676Y-103071428D02*
X166442914Y-103166666D01*
X166442914Y-103166666D02*
X166490533Y-103261904D01*
X166538152Y-101833333D02*
X167204819Y-101833333D01*
X166157200Y-102071428D02*
X166871485Y-102309523D01*
X166871485Y-102309523D02*
X166871485Y-101690476D01*
X117238095Y-128704819D02*
X116761905Y-128704819D01*
X116761905Y-128704819D02*
X116714286Y-129181009D01*
X116714286Y-129181009D02*
X116761905Y-129133390D01*
X116761905Y-129133390D02*
X116857143Y-129085771D01*
X116857143Y-129085771D02*
X117095238Y-129085771D01*
X117095238Y-129085771D02*
X117190476Y-129133390D01*
X117190476Y-129133390D02*
X117238095Y-129181009D01*
X117238095Y-129181009D02*
X117285714Y-129276247D01*
X117285714Y-129276247D02*
X117285714Y-129514342D01*
X117285714Y-129514342D02*
X117238095Y-129609580D01*
X117238095Y-129609580D02*
X117190476Y-129657200D01*
X117190476Y-129657200D02*
X117095238Y-129704819D01*
X117095238Y-129704819D02*
X116857143Y-129704819D01*
X116857143Y-129704819D02*
X116761905Y-129657200D01*
X116761905Y-129657200D02*
X116714286Y-129609580D01*
X117571429Y-128704819D02*
X117904762Y-129704819D01*
X117904762Y-129704819D02*
X118238095Y-128704819D01*
X119333334Y-129704819D02*
X119333334Y-129038152D01*
X119333334Y-128704819D02*
X119285715Y-128752438D01*
X119285715Y-128752438D02*
X119333334Y-128800057D01*
X119333334Y-128800057D02*
X119380953Y-128752438D01*
X119380953Y-128752438D02*
X119333334Y-128704819D01*
X119333334Y-128704819D02*
X119333334Y-128800057D01*
X119809524Y-129038152D02*
X119809524Y-129704819D01*
X119809524Y-129133390D02*
X119857143Y-129085771D01*
X119857143Y-129085771D02*
X119952381Y-129038152D01*
X119952381Y-129038152D02*
X120095238Y-129038152D01*
X120095238Y-129038152D02*
X120190476Y-129085771D01*
X120190476Y-129085771D02*
X120238095Y-129181009D01*
X120238095Y-129181009D02*
X120238095Y-129704819D01*
D12*
X166197625Y-125545465D02*
X166233339Y-125438323D01*
X166233339Y-125438323D02*
X166233339Y-125259751D01*
X166233339Y-125259751D02*
X166197625Y-125188323D01*
X166197625Y-125188323D02*
X166161910Y-125152608D01*
X166161910Y-125152608D02*
X166090482Y-125116894D01*
X166090482Y-125116894D02*
X166019053Y-125116894D01*
X166019053Y-125116894D02*
X165947625Y-125152608D01*
X165947625Y-125152608D02*
X165911910Y-125188323D01*
X165911910Y-125188323D02*
X165876196Y-125259751D01*
X165876196Y-125259751D02*
X165840482Y-125402608D01*
X165840482Y-125402608D02*
X165804767Y-125474037D01*
X165804767Y-125474037D02*
X165769053Y-125509751D01*
X165769053Y-125509751D02*
X165697625Y-125545465D01*
X165697625Y-125545465D02*
X165626196Y-125545465D01*
X165626196Y-125545465D02*
X165554767Y-125509751D01*
X165554767Y-125509751D02*
X165519053Y-125474037D01*
X165519053Y-125474037D02*
X165483339Y-125402608D01*
X165483339Y-125402608D02*
X165483339Y-125224037D01*
X165483339Y-125224037D02*
X165519053Y-125116894D01*
X165840482Y-124795465D02*
X165840482Y-124545465D01*
X166233339Y-124438322D02*
X166233339Y-124795465D01*
X166233339Y-124795465D02*
X165483339Y-124795465D01*
X165483339Y-124795465D02*
X165483339Y-124438322D01*
X166233339Y-123688323D02*
X165876196Y-123938323D01*
X166233339Y-124116894D02*
X165483339Y-124116894D01*
X165483339Y-124116894D02*
X165483339Y-123831180D01*
X165483339Y-123831180D02*
X165519053Y-123759751D01*
X165519053Y-123759751D02*
X165554767Y-123724037D01*
X165554767Y-123724037D02*
X165626196Y-123688323D01*
X165626196Y-123688323D02*
X165733339Y-123688323D01*
X165733339Y-123688323D02*
X165804767Y-123724037D01*
X165804767Y-123724037D02*
X165840482Y-123759751D01*
X165840482Y-123759751D02*
X165876196Y-123831180D01*
X165876196Y-123831180D02*
X165876196Y-124116894D01*
X163447625Y-127045465D02*
X163483339Y-126938323D01*
X163483339Y-126938323D02*
X163483339Y-126759751D01*
X163483339Y-126759751D02*
X163447625Y-126688323D01*
X163447625Y-126688323D02*
X163411910Y-126652608D01*
X163411910Y-126652608D02*
X163340482Y-126616894D01*
X163340482Y-126616894D02*
X163269053Y-126616894D01*
X163269053Y-126616894D02*
X163197625Y-126652608D01*
X163197625Y-126652608D02*
X163161910Y-126688323D01*
X163161910Y-126688323D02*
X163126196Y-126759751D01*
X163126196Y-126759751D02*
X163090482Y-126902608D01*
X163090482Y-126902608D02*
X163054767Y-126974037D01*
X163054767Y-126974037D02*
X163019053Y-127009751D01*
X163019053Y-127009751D02*
X162947625Y-127045465D01*
X162947625Y-127045465D02*
X162876196Y-127045465D01*
X162876196Y-127045465D02*
X162804767Y-127009751D01*
X162804767Y-127009751D02*
X162769053Y-126974037D01*
X162769053Y-126974037D02*
X162733339Y-126902608D01*
X162733339Y-126902608D02*
X162733339Y-126724037D01*
X162733339Y-126724037D02*
X162769053Y-126616894D01*
X163483339Y-125866894D02*
X163126196Y-126116894D01*
X163483339Y-126295465D02*
X162733339Y-126295465D01*
X162733339Y-126295465D02*
X162733339Y-126009751D01*
X162733339Y-126009751D02*
X162769053Y-125938322D01*
X162769053Y-125938322D02*
X162804767Y-125902608D01*
X162804767Y-125902608D02*
X162876196Y-125866894D01*
X162876196Y-125866894D02*
X162983339Y-125866894D01*
X162983339Y-125866894D02*
X163054767Y-125902608D01*
X163054767Y-125902608D02*
X163090482Y-125938322D01*
X163090482Y-125938322D02*
X163126196Y-126009751D01*
X163126196Y-126009751D02*
X163126196Y-126295465D01*
X163411910Y-125116894D02*
X163447625Y-125152608D01*
X163447625Y-125152608D02*
X163483339Y-125259751D01*
X163483339Y-125259751D02*
X163483339Y-125331179D01*
X163483339Y-125331179D02*
X163447625Y-125438322D01*
X163447625Y-125438322D02*
X163376196Y-125509751D01*
X163376196Y-125509751D02*
X163304767Y-125545465D01*
X163304767Y-125545465D02*
X163161910Y-125581179D01*
X163161910Y-125581179D02*
X163054767Y-125581179D01*
X163054767Y-125581179D02*
X162911910Y-125545465D01*
X162911910Y-125545465D02*
X162840482Y-125509751D01*
X162840482Y-125509751D02*
X162769053Y-125438322D01*
X162769053Y-125438322D02*
X162733339Y-125331179D01*
X162733339Y-125331179D02*
X162733339Y-125259751D01*
X162733339Y-125259751D02*
X162769053Y-125152608D01*
X162769053Y-125152608D02*
X162804767Y-125116894D01*
X163483339Y-124438322D02*
X163483339Y-124795465D01*
X163483339Y-124795465D02*
X162733339Y-124795465D01*
X163411910Y-123759751D02*
X163447625Y-123795465D01*
X163447625Y-123795465D02*
X163483339Y-123902608D01*
X163483339Y-123902608D02*
X163483339Y-123974036D01*
X163483339Y-123974036D02*
X163447625Y-124081179D01*
X163447625Y-124081179D02*
X163376196Y-124152608D01*
X163376196Y-124152608D02*
X163304767Y-124188322D01*
X163304767Y-124188322D02*
X163161910Y-124224036D01*
X163161910Y-124224036D02*
X163054767Y-124224036D01*
X163054767Y-124224036D02*
X162911910Y-124188322D01*
X162911910Y-124188322D02*
X162840482Y-124152608D01*
X162840482Y-124152608D02*
X162769053Y-124081179D01*
X162769053Y-124081179D02*
X162733339Y-123974036D01*
X162733339Y-123974036D02*
X162733339Y-123902608D01*
X162733339Y-123902608D02*
X162769053Y-123795465D01*
X162769053Y-123795465D02*
X162804767Y-123759751D01*
D11*
X140175419Y-105509523D02*
X140127800Y-105461904D01*
X140127800Y-105461904D02*
X140080180Y-105319047D01*
X140080180Y-105319047D02*
X140080180Y-105223809D01*
X140080180Y-105223809D02*
X140127800Y-105080952D01*
X140127800Y-105080952D02*
X140223038Y-104985714D01*
X140223038Y-104985714D02*
X140318276Y-104938095D01*
X140318276Y-104938095D02*
X140508752Y-104890476D01*
X140508752Y-104890476D02*
X140651609Y-104890476D01*
X140651609Y-104890476D02*
X140842085Y-104938095D01*
X140842085Y-104938095D02*
X140937323Y-104985714D01*
X140937323Y-104985714D02*
X141032561Y-105080952D01*
X141032561Y-105080952D02*
X141080180Y-105223809D01*
X141080180Y-105223809D02*
X141080180Y-105319047D01*
X141080180Y-105319047D02*
X141032561Y-105461904D01*
X141032561Y-105461904D02*
X140984942Y-105509523D01*
X110461847Y-99940476D02*
X109795180Y-99940476D01*
X110842800Y-99702381D02*
X110128514Y-99464286D01*
X110128514Y-99464286D02*
X110128514Y-100083333D01*
X168488095Y-117681009D02*
X168630952Y-117728628D01*
X168630952Y-117728628D02*
X168678571Y-117776247D01*
X168678571Y-117776247D02*
X168726190Y-117871485D01*
X168726190Y-117871485D02*
X168726190Y-118014342D01*
X168726190Y-118014342D02*
X168678571Y-118109580D01*
X168678571Y-118109580D02*
X168630952Y-118157200D01*
X168630952Y-118157200D02*
X168535714Y-118204819D01*
X168535714Y-118204819D02*
X168154762Y-118204819D01*
X168154762Y-118204819D02*
X168154762Y-117204819D01*
X168154762Y-117204819D02*
X168488095Y-117204819D01*
X168488095Y-117204819D02*
X168583333Y-117252438D01*
X168583333Y-117252438D02*
X168630952Y-117300057D01*
X168630952Y-117300057D02*
X168678571Y-117395295D01*
X168678571Y-117395295D02*
X168678571Y-117490533D01*
X168678571Y-117490533D02*
X168630952Y-117585771D01*
X168630952Y-117585771D02*
X168583333Y-117633390D01*
X168583333Y-117633390D02*
X168488095Y-117681009D01*
X168488095Y-117681009D02*
X168154762Y-117681009D01*
X169583333Y-117538152D02*
X169583333Y-118204819D01*
X169154762Y-117538152D02*
X169154762Y-118061961D01*
X169154762Y-118061961D02*
X169202381Y-118157200D01*
X169202381Y-118157200D02*
X169297619Y-118204819D01*
X169297619Y-118204819D02*
X169440476Y-118204819D01*
X169440476Y-118204819D02*
X169535714Y-118157200D01*
X169535714Y-118157200D02*
X169583333Y-118109580D01*
X170011905Y-118157200D02*
X170107143Y-118204819D01*
X170107143Y-118204819D02*
X170297619Y-118204819D01*
X170297619Y-118204819D02*
X170392857Y-118157200D01*
X170392857Y-118157200D02*
X170440476Y-118061961D01*
X170440476Y-118061961D02*
X170440476Y-118014342D01*
X170440476Y-118014342D02*
X170392857Y-117919104D01*
X170392857Y-117919104D02*
X170297619Y-117871485D01*
X170297619Y-117871485D02*
X170154762Y-117871485D01*
X170154762Y-117871485D02*
X170059524Y-117823866D01*
X170059524Y-117823866D02*
X170011905Y-117728628D01*
X170011905Y-117728628D02*
X170011905Y-117681009D01*
X170011905Y-117681009D02*
X170059524Y-117585771D01*
X170059524Y-117585771D02*
X170154762Y-117538152D01*
X170154762Y-117538152D02*
X170297619Y-117538152D01*
X170297619Y-117538152D02*
X170392857Y-117585771D01*
X170821429Y-117300057D02*
X170869048Y-117252438D01*
X170869048Y-117252438D02*
X170964286Y-117204819D01*
X170964286Y-117204819D02*
X171202381Y-117204819D01*
X171202381Y-117204819D02*
X171297619Y-117252438D01*
X171297619Y-117252438D02*
X171345238Y-117300057D01*
X171345238Y-117300057D02*
X171392857Y-117395295D01*
X171392857Y-117395295D02*
X171392857Y-117490533D01*
X171392857Y-117490533D02*
X171345238Y-117633390D01*
X171345238Y-117633390D02*
X170773810Y-118204819D01*
X170773810Y-118204819D02*
X171392857Y-118204819D01*
X150127255Y-119924334D02*
X150298684Y-119981476D01*
X150298684Y-119981476D02*
X150584398Y-119981476D01*
X150584398Y-119981476D02*
X150698684Y-119924334D01*
X150698684Y-119924334D02*
X150755826Y-119867191D01*
X150755826Y-119867191D02*
X150812969Y-119752905D01*
X150812969Y-119752905D02*
X150812969Y-119638619D01*
X150812969Y-119638619D02*
X150755826Y-119524334D01*
X150755826Y-119524334D02*
X150698684Y-119467191D01*
X150698684Y-119467191D02*
X150584398Y-119410048D01*
X150584398Y-119410048D02*
X150355826Y-119352905D01*
X150355826Y-119352905D02*
X150241541Y-119295762D01*
X150241541Y-119295762D02*
X150184398Y-119238619D01*
X150184398Y-119238619D02*
X150127255Y-119124334D01*
X150127255Y-119124334D02*
X150127255Y-119010048D01*
X150127255Y-119010048D02*
X150184398Y-118895762D01*
X150184398Y-118895762D02*
X150241541Y-118838619D01*
X150241541Y-118838619D02*
X150355826Y-118781476D01*
X150355826Y-118781476D02*
X150641541Y-118781476D01*
X150641541Y-118781476D02*
X150812969Y-118838619D01*
X151327255Y-119981476D02*
X151327255Y-118781476D01*
X151898684Y-119981476D02*
X151898684Y-118781476D01*
X151898684Y-118781476D02*
X152355827Y-118781476D01*
X152355827Y-118781476D02*
X152470112Y-118838619D01*
X152470112Y-118838619D02*
X152527255Y-118895762D01*
X152527255Y-118895762D02*
X152584398Y-119010048D01*
X152584398Y-119010048D02*
X152584398Y-119181476D01*
X152584398Y-119181476D02*
X152527255Y-119295762D01*
X152527255Y-119295762D02*
X152470112Y-119352905D01*
X152470112Y-119352905D02*
X152355827Y-119410048D01*
X152355827Y-119410048D02*
X151898684Y-119410048D01*
X150184398Y-121913409D02*
X150184398Y-120713409D01*
X150184398Y-121284838D02*
X150870112Y-121284838D01*
X150870112Y-121913409D02*
X150870112Y-120713409D01*
X151955827Y-121913409D02*
X151955827Y-121284838D01*
X151955827Y-121284838D02*
X151898684Y-121170552D01*
X151898684Y-121170552D02*
X151784398Y-121113409D01*
X151784398Y-121113409D02*
X151555827Y-121113409D01*
X151555827Y-121113409D02*
X151441541Y-121170552D01*
X151955827Y-121856267D02*
X151841541Y-121913409D01*
X151841541Y-121913409D02*
X151555827Y-121913409D01*
X151555827Y-121913409D02*
X151441541Y-121856267D01*
X151441541Y-121856267D02*
X151384398Y-121741981D01*
X151384398Y-121741981D02*
X151384398Y-121627695D01*
X151384398Y-121627695D02*
X151441541Y-121513409D01*
X151441541Y-121513409D02*
X151555827Y-121456267D01*
X151555827Y-121456267D02*
X151841541Y-121456267D01*
X151841541Y-121456267D02*
X151955827Y-121399124D01*
X152355826Y-121113409D02*
X152812969Y-121113409D01*
X152527255Y-120713409D02*
X152527255Y-121741981D01*
X152527255Y-121741981D02*
X152584398Y-121856267D01*
X152584398Y-121856267D02*
X152698683Y-121913409D01*
X152698683Y-121913409D02*
X152812969Y-121913409D01*
X150070112Y-123045342D02*
X150355826Y-123845342D01*
X150355826Y-123845342D02*
X150641541Y-123045342D01*
X151727255Y-123845342D02*
X151041541Y-123845342D01*
X151384398Y-123845342D02*
X151384398Y-122645342D01*
X151384398Y-122645342D02*
X151270112Y-122816771D01*
X151270112Y-122816771D02*
X151155827Y-122931057D01*
X151155827Y-122931057D02*
X151041541Y-122988200D01*
X152241541Y-123731057D02*
X152298684Y-123788200D01*
X152298684Y-123788200D02*
X152241541Y-123845342D01*
X152241541Y-123845342D02*
X152184398Y-123788200D01*
X152184398Y-123788200D02*
X152241541Y-123731057D01*
X152241541Y-123731057D02*
X152241541Y-123845342D01*
X153041541Y-122645342D02*
X153155827Y-122645342D01*
X153155827Y-122645342D02*
X153270113Y-122702485D01*
X153270113Y-122702485D02*
X153327256Y-122759628D01*
X153327256Y-122759628D02*
X153384398Y-122873914D01*
X153384398Y-122873914D02*
X153441541Y-123102485D01*
X153441541Y-123102485D02*
X153441541Y-123388200D01*
X153441541Y-123388200D02*
X153384398Y-123616771D01*
X153384398Y-123616771D02*
X153327256Y-123731057D01*
X153327256Y-123731057D02*
X153270113Y-123788200D01*
X153270113Y-123788200D02*
X153155827Y-123845342D01*
X153155827Y-123845342D02*
X153041541Y-123845342D01*
X153041541Y-123845342D02*
X152927256Y-123788200D01*
X152927256Y-123788200D02*
X152870113Y-123731057D01*
X152870113Y-123731057D02*
X152812970Y-123616771D01*
X152812970Y-123616771D02*
X152755827Y-123388200D01*
X152755827Y-123388200D02*
X152755827Y-123102485D01*
X152755827Y-123102485D02*
X152812970Y-122873914D01*
X152812970Y-122873914D02*
X152870113Y-122759628D01*
X152870113Y-122759628D02*
X152927256Y-122702485D01*
X152927256Y-122702485D02*
X153041541Y-122645342D01*
X167204819Y-107690476D02*
X167204819Y-108261904D01*
X167204819Y-107976190D02*
X166204819Y-107976190D01*
X166204819Y-107976190D02*
X166347676Y-108071428D01*
X166347676Y-108071428D02*
X166442914Y-108166666D01*
X166442914Y-108166666D02*
X166490533Y-108261904D01*
X166300057Y-107309523D02*
X166252438Y-107261904D01*
X166252438Y-107261904D02*
X166204819Y-107166666D01*
X166204819Y-107166666D02*
X166204819Y-106928571D01*
X166204819Y-106928571D02*
X166252438Y-106833333D01*
X166252438Y-106833333D02*
X166300057Y-106785714D01*
X166300057Y-106785714D02*
X166395295Y-106738095D01*
X166395295Y-106738095D02*
X166490533Y-106738095D01*
X166490533Y-106738095D02*
X166633390Y-106785714D01*
X166633390Y-106785714D02*
X167204819Y-107357142D01*
X167204819Y-107357142D02*
X167204819Y-106738095D01*
X140411133Y-97349048D02*
X140411133Y-98110953D01*
X132175419Y-105539523D02*
X132127800Y-105491904D01*
X132127800Y-105491904D02*
X132080180Y-105349047D01*
X132080180Y-105349047D02*
X132080180Y-105253809D01*
X132080180Y-105253809D02*
X132127800Y-105110952D01*
X132127800Y-105110952D02*
X132223038Y-105015714D01*
X132223038Y-105015714D02*
X132318276Y-104968095D01*
X132318276Y-104968095D02*
X132508752Y-104920476D01*
X132508752Y-104920476D02*
X132651609Y-104920476D01*
X132651609Y-104920476D02*
X132842085Y-104968095D01*
X132842085Y-104968095D02*
X132937323Y-105015714D01*
X132937323Y-105015714D02*
X133032561Y-105110952D01*
X133032561Y-105110952D02*
X133080180Y-105253809D01*
X133080180Y-105253809D02*
X133080180Y-105349047D01*
X133080180Y-105349047D02*
X133032561Y-105491904D01*
X133032561Y-105491904D02*
X132984942Y-105539523D01*
X166823866Y-95130951D02*
X166823866Y-94369047D01*
D12*
X170697625Y-124259751D02*
X170697625Y-123688323D01*
D11*
X142780180Y-99218095D02*
X143780180Y-99218095D01*
X143684942Y-99646666D02*
X143732561Y-99694285D01*
X143732561Y-99694285D02*
X143780180Y-99789523D01*
X143780180Y-99789523D02*
X143780180Y-100027618D01*
X143780180Y-100027618D02*
X143732561Y-100122856D01*
X143732561Y-100122856D02*
X143684942Y-100170475D01*
X143684942Y-100170475D02*
X143589704Y-100218094D01*
X143589704Y-100218094D02*
X143494466Y-100218094D01*
X143494466Y-100218094D02*
X143351609Y-100170475D01*
X143351609Y-100170475D02*
X142780180Y-99599047D01*
X142780180Y-99599047D02*
X142780180Y-100218094D01*
X142875419Y-101218094D02*
X142827800Y-101170475D01*
X142827800Y-101170475D02*
X142780180Y-101027618D01*
X142780180Y-101027618D02*
X142780180Y-100932380D01*
X142780180Y-100932380D02*
X142827800Y-100789523D01*
X142827800Y-100789523D02*
X142923038Y-100694285D01*
X142923038Y-100694285D02*
X143018276Y-100646666D01*
X143018276Y-100646666D02*
X143208752Y-100599047D01*
X143208752Y-100599047D02*
X143351609Y-100599047D01*
X143351609Y-100599047D02*
X143542085Y-100646666D01*
X143542085Y-100646666D02*
X143637323Y-100694285D01*
X143637323Y-100694285D02*
X143732561Y-100789523D01*
X143732561Y-100789523D02*
X143780180Y-100932380D01*
X143780180Y-100932380D02*
X143780180Y-101027618D01*
X143780180Y-101027618D02*
X143732561Y-101170475D01*
X143732561Y-101170475D02*
X143684942Y-101218094D01*
X143780180Y-102884761D02*
X143780180Y-102408571D01*
X143780180Y-102408571D02*
X143303990Y-102360952D01*
X143303990Y-102360952D02*
X143351609Y-102408571D01*
X143351609Y-102408571D02*
X143399228Y-102503809D01*
X143399228Y-102503809D02*
X143399228Y-102741904D01*
X143399228Y-102741904D02*
X143351609Y-102837142D01*
X143351609Y-102837142D02*
X143303990Y-102884761D01*
X143303990Y-102884761D02*
X143208752Y-102932380D01*
X143208752Y-102932380D02*
X142970657Y-102932380D01*
X142970657Y-102932380D02*
X142875419Y-102884761D01*
X142875419Y-102884761D02*
X142827800Y-102837142D01*
X142827800Y-102837142D02*
X142780180Y-102741904D01*
X142780180Y-102741904D02*
X142780180Y-102503809D01*
X142780180Y-102503809D02*
X142827800Y-102408571D01*
X142827800Y-102408571D02*
X142875419Y-102360952D01*
X143780180Y-103218095D02*
X142780180Y-103551428D01*
X142780180Y-103551428D02*
X143780180Y-103884761D01*
X167204819Y-100190476D02*
X167204819Y-100761904D01*
X167204819Y-100476190D02*
X166204819Y-100476190D01*
X166204819Y-100476190D02*
X166347676Y-100571428D01*
X166347676Y-100571428D02*
X166442914Y-100666666D01*
X166442914Y-100666666D02*
X166490533Y-100761904D01*
X166204819Y-99285714D02*
X166204819Y-99761904D01*
X166204819Y-99761904D02*
X166681009Y-99809523D01*
X166681009Y-99809523D02*
X166633390Y-99761904D01*
X166633390Y-99761904D02*
X166585771Y-99666666D01*
X166585771Y-99666666D02*
X166585771Y-99428571D01*
X166585771Y-99428571D02*
X166633390Y-99333333D01*
X166633390Y-99333333D02*
X166681009Y-99285714D01*
X166681009Y-99285714D02*
X166776247Y-99238095D01*
X166776247Y-99238095D02*
X167014342Y-99238095D01*
X167014342Y-99238095D02*
X167109580Y-99285714D01*
X167109580Y-99285714D02*
X167157200Y-99333333D01*
X167157200Y-99333333D02*
X167204819Y-99428571D01*
X167204819Y-99428571D02*
X167204819Y-99666666D01*
X167204819Y-99666666D02*
X167157200Y-99761904D01*
X167157200Y-99761904D02*
X167109580Y-99809523D01*
X167204819Y-112690476D02*
X167204819Y-113261904D01*
X167204819Y-112976190D02*
X166204819Y-112976190D01*
X166204819Y-112976190D02*
X166347676Y-113071428D01*
X166347676Y-113071428D02*
X166442914Y-113166666D01*
X166442914Y-113166666D02*
X166490533Y-113261904D01*
X166204819Y-112071428D02*
X166204819Y-111976190D01*
X166204819Y-111976190D02*
X166252438Y-111880952D01*
X166252438Y-111880952D02*
X166300057Y-111833333D01*
X166300057Y-111833333D02*
X166395295Y-111785714D01*
X166395295Y-111785714D02*
X166585771Y-111738095D01*
X166585771Y-111738095D02*
X166823866Y-111738095D01*
X166823866Y-111738095D02*
X167014342Y-111785714D01*
X167014342Y-111785714D02*
X167109580Y-111833333D01*
X167109580Y-111833333D02*
X167157200Y-111880952D01*
X167157200Y-111880952D02*
X167204819Y-111976190D01*
X167204819Y-111976190D02*
X167204819Y-112071428D01*
X167204819Y-112071428D02*
X167157200Y-112166666D01*
X167157200Y-112166666D02*
X167109580Y-112214285D01*
X167109580Y-112214285D02*
X167014342Y-112261904D01*
X167014342Y-112261904D02*
X166823866Y-112309523D01*
X166823866Y-112309523D02*
X166585771Y-112309523D01*
X166585771Y-112309523D02*
X166395295Y-112261904D01*
X166395295Y-112261904D02*
X166300057Y-112214285D01*
X166300057Y-112214285D02*
X166252438Y-112166666D01*
X166252438Y-112166666D02*
X166204819Y-112071428D01*
X110795180Y-96916667D02*
X110795180Y-97535714D01*
X110795180Y-97535714D02*
X110414228Y-97202381D01*
X110414228Y-97202381D02*
X110414228Y-97345238D01*
X110414228Y-97345238D02*
X110366609Y-97440476D01*
X110366609Y-97440476D02*
X110318990Y-97488095D01*
X110318990Y-97488095D02*
X110223752Y-97535714D01*
X110223752Y-97535714D02*
X109985657Y-97535714D01*
X109985657Y-97535714D02*
X109890419Y-97488095D01*
X109890419Y-97488095D02*
X109842800Y-97440476D01*
X109842800Y-97440476D02*
X109795180Y-97345238D01*
X109795180Y-97345238D02*
X109795180Y-97059524D01*
X109795180Y-97059524D02*
X109842800Y-96964286D01*
X109842800Y-96964286D02*
X109890419Y-96916667D01*
X110176133Y-114369048D02*
X110176133Y-115130953D01*
X109795180Y-114750000D02*
X110557085Y-114750000D01*
X169369048Y-85323866D02*
X170130953Y-85323866D01*
D12*
X173447625Y-125759751D02*
X173447625Y-125188323D01*
X173733339Y-125474037D02*
X173161910Y-125474037D01*
X172983339Y-124474037D02*
X172983339Y-124831180D01*
X172983339Y-124831180D02*
X173340482Y-124866894D01*
X173340482Y-124866894D02*
X173304767Y-124831180D01*
X173304767Y-124831180D02*
X173269053Y-124759752D01*
X173269053Y-124759752D02*
X173269053Y-124581180D01*
X173269053Y-124581180D02*
X173304767Y-124509752D01*
X173304767Y-124509752D02*
X173340482Y-124474037D01*
X173340482Y-124474037D02*
X173411910Y-124438323D01*
X173411910Y-124438323D02*
X173590482Y-124438323D01*
X173590482Y-124438323D02*
X173661910Y-124474037D01*
X173661910Y-124474037D02*
X173697625Y-124509752D01*
X173697625Y-124509752D02*
X173733339Y-124581180D01*
X173733339Y-124581180D02*
X173733339Y-124759752D01*
X173733339Y-124759752D02*
X173697625Y-124831180D01*
X173697625Y-124831180D02*
X173661910Y-124866894D01*
X172983339Y-124224037D02*
X173733339Y-123974037D01*
X173733339Y-123974037D02*
X172983339Y-123724037D01*
D11*
X132030180Y-102468095D02*
X133030180Y-102468095D01*
X133030180Y-102468095D02*
X133030180Y-102706190D01*
X133030180Y-102706190D02*
X132982561Y-102849047D01*
X132982561Y-102849047D02*
X132887323Y-102944285D01*
X132887323Y-102944285D02*
X132792085Y-102991904D01*
X132792085Y-102991904D02*
X132601609Y-103039523D01*
X132601609Y-103039523D02*
X132458752Y-103039523D01*
X132458752Y-103039523D02*
X132268276Y-102991904D01*
X132268276Y-102991904D02*
X132173038Y-102944285D01*
X132173038Y-102944285D02*
X132077800Y-102849047D01*
X132077800Y-102849047D02*
X132030180Y-102706190D01*
X132030180Y-102706190D02*
X132030180Y-102468095D01*
X167204819Y-105190476D02*
X167204819Y-105761904D01*
X167204819Y-105476190D02*
X166204819Y-105476190D01*
X166204819Y-105476190D02*
X166347676Y-105571428D01*
X166347676Y-105571428D02*
X166442914Y-105666666D01*
X166442914Y-105666666D02*
X166490533Y-105761904D01*
X166204819Y-104857142D02*
X166204819Y-104238095D01*
X166204819Y-104238095D02*
X166585771Y-104571428D01*
X166585771Y-104571428D02*
X166585771Y-104428571D01*
X166585771Y-104428571D02*
X166633390Y-104333333D01*
X166633390Y-104333333D02*
X166681009Y-104285714D01*
X166681009Y-104285714D02*
X166776247Y-104238095D01*
X166776247Y-104238095D02*
X167014342Y-104238095D01*
X167014342Y-104238095D02*
X167109580Y-104285714D01*
X167109580Y-104285714D02*
X167157200Y-104333333D01*
X167157200Y-104333333D02*
X167204819Y-104428571D01*
X167204819Y-104428571D02*
X167204819Y-104714285D01*
X167204819Y-104714285D02*
X167157200Y-104809523D01*
X167157200Y-104809523D02*
X167109580Y-104857142D01*
X174000000Y-87318990D02*
X174333333Y-87318990D01*
X174333333Y-86795180D02*
X174333333Y-87795180D01*
X174333333Y-87795180D02*
X173857143Y-87795180D01*
X173333333Y-86795180D02*
X173428571Y-86842800D01*
X173428571Y-86842800D02*
X173476190Y-86938038D01*
X173476190Y-86938038D02*
X173476190Y-87795180D01*
X172809523Y-86795180D02*
X172904761Y-86842800D01*
X172904761Y-86842800D02*
X172952380Y-86890419D01*
X172952380Y-86890419D02*
X172999999Y-86985657D01*
X172999999Y-86985657D02*
X172999999Y-87271371D01*
X172999999Y-87271371D02*
X172952380Y-87366609D01*
X172952380Y-87366609D02*
X172904761Y-87414228D01*
X172904761Y-87414228D02*
X172809523Y-87461847D01*
X172809523Y-87461847D02*
X172666666Y-87461847D01*
X172666666Y-87461847D02*
X172571428Y-87414228D01*
X172571428Y-87414228D02*
X172523809Y-87366609D01*
X172523809Y-87366609D02*
X172476190Y-87271371D01*
X172476190Y-87271371D02*
X172476190Y-86985657D01*
X172476190Y-86985657D02*
X172523809Y-86890419D01*
X172523809Y-86890419D02*
X172571428Y-86842800D01*
X172571428Y-86842800D02*
X172666666Y-86795180D01*
X172666666Y-86795180D02*
X172809523Y-86795180D01*
X172142856Y-87461847D02*
X171952380Y-86795180D01*
X171952380Y-86795180D02*
X171761904Y-87271371D01*
X171761904Y-87271371D02*
X171571428Y-86795180D01*
X171571428Y-86795180D02*
X171380952Y-87461847D01*
X170285713Y-86842800D02*
X170142856Y-86795180D01*
X170142856Y-86795180D02*
X169904761Y-86795180D01*
X169904761Y-86795180D02*
X169809523Y-86842800D01*
X169809523Y-86842800D02*
X169761904Y-86890419D01*
X169761904Y-86890419D02*
X169714285Y-86985657D01*
X169714285Y-86985657D02*
X169714285Y-87080895D01*
X169714285Y-87080895D02*
X169761904Y-87176133D01*
X169761904Y-87176133D02*
X169809523Y-87223752D01*
X169809523Y-87223752D02*
X169904761Y-87271371D01*
X169904761Y-87271371D02*
X170095237Y-87318990D01*
X170095237Y-87318990D02*
X170190475Y-87366609D01*
X170190475Y-87366609D02*
X170238094Y-87414228D01*
X170238094Y-87414228D02*
X170285713Y-87509466D01*
X170285713Y-87509466D02*
X170285713Y-87604704D01*
X170285713Y-87604704D02*
X170238094Y-87699942D01*
X170238094Y-87699942D02*
X170190475Y-87747561D01*
X170190475Y-87747561D02*
X170095237Y-87795180D01*
X170095237Y-87795180D02*
X169857142Y-87795180D01*
X169857142Y-87795180D02*
X169714285Y-87747561D01*
X168904761Y-86842800D02*
X168999999Y-86795180D01*
X168999999Y-86795180D02*
X169190475Y-86795180D01*
X169190475Y-86795180D02*
X169285713Y-86842800D01*
X169285713Y-86842800D02*
X169333332Y-86938038D01*
X169333332Y-86938038D02*
X169333332Y-87318990D01*
X169333332Y-87318990D02*
X169285713Y-87414228D01*
X169285713Y-87414228D02*
X169190475Y-87461847D01*
X169190475Y-87461847D02*
X168999999Y-87461847D01*
X168999999Y-87461847D02*
X168904761Y-87414228D01*
X168904761Y-87414228D02*
X168857142Y-87318990D01*
X168857142Y-87318990D02*
X168857142Y-87223752D01*
X168857142Y-87223752D02*
X169333332Y-87128514D01*
X168428570Y-87461847D02*
X168428570Y-86795180D01*
X168428570Y-87366609D02*
X168380951Y-87414228D01*
X168380951Y-87414228D02*
X168285713Y-87461847D01*
X168285713Y-87461847D02*
X168142856Y-87461847D01*
X168142856Y-87461847D02*
X168047618Y-87414228D01*
X168047618Y-87414228D02*
X167999999Y-87318990D01*
X167999999Y-87318990D02*
X167999999Y-86795180D01*
X167571427Y-86842800D02*
X167476189Y-86795180D01*
X167476189Y-86795180D02*
X167285713Y-86795180D01*
X167285713Y-86795180D02*
X167190475Y-86842800D01*
X167190475Y-86842800D02*
X167142856Y-86938038D01*
X167142856Y-86938038D02*
X167142856Y-86985657D01*
X167142856Y-86985657D02*
X167190475Y-87080895D01*
X167190475Y-87080895D02*
X167285713Y-87128514D01*
X167285713Y-87128514D02*
X167428570Y-87128514D01*
X167428570Y-87128514D02*
X167523808Y-87176133D01*
X167523808Y-87176133D02*
X167571427Y-87271371D01*
X167571427Y-87271371D02*
X167571427Y-87318990D01*
X167571427Y-87318990D02*
X167523808Y-87414228D01*
X167523808Y-87414228D02*
X167428570Y-87461847D01*
X167428570Y-87461847D02*
X167285713Y-87461847D01*
X167285713Y-87461847D02*
X167190475Y-87414228D01*
X166571427Y-86795180D02*
X166666665Y-86842800D01*
X166666665Y-86842800D02*
X166714284Y-86890419D01*
X166714284Y-86890419D02*
X166761903Y-86985657D01*
X166761903Y-86985657D02*
X166761903Y-87271371D01*
X166761903Y-87271371D02*
X166714284Y-87366609D01*
X166714284Y-87366609D02*
X166666665Y-87414228D01*
X166666665Y-87414228D02*
X166571427Y-87461847D01*
X166571427Y-87461847D02*
X166428570Y-87461847D01*
X166428570Y-87461847D02*
X166333332Y-87414228D01*
X166333332Y-87414228D02*
X166285713Y-87366609D01*
X166285713Y-87366609D02*
X166238094Y-87271371D01*
X166238094Y-87271371D02*
X166238094Y-86985657D01*
X166238094Y-86985657D02*
X166285713Y-86890419D01*
X166285713Y-86890419D02*
X166333332Y-86842800D01*
X166333332Y-86842800D02*
X166428570Y-86795180D01*
X166428570Y-86795180D02*
X166571427Y-86795180D01*
X165809522Y-86795180D02*
X165809522Y-87461847D01*
X165809522Y-87271371D02*
X165761903Y-87366609D01*
X165761903Y-87366609D02*
X165714284Y-87414228D01*
X165714284Y-87414228D02*
X165619046Y-87461847D01*
X165619046Y-87461847D02*
X165523808Y-87461847D01*
D10*
G36*
X178260075Y-126305250D02*
G01*
X178385630Y-126324930D01*
X178502908Y-126361722D01*
X178600942Y-126416234D01*
X178657672Y-126464082D01*
X178706219Y-126521960D01*
X178747012Y-126590954D01*
X178775926Y-126666341D01*
X178794517Y-126757473D01*
X178801197Y-126867534D01*
X178795016Y-126976076D01*
X178777753Y-127066904D01*
X178750859Y-127142839D01*
X178690421Y-127243583D01*
X178612373Y-127320226D01*
X178517779Y-127375997D01*
X178403325Y-127414199D01*
X178279560Y-127434763D01*
X178141412Y-127441926D01*
X177854329Y-127441926D01*
X177854329Y-128177000D01*
X177461513Y-128177000D01*
X177461513Y-127092952D01*
X177854329Y-127092952D01*
X178116242Y-127092952D01*
X178218128Y-127082395D01*
X178265228Y-127067893D01*
X178306276Y-127046546D01*
X178341420Y-127016909D01*
X178369254Y-126977633D01*
X178386797Y-126930158D01*
X178393214Y-126867534D01*
X178384782Y-126800958D01*
X178361670Y-126752215D01*
X178326006Y-126713600D01*
X178281106Y-126684578D01*
X178230027Y-126665224D01*
X178171637Y-126654066D01*
X178055792Y-126647453D01*
X177854329Y-126647453D01*
X177854329Y-127092952D01*
X177461513Y-127092952D01*
X177461513Y-126298479D01*
X178123826Y-126298479D01*
X178260075Y-126305250D01*
G37*
G36*
X175939673Y-127001970D02*
G01*
X175915148Y-126921220D01*
X175864413Y-126843874D01*
X175798487Y-126777491D01*
X175731622Y-126729980D01*
X175641079Y-126690678D01*
X175541290Y-126673254D01*
X175492138Y-126676903D01*
X175446977Y-126691283D01*
X175407920Y-126717517D01*
X175375436Y-126759265D01*
X175354188Y-126811703D01*
X175351115Y-126861448D01*
X175365277Y-126911194D01*
X175407211Y-126984462D01*
X175471439Y-127065837D01*
X175628134Y-127233581D01*
X175706639Y-127325754D01*
X175771014Y-127425499D01*
X175815848Y-127533878D01*
X175835349Y-127652588D01*
X175830304Y-127732594D01*
X175805097Y-127822482D01*
X175755581Y-127925084D01*
X175695143Y-128015192D01*
X175629554Y-128087107D01*
X175558663Y-128143058D01*
X175439360Y-128204205D01*
X175312785Y-128236029D01*
X175180846Y-128240413D01*
X175042104Y-128218085D01*
X174905282Y-128172748D01*
X174769269Y-128105688D01*
X174662115Y-128035968D01*
X174568978Y-127959210D01*
X174488688Y-127875303D01*
X174420424Y-127781818D01*
X174363536Y-127675627D01*
X174318160Y-127555175D01*
X174758550Y-127413751D01*
X174784453Y-127520243D01*
X174835785Y-127618252D01*
X174907812Y-127702375D01*
X174994371Y-127766358D01*
X175093774Y-127809365D01*
X175147181Y-127821777D01*
X175197400Y-127825761D01*
X175246042Y-127820522D01*
X175290058Y-127805225D01*
X175328134Y-127778825D01*
X175359153Y-127738793D01*
X175380395Y-127686284D01*
X175383871Y-127635049D01*
X175370119Y-127582535D01*
X175328730Y-127505164D01*
X175265006Y-127420459D01*
X175107356Y-127245819D01*
X175027693Y-127150425D01*
X174962285Y-127049392D01*
X174915851Y-126940556D01*
X174894113Y-126823331D01*
X174897507Y-126744326D01*
X174920657Y-126657299D01*
X174967222Y-126559682D01*
X175025821Y-126472981D01*
X175090349Y-126403706D01*
X175161029Y-126349783D01*
X175280086Y-126291007D01*
X175406834Y-126259872D01*
X175538771Y-126255018D01*
X175677084Y-126275874D01*
X175812536Y-126319119D01*
X175942024Y-126382162D01*
X176079390Y-126475406D01*
X176199138Y-126586025D01*
X176266828Y-126670190D01*
X176321481Y-126763357D01*
X176363450Y-126866606D01*
X175939673Y-127001970D01*
G37*
D11*
X151033333Y-86359580D02*
X150985714Y-86407200D01*
X150985714Y-86407200D02*
X150842857Y-86454819D01*
X150842857Y-86454819D02*
X150747619Y-86454819D01*
X150747619Y-86454819D02*
X150604762Y-86407200D01*
X150604762Y-86407200D02*
X150509524Y-86311961D01*
X150509524Y-86311961D02*
X150461905Y-86216723D01*
X150461905Y-86216723D02*
X150414286Y-86026247D01*
X150414286Y-86026247D02*
X150414286Y-85883390D01*
X150414286Y-85883390D02*
X150461905Y-85692914D01*
X150461905Y-85692914D02*
X150509524Y-85597676D01*
X150509524Y-85597676D02*
X150604762Y-85502438D01*
X150604762Y-85502438D02*
X150747619Y-85454819D01*
X150747619Y-85454819D02*
X150842857Y-85454819D01*
X150842857Y-85454819D02*
X150985714Y-85502438D01*
X150985714Y-85502438D02*
X151033333Y-85550057D01*
X151938095Y-85454819D02*
X151461905Y-85454819D01*
X151461905Y-85454819D02*
X151414286Y-85931009D01*
X151414286Y-85931009D02*
X151461905Y-85883390D01*
X151461905Y-85883390D02*
X151557143Y-85835771D01*
X151557143Y-85835771D02*
X151795238Y-85835771D01*
X151795238Y-85835771D02*
X151890476Y-85883390D01*
X151890476Y-85883390D02*
X151938095Y-85931009D01*
X151938095Y-85931009D02*
X151985714Y-86026247D01*
X151985714Y-86026247D02*
X151985714Y-86264342D01*
X151985714Y-86264342D02*
X151938095Y-86359580D01*
X151938095Y-86359580D02*
X151890476Y-86407200D01*
X151890476Y-86407200D02*
X151795238Y-86454819D01*
X151795238Y-86454819D02*
X151557143Y-86454819D01*
X151557143Y-86454819D02*
X151461905Y-86407200D01*
X151461905Y-86407200D02*
X151414286Y-86359580D01*
X158011905Y-84454819D02*
X158011905Y-83454819D01*
X158011905Y-83454819D02*
X158250000Y-83454819D01*
X158250000Y-83454819D02*
X158392857Y-83502438D01*
X158392857Y-83502438D02*
X158488095Y-83597676D01*
X158488095Y-83597676D02*
X158535714Y-83692914D01*
X158535714Y-83692914D02*
X158583333Y-83883390D01*
X158583333Y-83883390D02*
X158583333Y-84026247D01*
X158583333Y-84026247D02*
X158535714Y-84216723D01*
X158535714Y-84216723D02*
X158488095Y-84311961D01*
X158488095Y-84311961D02*
X158392857Y-84407200D01*
X158392857Y-84407200D02*
X158250000Y-84454819D01*
X158250000Y-84454819D02*
X158011905Y-84454819D01*
X158964286Y-83550057D02*
X159011905Y-83502438D01*
X159011905Y-83502438D02*
X159107143Y-83454819D01*
X159107143Y-83454819D02*
X159345238Y-83454819D01*
X159345238Y-83454819D02*
X159440476Y-83502438D01*
X159440476Y-83502438D02*
X159488095Y-83550057D01*
X159488095Y-83550057D02*
X159535714Y-83645295D01*
X159535714Y-83645295D02*
X159535714Y-83740533D01*
X159535714Y-83740533D02*
X159488095Y-83883390D01*
X159488095Y-83883390D02*
X158916667Y-84454819D01*
X158916667Y-84454819D02*
X159535714Y-84454819D01*
X157704819Y-122083333D02*
X158419104Y-122083333D01*
X158419104Y-122083333D02*
X158561961Y-122130952D01*
X158561961Y-122130952D02*
X158657200Y-122226190D01*
X158657200Y-122226190D02*
X158704819Y-122369047D01*
X158704819Y-122369047D02*
X158704819Y-122464285D01*
X157704819Y-121702380D02*
X157704819Y-121035714D01*
X157704819Y-121035714D02*
X158704819Y-121464285D01*
X129333333Y-90124819D02*
X129000000Y-89648628D01*
X128761905Y-90124819D02*
X128761905Y-89124819D01*
X128761905Y-89124819D02*
X129142857Y-89124819D01*
X129142857Y-89124819D02*
X129238095Y-89172438D01*
X129238095Y-89172438D02*
X129285714Y-89220057D01*
X129285714Y-89220057D02*
X129333333Y-89315295D01*
X129333333Y-89315295D02*
X129333333Y-89458152D01*
X129333333Y-89458152D02*
X129285714Y-89553390D01*
X129285714Y-89553390D02*
X129238095Y-89601009D01*
X129238095Y-89601009D02*
X129142857Y-89648628D01*
X129142857Y-89648628D02*
X128761905Y-89648628D01*
X129809524Y-90124819D02*
X130000000Y-90124819D01*
X130000000Y-90124819D02*
X130095238Y-90077200D01*
X130095238Y-90077200D02*
X130142857Y-90029580D01*
X130142857Y-90029580D02*
X130238095Y-89886723D01*
X130238095Y-89886723D02*
X130285714Y-89696247D01*
X130285714Y-89696247D02*
X130285714Y-89315295D01*
X130285714Y-89315295D02*
X130238095Y-89220057D01*
X130238095Y-89220057D02*
X130190476Y-89172438D01*
X130190476Y-89172438D02*
X130095238Y-89124819D01*
X130095238Y-89124819D02*
X129904762Y-89124819D01*
X129904762Y-89124819D02*
X129809524Y-89172438D01*
X129809524Y-89172438D02*
X129761905Y-89220057D01*
X129761905Y-89220057D02*
X129714286Y-89315295D01*
X129714286Y-89315295D02*
X129714286Y-89553390D01*
X129714286Y-89553390D02*
X129761905Y-89648628D01*
X129761905Y-89648628D02*
X129809524Y-89696247D01*
X129809524Y-89696247D02*
X129904762Y-89743866D01*
X129904762Y-89743866D02*
X130095238Y-89743866D01*
X130095238Y-89743866D02*
X130190476Y-89696247D01*
X130190476Y-89696247D02*
X130238095Y-89648628D01*
X130238095Y-89648628D02*
X130285714Y-89553390D01*
X142988095Y-108454819D02*
X142988095Y-109264342D01*
X142988095Y-109264342D02*
X143035714Y-109359580D01*
X143035714Y-109359580D02*
X143083333Y-109407200D01*
X143083333Y-109407200D02*
X143178571Y-109454819D01*
X143178571Y-109454819D02*
X143369047Y-109454819D01*
X143369047Y-109454819D02*
X143464285Y-109407200D01*
X143464285Y-109407200D02*
X143511904Y-109359580D01*
X143511904Y-109359580D02*
X143559523Y-109264342D01*
X143559523Y-109264342D02*
X143559523Y-108454819D01*
X143940476Y-108454819D02*
X144559523Y-108454819D01*
X144559523Y-108454819D02*
X144226190Y-108835771D01*
X144226190Y-108835771D02*
X144369047Y-108835771D01*
X144369047Y-108835771D02*
X144464285Y-108883390D01*
X144464285Y-108883390D02*
X144511904Y-108931009D01*
X144511904Y-108931009D02*
X144559523Y-109026247D01*
X144559523Y-109026247D02*
X144559523Y-109264342D01*
X144559523Y-109264342D02*
X144511904Y-109359580D01*
X144511904Y-109359580D02*
X144464285Y-109407200D01*
X144464285Y-109407200D02*
X144369047Y-109454819D01*
X144369047Y-109454819D02*
X144083333Y-109454819D01*
X144083333Y-109454819D02*
X143988095Y-109407200D01*
X143988095Y-109407200D02*
X143940476Y-109359580D01*
X159178095Y-114564819D02*
X159178095Y-115374342D01*
X159178095Y-115374342D02*
X159225714Y-115469580D01*
X159225714Y-115469580D02*
X159273333Y-115517200D01*
X159273333Y-115517200D02*
X159368571Y-115564819D01*
X159368571Y-115564819D02*
X159559047Y-115564819D01*
X159559047Y-115564819D02*
X159654285Y-115517200D01*
X159654285Y-115517200D02*
X159701904Y-115469580D01*
X159701904Y-115469580D02*
X159749523Y-115374342D01*
X159749523Y-115374342D02*
X159749523Y-114564819D01*
X160178095Y-114660057D02*
X160225714Y-114612438D01*
X160225714Y-114612438D02*
X160320952Y-114564819D01*
X160320952Y-114564819D02*
X160559047Y-114564819D01*
X160559047Y-114564819D02*
X160654285Y-114612438D01*
X160654285Y-114612438D02*
X160701904Y-114660057D01*
X160701904Y-114660057D02*
X160749523Y-114755295D01*
X160749523Y-114755295D02*
X160749523Y-114850533D01*
X160749523Y-114850533D02*
X160701904Y-114993390D01*
X160701904Y-114993390D02*
X160130476Y-115564819D01*
X160130476Y-115564819D02*
X160749523Y-115564819D01*
X156081819Y-90666666D02*
X155605628Y-90999999D01*
X156081819Y-91238094D02*
X155081819Y-91238094D01*
X155081819Y-91238094D02*
X155081819Y-90857142D01*
X155081819Y-90857142D02*
X155129438Y-90761904D01*
X155129438Y-90761904D02*
X155177057Y-90714285D01*
X155177057Y-90714285D02*
X155272295Y-90666666D01*
X155272295Y-90666666D02*
X155415152Y-90666666D01*
X155415152Y-90666666D02*
X155510390Y-90714285D01*
X155510390Y-90714285D02*
X155558009Y-90761904D01*
X155558009Y-90761904D02*
X155605628Y-90857142D01*
X155605628Y-90857142D02*
X155605628Y-91238094D01*
X155081819Y-89809523D02*
X155081819Y-89999999D01*
X155081819Y-89999999D02*
X155129438Y-90095237D01*
X155129438Y-90095237D02*
X155177057Y-90142856D01*
X155177057Y-90142856D02*
X155319914Y-90238094D01*
X155319914Y-90238094D02*
X155510390Y-90285713D01*
X155510390Y-90285713D02*
X155891342Y-90285713D01*
X155891342Y-90285713D02*
X155986580Y-90238094D01*
X155986580Y-90238094D02*
X156034200Y-90190475D01*
X156034200Y-90190475D02*
X156081819Y-90095237D01*
X156081819Y-90095237D02*
X156081819Y-89904761D01*
X156081819Y-89904761D02*
X156034200Y-89809523D01*
X156034200Y-89809523D02*
X155986580Y-89761904D01*
X155986580Y-89761904D02*
X155891342Y-89714285D01*
X155891342Y-89714285D02*
X155653247Y-89714285D01*
X155653247Y-89714285D02*
X155558009Y-89761904D01*
X155558009Y-89761904D02*
X155510390Y-89809523D01*
X155510390Y-89809523D02*
X155462771Y-89904761D01*
X155462771Y-89904761D02*
X155462771Y-90095237D01*
X155462771Y-90095237D02*
X155510390Y-90190475D01*
X155510390Y-90190475D02*
X155558009Y-90238094D01*
X155558009Y-90238094D02*
X155653247Y-90285713D01*
X115488095Y-92124819D02*
X115488095Y-92934342D01*
X115488095Y-92934342D02*
X115535714Y-93029580D01*
X115535714Y-93029580D02*
X115583333Y-93077200D01*
X115583333Y-93077200D02*
X115678571Y-93124819D01*
X115678571Y-93124819D02*
X115869047Y-93124819D01*
X115869047Y-93124819D02*
X115964285Y-93077200D01*
X115964285Y-93077200D02*
X116011904Y-93029580D01*
X116011904Y-93029580D02*
X116059523Y-92934342D01*
X116059523Y-92934342D02*
X116059523Y-92124819D01*
X117059523Y-93124819D02*
X116488095Y-93124819D01*
X116773809Y-93124819D02*
X116773809Y-92124819D01*
X116773809Y-92124819D02*
X116678571Y-92267676D01*
X116678571Y-92267676D02*
X116583333Y-92362914D01*
X116583333Y-92362914D02*
X116488095Y-92410533D01*
X127284819Y-104166666D02*
X126808628Y-104499999D01*
X127284819Y-104738094D02*
X126284819Y-104738094D01*
X126284819Y-104738094D02*
X126284819Y-104357142D01*
X126284819Y-104357142D02*
X126332438Y-104261904D01*
X126332438Y-104261904D02*
X126380057Y-104214285D01*
X126380057Y-104214285D02*
X126475295Y-104166666D01*
X126475295Y-104166666D02*
X126618152Y-104166666D01*
X126618152Y-104166666D02*
X126713390Y-104214285D01*
X126713390Y-104214285D02*
X126761009Y-104261904D01*
X126761009Y-104261904D02*
X126808628Y-104357142D01*
X126808628Y-104357142D02*
X126808628Y-104738094D01*
X127284819Y-103214285D02*
X127284819Y-103785713D01*
X127284819Y-103499999D02*
X126284819Y-103499999D01*
X126284819Y-103499999D02*
X126427676Y-103595237D01*
X126427676Y-103595237D02*
X126522914Y-103690475D01*
X126522914Y-103690475D02*
X126570533Y-103785713D01*
X114954819Y-117166666D02*
X114478628Y-117499999D01*
X114954819Y-117738094D02*
X113954819Y-117738094D01*
X113954819Y-117738094D02*
X113954819Y-117357142D01*
X113954819Y-117357142D02*
X114002438Y-117261904D01*
X114002438Y-117261904D02*
X114050057Y-117214285D01*
X114050057Y-117214285D02*
X114145295Y-117166666D01*
X114145295Y-117166666D02*
X114288152Y-117166666D01*
X114288152Y-117166666D02*
X114383390Y-117214285D01*
X114383390Y-117214285D02*
X114431009Y-117261904D01*
X114431009Y-117261904D02*
X114478628Y-117357142D01*
X114478628Y-117357142D02*
X114478628Y-117738094D01*
X114288152Y-116309523D02*
X114954819Y-116309523D01*
X113907200Y-116547618D02*
X114621485Y-116785713D01*
X114621485Y-116785713D02*
X114621485Y-116166666D01*
X100833333Y-82759580D02*
X100785714Y-82807200D01*
X100785714Y-82807200D02*
X100642857Y-82854819D01*
X100642857Y-82854819D02*
X100547619Y-82854819D01*
X100547619Y-82854819D02*
X100404762Y-82807200D01*
X100404762Y-82807200D02*
X100309524Y-82711961D01*
X100309524Y-82711961D02*
X100261905Y-82616723D01*
X100261905Y-82616723D02*
X100214286Y-82426247D01*
X100214286Y-82426247D02*
X100214286Y-82283390D01*
X100214286Y-82283390D02*
X100261905Y-82092914D01*
X100261905Y-82092914D02*
X100309524Y-81997676D01*
X100309524Y-81997676D02*
X100404762Y-81902438D01*
X100404762Y-81902438D02*
X100547619Y-81854819D01*
X100547619Y-81854819D02*
X100642857Y-81854819D01*
X100642857Y-81854819D02*
X100785714Y-81902438D01*
X100785714Y-81902438D02*
X100833333Y-81950057D01*
X101690476Y-81854819D02*
X101500000Y-81854819D01*
X101500000Y-81854819D02*
X101404762Y-81902438D01*
X101404762Y-81902438D02*
X101357143Y-81950057D01*
X101357143Y-81950057D02*
X101261905Y-82092914D01*
X101261905Y-82092914D02*
X101214286Y-82283390D01*
X101214286Y-82283390D02*
X101214286Y-82664342D01*
X101214286Y-82664342D02*
X101261905Y-82759580D01*
X101261905Y-82759580D02*
X101309524Y-82807200D01*
X101309524Y-82807200D02*
X101404762Y-82854819D01*
X101404762Y-82854819D02*
X101595238Y-82854819D01*
X101595238Y-82854819D02*
X101690476Y-82807200D01*
X101690476Y-82807200D02*
X101738095Y-82759580D01*
X101738095Y-82759580D02*
X101785714Y-82664342D01*
X101785714Y-82664342D02*
X101785714Y-82426247D01*
X101785714Y-82426247D02*
X101738095Y-82331009D01*
X101738095Y-82331009D02*
X101690476Y-82283390D01*
X101690476Y-82283390D02*
X101595238Y-82235771D01*
X101595238Y-82235771D02*
X101404762Y-82235771D01*
X101404762Y-82235771D02*
X101309524Y-82283390D01*
X101309524Y-82283390D02*
X101261905Y-82331009D01*
X101261905Y-82331009D02*
X101214286Y-82426247D01*
X136404761Y-89550057D02*
X136309523Y-89502438D01*
X136309523Y-89502438D02*
X136214285Y-89407200D01*
X136214285Y-89407200D02*
X136071428Y-89264342D01*
X136071428Y-89264342D02*
X135976190Y-89216723D01*
X135976190Y-89216723D02*
X135880952Y-89216723D01*
X135928571Y-89454819D02*
X135833333Y-89407200D01*
X135833333Y-89407200D02*
X135738095Y-89311961D01*
X135738095Y-89311961D02*
X135690476Y-89121485D01*
X135690476Y-89121485D02*
X135690476Y-88788152D01*
X135690476Y-88788152D02*
X135738095Y-88597676D01*
X135738095Y-88597676D02*
X135833333Y-88502438D01*
X135833333Y-88502438D02*
X135928571Y-88454819D01*
X135928571Y-88454819D02*
X136119047Y-88454819D01*
X136119047Y-88454819D02*
X136214285Y-88502438D01*
X136214285Y-88502438D02*
X136309523Y-88597676D01*
X136309523Y-88597676D02*
X136357142Y-88788152D01*
X136357142Y-88788152D02*
X136357142Y-89121485D01*
X136357142Y-89121485D02*
X136309523Y-89311961D01*
X136309523Y-89311961D02*
X136214285Y-89407200D01*
X136214285Y-89407200D02*
X136119047Y-89454819D01*
X136119047Y-89454819D02*
X135928571Y-89454819D01*
X137309523Y-89454819D02*
X136738095Y-89454819D01*
X137023809Y-89454819D02*
X137023809Y-88454819D01*
X137023809Y-88454819D02*
X136928571Y-88597676D01*
X136928571Y-88597676D02*
X136833333Y-88692914D01*
X136833333Y-88692914D02*
X136738095Y-88740533D01*
X169954819Y-104309523D02*
X170669104Y-104309523D01*
X170669104Y-104309523D02*
X170811961Y-104357142D01*
X170811961Y-104357142D02*
X170907200Y-104452380D01*
X170907200Y-104452380D02*
X170954819Y-104595237D01*
X170954819Y-104595237D02*
X170954819Y-104690475D01*
X170050057Y-103880951D02*
X170002438Y-103833332D01*
X170002438Y-103833332D02*
X169954819Y-103738094D01*
X169954819Y-103738094D02*
X169954819Y-103499999D01*
X169954819Y-103499999D02*
X170002438Y-103404761D01*
X170002438Y-103404761D02*
X170050057Y-103357142D01*
X170050057Y-103357142D02*
X170145295Y-103309523D01*
X170145295Y-103309523D02*
X170240533Y-103309523D01*
X170240533Y-103309523D02*
X170383390Y-103357142D01*
X170383390Y-103357142D02*
X170954819Y-103928570D01*
X170954819Y-103928570D02*
X170954819Y-103309523D01*
X169954819Y-102976189D02*
X169954819Y-102357142D01*
X169954819Y-102357142D02*
X170335771Y-102690475D01*
X170335771Y-102690475D02*
X170335771Y-102547618D01*
X170335771Y-102547618D02*
X170383390Y-102452380D01*
X170383390Y-102452380D02*
X170431009Y-102404761D01*
X170431009Y-102404761D02*
X170526247Y-102357142D01*
X170526247Y-102357142D02*
X170764342Y-102357142D01*
X170764342Y-102357142D02*
X170859580Y-102404761D01*
X170859580Y-102404761D02*
X170907200Y-102452380D01*
X170907200Y-102452380D02*
X170954819Y-102547618D01*
X170954819Y-102547618D02*
X170954819Y-102833332D01*
X170954819Y-102833332D02*
X170907200Y-102928570D01*
X170907200Y-102928570D02*
X170859580Y-102976189D01*
X126859580Y-96416666D02*
X126907200Y-96464285D01*
X126907200Y-96464285D02*
X126954819Y-96607142D01*
X126954819Y-96607142D02*
X126954819Y-96702380D01*
X126954819Y-96702380D02*
X126907200Y-96845237D01*
X126907200Y-96845237D02*
X126811961Y-96940475D01*
X126811961Y-96940475D02*
X126716723Y-96988094D01*
X126716723Y-96988094D02*
X126526247Y-97035713D01*
X126526247Y-97035713D02*
X126383390Y-97035713D01*
X126383390Y-97035713D02*
X126192914Y-96988094D01*
X126192914Y-96988094D02*
X126097676Y-96940475D01*
X126097676Y-96940475D02*
X126002438Y-96845237D01*
X126002438Y-96845237D02*
X125954819Y-96702380D01*
X125954819Y-96702380D02*
X125954819Y-96607142D01*
X125954819Y-96607142D02*
X126002438Y-96464285D01*
X126002438Y-96464285D02*
X126050057Y-96416666D01*
X126050057Y-96035713D02*
X126002438Y-95988094D01*
X126002438Y-95988094D02*
X125954819Y-95892856D01*
X125954819Y-95892856D02*
X125954819Y-95654761D01*
X125954819Y-95654761D02*
X126002438Y-95559523D01*
X126002438Y-95559523D02*
X126050057Y-95511904D01*
X126050057Y-95511904D02*
X126145295Y-95464285D01*
X126145295Y-95464285D02*
X126240533Y-95464285D01*
X126240533Y-95464285D02*
X126383390Y-95511904D01*
X126383390Y-95511904D02*
X126954819Y-96083332D01*
X126954819Y-96083332D02*
X126954819Y-95464285D01*
X123833333Y-124859580D02*
X123785714Y-124907200D01*
X123785714Y-124907200D02*
X123642857Y-124954819D01*
X123642857Y-124954819D02*
X123547619Y-124954819D01*
X123547619Y-124954819D02*
X123404762Y-124907200D01*
X123404762Y-124907200D02*
X123309524Y-124811961D01*
X123309524Y-124811961D02*
X123261905Y-124716723D01*
X123261905Y-124716723D02*
X123214286Y-124526247D01*
X123214286Y-124526247D02*
X123214286Y-124383390D01*
X123214286Y-124383390D02*
X123261905Y-124192914D01*
X123261905Y-124192914D02*
X123309524Y-124097676D01*
X123309524Y-124097676D02*
X123404762Y-124002438D01*
X123404762Y-124002438D02*
X123547619Y-123954819D01*
X123547619Y-123954819D02*
X123642857Y-123954819D01*
X123642857Y-123954819D02*
X123785714Y-124002438D01*
X123785714Y-124002438D02*
X123833333Y-124050057D01*
X124166667Y-123954819D02*
X124833333Y-123954819D01*
X124833333Y-123954819D02*
X124404762Y-124954819D01*
X106704819Y-86738094D02*
X105704819Y-86738094D01*
X105704819Y-86738094D02*
X105704819Y-86499999D01*
X105704819Y-86499999D02*
X105752438Y-86357142D01*
X105752438Y-86357142D02*
X105847676Y-86261904D01*
X105847676Y-86261904D02*
X105942914Y-86214285D01*
X105942914Y-86214285D02*
X106133390Y-86166666D01*
X106133390Y-86166666D02*
X106276247Y-86166666D01*
X106276247Y-86166666D02*
X106466723Y-86214285D01*
X106466723Y-86214285D02*
X106561961Y-86261904D01*
X106561961Y-86261904D02*
X106657200Y-86357142D01*
X106657200Y-86357142D02*
X106704819Y-86499999D01*
X106704819Y-86499999D02*
X106704819Y-86738094D01*
X106704819Y-85214285D02*
X106704819Y-85785713D01*
X106704819Y-85499999D02*
X105704819Y-85499999D01*
X105704819Y-85499999D02*
X105847676Y-85595237D01*
X105847676Y-85595237D02*
X105942914Y-85690475D01*
X105942914Y-85690475D02*
X105990533Y-85785713D01*
X103157142Y-82759580D02*
X103109523Y-82807200D01*
X103109523Y-82807200D02*
X102966666Y-82854819D01*
X102966666Y-82854819D02*
X102871428Y-82854819D01*
X102871428Y-82854819D02*
X102728571Y-82807200D01*
X102728571Y-82807200D02*
X102633333Y-82711961D01*
X102633333Y-82711961D02*
X102585714Y-82616723D01*
X102585714Y-82616723D02*
X102538095Y-82426247D01*
X102538095Y-82426247D02*
X102538095Y-82283390D01*
X102538095Y-82283390D02*
X102585714Y-82092914D01*
X102585714Y-82092914D02*
X102633333Y-81997676D01*
X102633333Y-81997676D02*
X102728571Y-81902438D01*
X102728571Y-81902438D02*
X102871428Y-81854819D01*
X102871428Y-81854819D02*
X102966666Y-81854819D01*
X102966666Y-81854819D02*
X103109523Y-81902438D01*
X103109523Y-81902438D02*
X103157142Y-81950057D01*
X103538095Y-81950057D02*
X103585714Y-81902438D01*
X103585714Y-81902438D02*
X103680952Y-81854819D01*
X103680952Y-81854819D02*
X103919047Y-81854819D01*
X103919047Y-81854819D02*
X104014285Y-81902438D01*
X104014285Y-81902438D02*
X104061904Y-81950057D01*
X104061904Y-81950057D02*
X104109523Y-82045295D01*
X104109523Y-82045295D02*
X104109523Y-82140533D01*
X104109523Y-82140533D02*
X104061904Y-82283390D01*
X104061904Y-82283390D02*
X103490476Y-82854819D01*
X103490476Y-82854819D02*
X104109523Y-82854819D01*
X104442857Y-81854819D02*
X105109523Y-81854819D01*
X105109523Y-81854819D02*
X104680952Y-82854819D01*
X152333333Y-109359580D02*
X152285714Y-109407200D01*
X152285714Y-109407200D02*
X152142857Y-109454819D01*
X152142857Y-109454819D02*
X152047619Y-109454819D01*
X152047619Y-109454819D02*
X151904762Y-109407200D01*
X151904762Y-109407200D02*
X151809524Y-109311961D01*
X151809524Y-109311961D02*
X151761905Y-109216723D01*
X151761905Y-109216723D02*
X151714286Y-109026247D01*
X151714286Y-109026247D02*
X151714286Y-108883390D01*
X151714286Y-108883390D02*
X151761905Y-108692914D01*
X151761905Y-108692914D02*
X151809524Y-108597676D01*
X151809524Y-108597676D02*
X151904762Y-108502438D01*
X151904762Y-108502438D02*
X152047619Y-108454819D01*
X152047619Y-108454819D02*
X152142857Y-108454819D01*
X152142857Y-108454819D02*
X152285714Y-108502438D01*
X152285714Y-108502438D02*
X152333333Y-108550057D01*
X153285714Y-109454819D02*
X152714286Y-109454819D01*
X153000000Y-109454819D02*
X153000000Y-108454819D01*
X153000000Y-108454819D02*
X152904762Y-108597676D01*
X152904762Y-108597676D02*
X152809524Y-108692914D01*
X152809524Y-108692914D02*
X152714286Y-108740533D01*
X113624819Y-117166666D02*
X113148628Y-117499999D01*
X113624819Y-117738094D02*
X112624819Y-117738094D01*
X112624819Y-117738094D02*
X112624819Y-117357142D01*
X112624819Y-117357142D02*
X112672438Y-117261904D01*
X112672438Y-117261904D02*
X112720057Y-117214285D01*
X112720057Y-117214285D02*
X112815295Y-117166666D01*
X112815295Y-117166666D02*
X112958152Y-117166666D01*
X112958152Y-117166666D02*
X113053390Y-117214285D01*
X113053390Y-117214285D02*
X113101009Y-117261904D01*
X113101009Y-117261904D02*
X113148628Y-117357142D01*
X113148628Y-117357142D02*
X113148628Y-117738094D01*
X112624819Y-116261904D02*
X112624819Y-116738094D01*
X112624819Y-116738094D02*
X113101009Y-116785713D01*
X113101009Y-116785713D02*
X113053390Y-116738094D01*
X113053390Y-116738094D02*
X113005771Y-116642856D01*
X113005771Y-116642856D02*
X113005771Y-116404761D01*
X113005771Y-116404761D02*
X113053390Y-116309523D01*
X113053390Y-116309523D02*
X113101009Y-116261904D01*
X113101009Y-116261904D02*
X113196247Y-116214285D01*
X113196247Y-116214285D02*
X113434342Y-116214285D01*
X113434342Y-116214285D02*
X113529580Y-116261904D01*
X113529580Y-116261904D02*
X113577200Y-116309523D01*
X113577200Y-116309523D02*
X113624819Y-116404761D01*
X113624819Y-116404761D02*
X113624819Y-116642856D01*
X113624819Y-116642856D02*
X113577200Y-116738094D01*
X113577200Y-116738094D02*
X113529580Y-116785713D01*
X142857142Y-84954819D02*
X142523809Y-84478628D01*
X142285714Y-84954819D02*
X142285714Y-83954819D01*
X142285714Y-83954819D02*
X142666666Y-83954819D01*
X142666666Y-83954819D02*
X142761904Y-84002438D01*
X142761904Y-84002438D02*
X142809523Y-84050057D01*
X142809523Y-84050057D02*
X142857142Y-84145295D01*
X142857142Y-84145295D02*
X142857142Y-84288152D01*
X142857142Y-84288152D02*
X142809523Y-84383390D01*
X142809523Y-84383390D02*
X142761904Y-84431009D01*
X142761904Y-84431009D02*
X142666666Y-84478628D01*
X142666666Y-84478628D02*
X142285714Y-84478628D01*
X143809523Y-84954819D02*
X143238095Y-84954819D01*
X143523809Y-84954819D02*
X143523809Y-83954819D01*
X143523809Y-83954819D02*
X143428571Y-84097676D01*
X143428571Y-84097676D02*
X143333333Y-84192914D01*
X143333333Y-84192914D02*
X143238095Y-84240533D01*
X144761904Y-84954819D02*
X144190476Y-84954819D01*
X144476190Y-84954819D02*
X144476190Y-83954819D01*
X144476190Y-83954819D02*
X144380952Y-84097676D01*
X144380952Y-84097676D02*
X144285714Y-84192914D01*
X144285714Y-84192914D02*
X144190476Y-84240533D01*
X112454819Y-89916666D02*
X111978628Y-90249999D01*
X112454819Y-90488094D02*
X111454819Y-90488094D01*
X111454819Y-90488094D02*
X111454819Y-90107142D01*
X111454819Y-90107142D02*
X111502438Y-90011904D01*
X111502438Y-90011904D02*
X111550057Y-89964285D01*
X111550057Y-89964285D02*
X111645295Y-89916666D01*
X111645295Y-89916666D02*
X111788152Y-89916666D01*
X111788152Y-89916666D02*
X111883390Y-89964285D01*
X111883390Y-89964285D02*
X111931009Y-90011904D01*
X111931009Y-90011904D02*
X111978628Y-90107142D01*
X111978628Y-90107142D02*
X111978628Y-90488094D01*
X111454819Y-89583332D02*
X111454819Y-88964285D01*
X111454819Y-88964285D02*
X111835771Y-89297618D01*
X111835771Y-89297618D02*
X111835771Y-89154761D01*
X111835771Y-89154761D02*
X111883390Y-89059523D01*
X111883390Y-89059523D02*
X111931009Y-89011904D01*
X111931009Y-89011904D02*
X112026247Y-88964285D01*
X112026247Y-88964285D02*
X112264342Y-88964285D01*
X112264342Y-88964285D02*
X112359580Y-89011904D01*
X112359580Y-89011904D02*
X112407200Y-89059523D01*
X112407200Y-89059523D02*
X112454819Y-89154761D01*
X112454819Y-89154761D02*
X112454819Y-89440475D01*
X112454819Y-89440475D02*
X112407200Y-89535713D01*
X112407200Y-89535713D02*
X112359580Y-89583332D01*
X128857142Y-85124819D02*
X128523809Y-84648628D01*
X128285714Y-85124819D02*
X128285714Y-84124819D01*
X128285714Y-84124819D02*
X128666666Y-84124819D01*
X128666666Y-84124819D02*
X128761904Y-84172438D01*
X128761904Y-84172438D02*
X128809523Y-84220057D01*
X128809523Y-84220057D02*
X128857142Y-84315295D01*
X128857142Y-84315295D02*
X128857142Y-84458152D01*
X128857142Y-84458152D02*
X128809523Y-84553390D01*
X128809523Y-84553390D02*
X128761904Y-84601009D01*
X128761904Y-84601009D02*
X128666666Y-84648628D01*
X128666666Y-84648628D02*
X128285714Y-84648628D01*
X129809523Y-85124819D02*
X129238095Y-85124819D01*
X129523809Y-85124819D02*
X129523809Y-84124819D01*
X129523809Y-84124819D02*
X129428571Y-84267676D01*
X129428571Y-84267676D02*
X129333333Y-84362914D01*
X129333333Y-84362914D02*
X129238095Y-84410533D01*
X130428571Y-84124819D02*
X130523809Y-84124819D01*
X130523809Y-84124819D02*
X130619047Y-84172438D01*
X130619047Y-84172438D02*
X130666666Y-84220057D01*
X130666666Y-84220057D02*
X130714285Y-84315295D01*
X130714285Y-84315295D02*
X130761904Y-84505771D01*
X130761904Y-84505771D02*
X130761904Y-84743866D01*
X130761904Y-84743866D02*
X130714285Y-84934342D01*
X130714285Y-84934342D02*
X130666666Y-85029580D01*
X130666666Y-85029580D02*
X130619047Y-85077200D01*
X130619047Y-85077200D02*
X130523809Y-85124819D01*
X130523809Y-85124819D02*
X130428571Y-85124819D01*
X130428571Y-85124819D02*
X130333333Y-85077200D01*
X130333333Y-85077200D02*
X130285714Y-85029580D01*
X130285714Y-85029580D02*
X130238095Y-84934342D01*
X130238095Y-84934342D02*
X130190476Y-84743866D01*
X130190476Y-84743866D02*
X130190476Y-84505771D01*
X130190476Y-84505771D02*
X130238095Y-84315295D01*
X130238095Y-84315295D02*
X130285714Y-84220057D01*
X130285714Y-84220057D02*
X130333333Y-84172438D01*
X130333333Y-84172438D02*
X130428571Y-84124819D01*
X142857142Y-89954819D02*
X142523809Y-89478628D01*
X142285714Y-89954819D02*
X142285714Y-88954819D01*
X142285714Y-88954819D02*
X142666666Y-88954819D01*
X142666666Y-88954819D02*
X142761904Y-89002438D01*
X142761904Y-89002438D02*
X142809523Y-89050057D01*
X142809523Y-89050057D02*
X142857142Y-89145295D01*
X142857142Y-89145295D02*
X142857142Y-89288152D01*
X142857142Y-89288152D02*
X142809523Y-89383390D01*
X142809523Y-89383390D02*
X142761904Y-89431009D01*
X142761904Y-89431009D02*
X142666666Y-89478628D01*
X142666666Y-89478628D02*
X142285714Y-89478628D01*
X143809523Y-89954819D02*
X143238095Y-89954819D01*
X143523809Y-89954819D02*
X143523809Y-88954819D01*
X143523809Y-88954819D02*
X143428571Y-89097676D01*
X143428571Y-89097676D02*
X143333333Y-89192914D01*
X143333333Y-89192914D02*
X143238095Y-89240533D01*
X144190476Y-89050057D02*
X144238095Y-89002438D01*
X144238095Y-89002438D02*
X144333333Y-88954819D01*
X144333333Y-88954819D02*
X144571428Y-88954819D01*
X144571428Y-88954819D02*
X144666666Y-89002438D01*
X144666666Y-89002438D02*
X144714285Y-89050057D01*
X144714285Y-89050057D02*
X144761904Y-89145295D01*
X144761904Y-89145295D02*
X144761904Y-89240533D01*
X144761904Y-89240533D02*
X144714285Y-89383390D01*
X144714285Y-89383390D02*
X144142857Y-89954819D01*
X144142857Y-89954819D02*
X144761904Y-89954819D01*
X105454819Y-104559523D02*
X106169104Y-104559523D01*
X106169104Y-104559523D02*
X106311961Y-104607142D01*
X106311961Y-104607142D02*
X106407200Y-104702380D01*
X106407200Y-104702380D02*
X106454819Y-104845237D01*
X106454819Y-104845237D02*
X106454819Y-104940475D01*
X105550057Y-104130951D02*
X105502438Y-104083332D01*
X105502438Y-104083332D02*
X105454819Y-103988094D01*
X105454819Y-103988094D02*
X105454819Y-103749999D01*
X105454819Y-103749999D02*
X105502438Y-103654761D01*
X105502438Y-103654761D02*
X105550057Y-103607142D01*
X105550057Y-103607142D02*
X105645295Y-103559523D01*
X105645295Y-103559523D02*
X105740533Y-103559523D01*
X105740533Y-103559523D02*
X105883390Y-103607142D01*
X105883390Y-103607142D02*
X106454819Y-104178570D01*
X106454819Y-104178570D02*
X106454819Y-103559523D01*
X105550057Y-103178570D02*
X105502438Y-103130951D01*
X105502438Y-103130951D02*
X105454819Y-103035713D01*
X105454819Y-103035713D02*
X105454819Y-102797618D01*
X105454819Y-102797618D02*
X105502438Y-102702380D01*
X105502438Y-102702380D02*
X105550057Y-102654761D01*
X105550057Y-102654761D02*
X105645295Y-102607142D01*
X105645295Y-102607142D02*
X105740533Y-102607142D01*
X105740533Y-102607142D02*
X105883390Y-102654761D01*
X105883390Y-102654761D02*
X106454819Y-103226189D01*
X106454819Y-103226189D02*
X106454819Y-102607142D01*
X136404761Y-84550057D02*
X136309523Y-84502438D01*
X136309523Y-84502438D02*
X136214285Y-84407200D01*
X136214285Y-84407200D02*
X136071428Y-84264342D01*
X136071428Y-84264342D02*
X135976190Y-84216723D01*
X135976190Y-84216723D02*
X135880952Y-84216723D01*
X135928571Y-84454819D02*
X135833333Y-84407200D01*
X135833333Y-84407200D02*
X135738095Y-84311961D01*
X135738095Y-84311961D02*
X135690476Y-84121485D01*
X135690476Y-84121485D02*
X135690476Y-83788152D01*
X135690476Y-83788152D02*
X135738095Y-83597676D01*
X135738095Y-83597676D02*
X135833333Y-83502438D01*
X135833333Y-83502438D02*
X135928571Y-83454819D01*
X135928571Y-83454819D02*
X136119047Y-83454819D01*
X136119047Y-83454819D02*
X136214285Y-83502438D01*
X136214285Y-83502438D02*
X136309523Y-83597676D01*
X136309523Y-83597676D02*
X136357142Y-83788152D01*
X136357142Y-83788152D02*
X136357142Y-84121485D01*
X136357142Y-84121485D02*
X136309523Y-84311961D01*
X136309523Y-84311961D02*
X136214285Y-84407200D01*
X136214285Y-84407200D02*
X136119047Y-84454819D01*
X136119047Y-84454819D02*
X135928571Y-84454819D01*
X136738095Y-83550057D02*
X136785714Y-83502438D01*
X136785714Y-83502438D02*
X136880952Y-83454819D01*
X136880952Y-83454819D02*
X137119047Y-83454819D01*
X137119047Y-83454819D02*
X137214285Y-83502438D01*
X137214285Y-83502438D02*
X137261904Y-83550057D01*
X137261904Y-83550057D02*
X137309523Y-83645295D01*
X137309523Y-83645295D02*
X137309523Y-83740533D01*
X137309523Y-83740533D02*
X137261904Y-83883390D01*
X137261904Y-83883390D02*
X136690476Y-84454819D01*
X136690476Y-84454819D02*
X137309523Y-84454819D01*
D10*
%TO.C,*%
X175068216Y-126061320D02*
X175951785Y-126078681D01*
X175168216Y-126020000D02*
X175168216Y-126120000D01*
X175518216Y-126020000D02*
X175518216Y-126570000D01*
X175868216Y-126020000D02*
X175868216Y-126120000D01*
D13*
X176267405Y-127415189D02*
G75*
G02*
X176032595Y-127415189I-117405J0D01*
G01*
X176032595Y-127415189D02*
G75*
G02*
X176267405Y-127415189I117405J0D01*
G01*
D10*
X176334811Y-127415189D02*
X175965189Y-127415189D01*
X176150000Y-127000000D01*
X176334811Y-127415189D01*
G36*
X176334811Y-127415189D02*
G01*
X175965189Y-127415189D01*
X176150000Y-127000000D01*
X176334811Y-127415189D01*
G37*
D14*
G36*
X177375230Y-125233203D02*
G01*
X177183446Y-125373918D01*
X177023538Y-125444923D01*
X176828153Y-125500335D01*
X176984461Y-125344027D01*
X177176245Y-125203312D01*
X177336153Y-125132307D01*
X177531538Y-125076895D01*
X177375230Y-125233203D01*
G37*
G36*
X176217924Y-125412892D02*
G01*
X176419326Y-125503264D01*
X176558076Y-125605431D01*
X176559647Y-125607294D01*
X176606496Y-125700957D01*
X176551355Y-125724227D01*
X176427751Y-125684609D01*
X176269208Y-125589605D01*
X176187742Y-125524059D01*
X175968461Y-125329657D01*
X176217924Y-125412892D01*
G37*
G36*
X176878997Y-124337882D02*
G01*
X176903691Y-124543176D01*
X176891300Y-124717649D01*
X176852144Y-124828351D01*
X176796539Y-124842328D01*
X176746668Y-124760488D01*
X176726575Y-124595208D01*
X176746074Y-124367984D01*
X176753018Y-124330642D01*
X176812289Y-124038153D01*
X176878997Y-124337882D01*
G37*
G36*
X177463676Y-124745586D02*
G01*
X177453040Y-124781171D01*
X177358028Y-124870745D01*
X177208676Y-124960369D01*
X177057994Y-125024947D01*
X176958989Y-125039384D01*
X176945384Y-125021515D01*
X177007483Y-124919489D01*
X177151790Y-124804051D01*
X177315320Y-124719677D01*
X177397232Y-124702461D01*
X177463676Y-124745586D01*
G37*
G36*
X177517297Y-125818946D02*
G01*
X177516642Y-125873269D01*
X177406170Y-125972518D01*
X177336153Y-126018785D01*
X177112535Y-126145020D01*
X176990197Y-126181142D01*
X176946632Y-126132477D01*
X176945384Y-126111237D01*
X177010239Y-126023746D01*
X177163899Y-125924216D01*
X177345005Y-125844005D01*
X177492202Y-125814472D01*
X177517297Y-125818946D01*
G37*
G36*
X176159806Y-124896417D02*
G01*
X176346172Y-124987815D01*
X176545807Y-125100648D01*
X176700309Y-125202599D01*
X176749309Y-125248421D01*
X176752552Y-125317798D01*
X176651198Y-125315913D01*
X176476763Y-125248343D01*
X176348219Y-125177427D01*
X176167903Y-125051425D01*
X176048784Y-124938805D01*
X176018607Y-124868734D01*
X176045116Y-124858769D01*
X176159806Y-124896417D01*
G37*
G36*
X176300615Y-124638606D02*
G01*
X176380090Y-124689735D01*
X176510087Y-124798113D01*
X176649565Y-124925895D01*
X176757483Y-125035236D01*
X176792799Y-125088290D01*
X176789076Y-125089036D01*
X176705986Y-125045817D01*
X176549512Y-124943179D01*
X176507181Y-124913552D01*
X176339118Y-124778632D01*
X176252257Y-124677268D01*
X176265295Y-124634347D01*
X176300615Y-124638606D01*
G37*
G36*
X178169469Y-125126014D02*
G01*
X178213417Y-125157694D01*
X178256892Y-125275480D01*
X178161530Y-125383170D01*
X177944787Y-125468400D01*
X177716444Y-125509749D01*
X177441054Y-125562890D01*
X177200732Y-125643358D01*
X177121261Y-125684979D01*
X177004298Y-125746596D01*
X176980372Y-125725667D01*
X176984379Y-125718593D01*
X177113141Y-125610997D01*
X177332899Y-125506104D01*
X177580032Y-125429534D01*
X177761036Y-125405846D01*
X177901360Y-125379177D01*
X177911834Y-125289505D01*
X177911745Y-125289274D01*
X177918497Y-125244926D01*
X178039538Y-125244926D01*
X178096270Y-125324511D01*
X178117692Y-125327692D01*
X178193813Y-125301027D01*
X178195845Y-125293227D01*
X178141080Y-125226502D01*
X178117692Y-125210461D01*
X178045674Y-125216658D01*
X178039538Y-125244926D01*
X177918497Y-125244926D01*
X177929003Y-125175929D01*
X178036460Y-125112110D01*
X178169469Y-125126014D01*
G37*
G36*
X175627827Y-125458101D02*
G01*
X175658015Y-125626297D01*
X175654875Y-125645347D01*
X175656796Y-125737746D01*
X175733276Y-125783230D01*
X175920294Y-125798184D01*
X175992487Y-125799101D01*
X176247816Y-125824580D01*
X176457392Y-125885749D01*
X176510937Y-125916331D01*
X176593962Y-126001005D01*
X176574165Y-126031077D01*
X176453290Y-125973561D01*
X176437384Y-125952923D01*
X176338908Y-125910928D01*
X176133569Y-125882558D01*
X175929203Y-125874769D01*
X175655065Y-125865197D01*
X175488576Y-125826833D01*
X175381734Y-125745200D01*
X175346181Y-125698957D01*
X175267014Y-125563610D01*
X175267407Y-125562153D01*
X175382307Y-125562153D01*
X175441780Y-125638036D01*
X175460461Y-125640307D01*
X175536344Y-125580834D01*
X175538615Y-125562153D01*
X175479142Y-125486271D01*
X175460461Y-125484000D01*
X175384578Y-125543473D01*
X175382307Y-125562153D01*
X175267407Y-125562153D01*
X175289277Y-125481092D01*
X175354875Y-125426743D01*
X175511800Y-125380667D01*
X175627827Y-125458101D01*
G37*
G36*
X176940000Y-126320000D02*
G01*
X176940000Y-126437650D01*
X176941594Y-126644184D01*
X176945241Y-126970717D01*
X176945384Y-127110293D01*
X176956119Y-127586144D01*
X176988159Y-127912169D01*
X177041250Y-128085888D01*
X177044695Y-128090863D01*
X177171409Y-128178888D01*
X177404788Y-128272666D01*
X177670512Y-128346776D01*
X177924724Y-128414993D01*
X178098240Y-128481490D01*
X178155961Y-128532604D01*
X178154729Y-128535299D01*
X178190382Y-128609302D01*
X178329896Y-128715115D01*
X178408143Y-128759793D01*
X178574590Y-128854353D01*
X178651247Y-128911755D01*
X178647568Y-128919315D01*
X178553662Y-128888215D01*
X178363817Y-128803615D01*
X178139568Y-128694022D01*
X177861582Y-128563949D01*
X177602932Y-128460697D01*
X177453384Y-128415159D01*
X177299025Y-128386742D01*
X177280163Y-128408563D01*
X177370629Y-128487598D01*
X177510187Y-128581830D01*
X177585552Y-128610153D01*
X177640125Y-128674413D01*
X177648769Y-128739497D01*
X177636432Y-128825336D01*
X177572849Y-128798166D01*
X177511856Y-128744937D01*
X177333491Y-128622823D01*
X177159055Y-128538952D01*
X177009645Y-128491887D01*
X176967536Y-128533716D01*
X176990581Y-128670281D01*
X177015032Y-128797132D01*
X176995905Y-128806973D01*
X176916553Y-128693158D01*
X176871355Y-128622699D01*
X176751694Y-128460028D01*
X176662813Y-128417900D01*
X176591448Y-128455708D01*
X176523344Y-128542540D01*
X176540793Y-128651156D01*
X176654154Y-128821201D01*
X176703271Y-128883692D01*
X176784574Y-128988515D01*
X176767259Y-128986856D01*
X176657232Y-128895574D01*
X176508197Y-128806979D01*
X176404127Y-128801941D01*
X176354311Y-128795149D01*
X176368487Y-128731443D01*
X176386662Y-128632777D01*
X176321214Y-128628015D01*
X176158575Y-128720406D01*
X176021862Y-128814462D01*
X175733999Y-129018770D01*
X176027076Y-128767804D01*
X176197071Y-128609423D01*
X176302831Y-128486226D01*
X176320153Y-128448200D01*
X176266661Y-128410847D01*
X176133665Y-128451796D01*
X175962388Y-128550060D01*
X175794050Y-128684656D01*
X175734843Y-128746166D01*
X175612508Y-128882072D01*
X175569560Y-128904233D01*
X175583132Y-128817130D01*
X175593947Y-128773768D01*
X175613222Y-128650335D01*
X175558291Y-128611233D01*
X175391370Y-128632619D01*
X175375082Y-128635659D01*
X175210292Y-128659672D01*
X175176332Y-128648155D01*
X175253877Y-128608984D01*
X175423599Y-128550037D01*
X175666168Y-128479189D01*
X175915508Y-128415420D01*
X176192463Y-128342700D01*
X176387057Y-128261730D01*
X176513808Y-128145503D01*
X176587233Y-127967008D01*
X176621850Y-127699240D01*
X176632177Y-127315189D01*
X176632769Y-127081066D01*
X176634751Y-126716316D01*
X176630000Y-126480141D01*
X176630000Y-126344823D01*
X176630000Y-126280000D01*
X176690000Y-126280000D01*
X176860000Y-126280000D01*
X176940000Y-126280000D01*
X176940000Y-126320000D01*
G37*
D15*
%TO.C,C5*%
X150688748Y-82890000D02*
X152111252Y-82890000D01*
X150688748Y-84710000D02*
X152111252Y-84710000D01*
%TO.C,D2*%
X158492000Y-86119000D02*
X159508000Y-86119000D01*
X158873000Y-87135000D02*
X158492000Y-86754000D01*
D11*
X159254000Y-86373000D02*
X159254000Y-85865000D01*
D15*
X159508000Y-87135000D02*
X159127000Y-86754000D01*
X160800000Y-85300000D02*
X159800000Y-85300000D01*
X159800000Y-84900000D01*
X160800000Y-84900000D01*
X160800000Y-85300000D01*
G36*
X160800000Y-85300000D02*
G01*
X159800000Y-85300000D01*
X159800000Y-84900000D01*
X160800000Y-84900000D01*
X160800000Y-85300000D01*
G37*
X160800000Y-88100000D02*
X159800000Y-88100000D01*
X159800000Y-87700000D01*
X160800000Y-87700000D01*
X160800000Y-88100000D01*
G36*
X160800000Y-88100000D02*
G01*
X159800000Y-88100000D01*
X159800000Y-87700000D01*
X160800000Y-87700000D01*
X160800000Y-88100000D01*
G37*
X161500000Y-87700000D02*
X156500000Y-87700000D01*
X156500000Y-85300000D01*
X161500000Y-85300000D01*
X161500000Y-87700000D01*
X158873000Y-87135000D02*
X158619000Y-87135000D01*
X158873000Y-86881000D01*
X158873000Y-87135000D01*
G36*
X158873000Y-87135000D02*
G01*
X158619000Y-87135000D01*
X158873000Y-86881000D01*
X158873000Y-87135000D01*
G37*
X159254000Y-86119000D02*
X158746000Y-86373000D01*
X158746000Y-85865000D01*
X159254000Y-86119000D01*
G36*
X159254000Y-86119000D02*
G01*
X158746000Y-86373000D01*
X158746000Y-85865000D01*
X159254000Y-86119000D01*
G37*
X159508000Y-87135000D02*
X159254000Y-87135000D01*
X159508000Y-86881000D01*
X159508000Y-87135000D01*
G36*
X159508000Y-87135000D02*
G01*
X159254000Y-87135000D01*
X159508000Y-86881000D01*
X159508000Y-87135000D01*
G37*
%TO.C,J7*%
X159250000Y-123130000D02*
X159250000Y-121750000D01*
X160630000Y-123130000D02*
X159250000Y-123130000D01*
X161900000Y-120370000D02*
X174710000Y-120370000D01*
X161900000Y-123130000D02*
X161900000Y-120370000D01*
X161900000Y-123130000D02*
X174710000Y-123130000D01*
X174710000Y-123130000D02*
X174710000Y-120370000D01*
D16*
%TO.C,5v_in1*%
X105780000Y-125775000D02*
X105780000Y-127185000D01*
X105780000Y-130980000D02*
X105780000Y-129575000D01*
X114720000Y-125775000D02*
X114720000Y-127185000D01*
X114720000Y-130980000D02*
X114720000Y-129575000D01*
D15*
%TO.C,R9*%
X128772936Y-90590000D02*
X130227064Y-90590000D01*
X128772936Y-92410000D02*
X130227064Y-92410000D01*
D16*
%TO.C,U3*%
X127480000Y-109919000D02*
X145260000Y-109919000D01*
X127480000Y-130874000D02*
X127480000Y-109919000D01*
X145260000Y-109919000D02*
X145260000Y-130874000D01*
X145260000Y-130874000D02*
X127480000Y-130874000D01*
D17*
X145970000Y-128080000D02*
G75*
G02*
X145770000Y-128080000I-100000J0D01*
G01*
X145770000Y-128080000D02*
G75*
G02*
X145970000Y-128080000I100000J0D01*
G01*
D15*
%TO.C,U2*%
X157290000Y-93670000D02*
X157290000Y-114110000D01*
X157290000Y-114110000D02*
X158940000Y-114110000D01*
X160940000Y-114110000D02*
X162590000Y-114110000D01*
X162590000Y-93670000D02*
X157290000Y-93670000D01*
X162590000Y-114110000D02*
X162590000Y-93670000D01*
X165080000Y-114170000D02*
X154800000Y-114170000D01*
X154800000Y-93610000D01*
X165080000Y-93610000D01*
X165080000Y-114170000D01*
X158940000Y-114110000D02*
G75*
G02*
X160940000Y-114110000I1000000J0D01*
G01*
%TO.C,R6*%
X158399936Y-89590000D02*
X159854064Y-89590000D01*
X158399936Y-91410000D02*
X159854064Y-91410000D01*
D16*
%TO.C,J3*%
X168300000Y-89560000D02*
X168300000Y-116060000D01*
X168300000Y-116060000D02*
X180300000Y-116060000D01*
X180300000Y-89560000D02*
X168300000Y-89560000D01*
X180300000Y-116060000D02*
X180300000Y-89560000D01*
D17*
X173100000Y-116807000D02*
G75*
G02*
X172900000Y-116807000I-100000J0D01*
G01*
X172900000Y-116807000D02*
G75*
G02*
X173100000Y-116807000I100000J0D01*
G01*
D15*
%TO.C,U1*%
X114350000Y-93670000D02*
X114350000Y-114110000D01*
X114350000Y-114110000D02*
X119650000Y-114110000D01*
X116000000Y-93670000D02*
X114350000Y-93670000D01*
X119650000Y-93670000D02*
X118000000Y-93670000D01*
X119650000Y-114110000D02*
X119650000Y-93670000D01*
X111860000Y-93610000D02*
X122140000Y-93610000D01*
X122140000Y-114170000D01*
X111860000Y-114170000D01*
X111860000Y-93610000D01*
X118000000Y-93670000D02*
G75*
G02*
X116000000Y-93670000I-1000000J0D01*
G01*
%TO.C,R1*%
X124090000Y-103272936D02*
X124090000Y-104727064D01*
X125910000Y-103272936D02*
X125910000Y-104727064D01*
%TO.C,R4*%
X106590000Y-119522936D02*
X106590000Y-120977064D01*
X108410000Y-119522936D02*
X108410000Y-120977064D01*
%TO.C,C6*%
X100090000Y-86311252D02*
X100090000Y-84888748D01*
X101910000Y-86311252D02*
X101910000Y-84888748D01*
%TO.C,Q1*%
X133515500Y-89785500D02*
X133515500Y-93214500D01*
X133515500Y-93214500D02*
X139484500Y-93214500D01*
X139484500Y-89785500D02*
X133515500Y-89785500D01*
X139484500Y-93214500D02*
X139484500Y-89785500D01*
%TO.C,J23*%
X172540000Y-118020000D02*
X172540000Y-115610000D01*
X172840000Y-89640000D02*
X172840000Y-117720000D01*
X172840000Y-117720000D02*
X175370000Y-117720000D01*
X174950000Y-118020000D02*
X172540000Y-118020000D01*
X175370000Y-89640000D02*
X172840000Y-89640000D01*
X175370000Y-89770000D02*
X175370000Y-89640000D01*
X175370000Y-117590000D02*
X177180000Y-117590000D01*
X175370000Y-117720000D02*
X175370000Y-117590000D01*
X177180000Y-89640000D02*
X177180000Y-89770000D01*
X177180000Y-89770000D02*
X175370000Y-89770000D01*
X177180000Y-117590000D02*
X177180000Y-117720000D01*
X177180000Y-117720000D02*
X178160000Y-117720000D01*
X178160000Y-89640000D02*
X177180000Y-89640000D01*
X178160000Y-99760000D02*
X178160000Y-89640000D01*
X178160000Y-107600000D02*
X179660000Y-107600000D01*
X178160000Y-117720000D02*
X178160000Y-107600000D01*
X179660000Y-99760000D02*
X178160000Y-99760000D01*
X179660000Y-107600000D02*
X179660000Y-99760000D01*
%TO.C,SW1*%
X96380000Y-118880000D02*
X96380000Y-122620000D01*
X96380000Y-118880000D02*
X105120000Y-118880000D01*
X96380000Y-122620000D02*
X105120000Y-122620000D01*
X105120000Y-118880000D02*
X105120000Y-122620000D01*
D10*
X97050000Y-121600000D02*
G75*
G02*
X96450000Y-121600000I-300000J0D01*
G01*
X96450000Y-121600000D02*
G75*
G02*
X97050000Y-121600000I300000J0D01*
G01*
D15*
%TO.C,C2*%
X124015000Y-95973752D02*
X124015000Y-95451248D01*
X125485000Y-95973752D02*
X125485000Y-95451248D01*
%TO.C,C7*%
X123265000Y-126738748D02*
X123265000Y-127261252D01*
X124735000Y-126738748D02*
X124735000Y-127261252D01*
%TO.C,D1*%
X108119000Y-86270500D02*
X108119000Y-85254500D01*
D11*
X108373000Y-85508500D02*
X107865000Y-85508500D01*
D15*
X109135000Y-85254500D02*
X108754000Y-85635500D01*
X109135000Y-85889500D02*
X108754000Y-86270500D01*
X107300000Y-83962500D02*
X106900000Y-83962500D01*
X106900000Y-84962500D01*
X107300000Y-84962500D01*
X107300000Y-83962500D01*
G36*
X107300000Y-83962500D02*
G01*
X106900000Y-83962500D01*
X106900000Y-84962500D01*
X107300000Y-84962500D01*
X107300000Y-83962500D01*
G37*
X109700000Y-83262500D02*
X107300000Y-83262500D01*
X107300000Y-88262500D01*
X109700000Y-88262500D01*
X109700000Y-83262500D01*
X110100000Y-83962500D02*
X109700000Y-83962500D01*
X109700000Y-84962500D01*
X110100000Y-84962500D01*
X110100000Y-83962500D01*
G36*
X110100000Y-83962500D02*
G01*
X109700000Y-83962500D01*
X109700000Y-84962500D01*
X110100000Y-84962500D01*
X110100000Y-83962500D01*
G37*
X108373000Y-86016500D02*
X107865000Y-86016500D01*
X108119000Y-85508500D01*
X108373000Y-86016500D01*
G36*
X108373000Y-86016500D02*
G01*
X107865000Y-86016500D01*
X108119000Y-85508500D01*
X108373000Y-86016500D01*
G37*
X109135000Y-85508500D02*
X108881000Y-85254500D01*
X109135000Y-85254500D01*
X109135000Y-85508500D01*
G36*
X109135000Y-85508500D02*
G01*
X108881000Y-85254500D01*
X109135000Y-85254500D01*
X109135000Y-85508500D01*
G37*
X109135000Y-86143500D02*
X108881000Y-85889500D01*
X109135000Y-85889500D01*
X109135000Y-86143500D01*
G36*
X109135000Y-86143500D02*
G01*
X108881000Y-85889500D01*
X109135000Y-85889500D01*
X109135000Y-86143500D01*
G37*
%TO.C,C27*%
X102690000Y-86311252D02*
X102690000Y-84888748D01*
X104510000Y-86311252D02*
X104510000Y-84888748D01*
%TO.C,C1*%
X151765000Y-111488748D02*
X151765000Y-112011252D01*
X153235000Y-111488748D02*
X153235000Y-112011252D01*
%TO.C,R5*%
X109090000Y-119522936D02*
X109090000Y-120977064D01*
X110910000Y-119522936D02*
X110910000Y-120977064D01*
%TO.C,R11*%
X144227064Y-85590000D02*
X142772936Y-85590000D01*
X144227064Y-87410000D02*
X142772936Y-87410000D01*
D16*
%TO.C,J6*%
X162142500Y-75675000D02*
X162142500Y-83825000D01*
X162142500Y-83825000D02*
X177382500Y-83825000D01*
X177382500Y-75675000D02*
X162142500Y-75675000D01*
X177382500Y-83825000D02*
X177382500Y-75675000D01*
D17*
X161142500Y-79775000D02*
G75*
G02*
X160942500Y-79775000I-100000J0D01*
G01*
X160942500Y-79775000D02*
G75*
G02*
X161142500Y-79775000I100000J0D01*
G01*
D15*
%TO.C,R3*%
X111090000Y-85022936D02*
X111090000Y-86477064D01*
X112910000Y-85022936D02*
X112910000Y-86477064D01*
%TO.C,R10*%
X128772936Y-85590000D02*
X130227064Y-85590000D01*
X128772936Y-87410000D02*
X130227064Y-87410000D01*
%TO.C,J4*%
X136280000Y-96225000D02*
X137660000Y-96225000D01*
X136280000Y-97605000D02*
X136280000Y-96225000D01*
X136280000Y-98875000D02*
X136280000Y-106605000D01*
X136280000Y-98875000D02*
X139040000Y-98875000D01*
X136280000Y-106605000D02*
X139040000Y-106605000D01*
X139040000Y-98875000D02*
X139040000Y-106605000D01*
%TO.C,J5*%
X133740000Y-96235000D02*
X135120000Y-96235000D01*
X133740000Y-97615000D02*
X133740000Y-96235000D01*
X133740000Y-98885000D02*
X133740000Y-106615000D01*
X133740000Y-98885000D02*
X136500000Y-98885000D01*
X133740000Y-106615000D02*
X136500000Y-106615000D01*
X136500000Y-98885000D02*
X136500000Y-106615000D01*
D16*
%TO.C,J2*%
X96700000Y-91000000D02*
X96700000Y-117500000D01*
X96700000Y-117500000D02*
X108700000Y-117500000D01*
X108700000Y-91000000D02*
X96700000Y-91000000D01*
X108700000Y-117500000D02*
X108700000Y-91000000D01*
D17*
X104100000Y-90253000D02*
G75*
G02*
X103900000Y-90253000I-100000J0D01*
G01*
X103900000Y-90253000D02*
G75*
G02*
X104100000Y-90253000I100000J0D01*
G01*
D15*
%TO.C,R12*%
X144227064Y-90590000D02*
X142772936Y-90590000D01*
X144227064Y-92410000D02*
X142772936Y-92410000D01*
%TO.C,J22*%
X97340000Y-99580000D02*
X97340000Y-107420000D01*
X97340000Y-107420000D02*
X98840000Y-107420000D01*
X98840000Y-89460000D02*
X98840000Y-99580000D01*
X98840000Y-99580000D02*
X97340000Y-99580000D01*
X98840000Y-107420000D02*
X98840000Y-117540000D01*
X98840000Y-117540000D02*
X99820000Y-117540000D01*
X99820000Y-89460000D02*
X98840000Y-89460000D01*
X99820000Y-89590000D02*
X99820000Y-89460000D01*
X99820000Y-117410000D02*
X101630000Y-117410000D01*
X99820000Y-117540000D02*
X99820000Y-117410000D01*
X101630000Y-89460000D02*
X101630000Y-89590000D01*
X101630000Y-89590000D02*
X99820000Y-89590000D01*
X101630000Y-117410000D02*
X101630000Y-117540000D01*
X101630000Y-117540000D02*
X104160000Y-117540000D01*
X102050000Y-89160000D02*
X104460000Y-89160000D01*
X104160000Y-89460000D02*
X101630000Y-89460000D01*
X104160000Y-117540000D02*
X104160000Y-89460000D01*
X104460000Y-89160000D02*
X104460000Y-91570000D01*
%TO.C,Q2*%
X133515500Y-84785500D02*
X133515500Y-88214500D01*
X133515500Y-88214500D02*
X139484500Y-88214500D01*
X139484500Y-84785500D02*
X133515500Y-84785500D01*
X139484500Y-88214500D02*
X139484500Y-84785500D01*
%TD*%
M02*
