%TF.GenerationSoftware,KiCad,Pcbnew,9.0.6*%
%TF.CreationDate,2026-01-16T18:30:39-06:00*%
%TF.ProjectId,SIP_Hat,5349505f-4861-4742-9e6b-696361645f70,rev?*%
%TF.SameCoordinates,Original*%
%TF.FileFunction,Paste,Top*%
%TF.FilePolarity,Positive*%
%FSLAX46Y46*%
G04 Gerber Fmt 4.6, Leading zero omitted, Abs format (unit mm)*
G04 Created by KiCad (PCBNEW 9.0.6) date 2026-01-16 18:30:39*
%MOMM*%
%LPD*%
G01*
G04 APERTURE LIST*
G04 Aperture macros list*
%AMRoundRect*
0 Rectangle with rounded corners*
0 $1 Rounding radius*
0 $2 $3 $4 $5 $6 $7 $8 $9 X,Y pos of 4 corners*
0 Add a 4 corners polygon primitive as box body*
4,1,4,$2,$3,$4,$5,$6,$7,$8,$9,$2,$3,0*
0 Add four circle primitives for the rounded corners*
1,1,$1+$1,$2,$3*
1,1,$1+$1,$4,$5*
1,1,$1+$1,$6,$7*
1,1,$1+$1,$8,$9*
0 Add four rect primitives between the rounded corners*
20,1,$1+$1,$2,$3,$4,$5,0*
20,1,$1+$1,$4,$5,$6,$7,0*
20,1,$1+$1,$6,$7,$8,$9,0*
20,1,$1+$1,$8,$9,$2,$3,0*%
G04 Aperture macros list end*
%ADD10RoundRect,0.250000X-0.412500X-0.650000X0.412500X-0.650000X0.412500X0.650000X-0.412500X0.650000X0*%
%ADD11RoundRect,0.250001X0.462499X0.624999X-0.462499X0.624999X-0.462499X-0.624999X0.462499X-0.624999X0*%
%ADD12R,0.700000X1.200000*%
%ADD13R,0.760000X1.200000*%
%ADD14R,0.800000X1.200000*%
%ADD15RoundRect,0.250000X-0.400000X-0.625000X0.400000X-0.625000X0.400000X0.625000X-0.400000X0.625000X0*%
%ADD16RoundRect,0.250000X-0.625000X0.400000X-0.625000X-0.400000X0.625000X-0.400000X0.625000X0.400000X0*%
%ADD17RoundRect,0.250000X0.650000X-0.412500X0.650000X0.412500X-0.650000X0.412500X-0.650000X-0.412500X0*%
%ADD18R,2.000000X0.700000*%
%ADD19RoundRect,0.250000X0.475000X-0.337500X0.475000X0.337500X-0.475000X0.337500X-0.475000X-0.337500X0*%
%ADD20RoundRect,0.250000X-0.475000X0.337500X-0.475000X-0.337500X0.475000X-0.337500X0.475000X0.337500X0*%
%ADD21RoundRect,0.250001X-0.624999X0.462499X-0.624999X-0.462499X0.624999X-0.462499X0.624999X0.462499X0*%
%ADD22RoundRect,0.250000X0.400000X0.625000X-0.400000X0.625000X-0.400000X-0.625000X0.400000X-0.625000X0*%
G04 APERTURE END LIST*
D10*
%TO.C,C5*%
X149837500Y-83800000D03*
X152962500Y-83800000D03*
%TD*%
D11*
%TO.C,D2*%
X160487500Y-86500000D03*
X157512500Y-86500000D03*
%TD*%
D12*
%TO.C,5v_in1*%
X109750000Y-124500000D03*
D13*
X111770000Y-124500000D03*
D14*
X113000000Y-124500000D03*
D12*
X110750000Y-124500000D03*
D13*
X108730000Y-124500000D03*
D14*
X107500000Y-124500000D03*
%TD*%
D15*
%TO.C,R9*%
X127950000Y-91500000D03*
X131050000Y-91500000D03*
%TD*%
%TO.C,R6*%
X157577000Y-90500000D03*
X160677000Y-90500000D03*
%TD*%
D16*
%TO.C,R1*%
X125000000Y-102450000D03*
X125000000Y-105550000D03*
%TD*%
%TO.C,R4*%
X107500000Y-118700000D03*
X107500000Y-121800000D03*
%TD*%
D17*
%TO.C,C6*%
X101000000Y-87162500D03*
X101000000Y-84037500D03*
%TD*%
D18*
%TO.C,Q1*%
X134800000Y-90550000D03*
X134800000Y-92450000D03*
X138200000Y-91500000D03*
%TD*%
D19*
%TO.C,C2*%
X124750000Y-96750000D03*
X124750000Y-94675000D03*
%TD*%
D20*
%TO.C,C7*%
X124000000Y-125962500D03*
X124000000Y-128037500D03*
%TD*%
D21*
%TO.C,D1*%
X108500000Y-84275000D03*
X108500000Y-87250000D03*
%TD*%
D17*
%TO.C,C27*%
X103600000Y-87162500D03*
X103600000Y-84037500D03*
%TD*%
D20*
%TO.C,C1*%
X152500000Y-110712500D03*
X152500000Y-112787500D03*
%TD*%
D16*
%TO.C,R5*%
X110000000Y-118700000D03*
X110000000Y-121800000D03*
%TD*%
D22*
%TO.C,R11*%
X145050000Y-86500000D03*
X141950000Y-86500000D03*
%TD*%
D16*
%TO.C,R3*%
X112000000Y-84200000D03*
X112000000Y-87300000D03*
%TD*%
D15*
%TO.C,R10*%
X127950000Y-86500000D03*
X131050000Y-86500000D03*
%TD*%
D22*
%TO.C,R12*%
X145050000Y-91500000D03*
X141950000Y-91500000D03*
%TD*%
D18*
%TO.C,Q2*%
X134800000Y-85550000D03*
X134800000Y-87450000D03*
X138200000Y-86500000D03*
%TD*%
M02*
