M48
; DRILL file {KiCad 9.0.6} date 2025-11-29T13:47:28-0500
; FORMAT={-:-/ absolute / metric / decimal}
; #@! TF.CreationDate,2025-11-29T13:47:28-05:00
; #@! TF.GenerationSoftware,Kicad,Pcbnew,9.0.6
; #@! TF.FileFunction,Plated,1,2,PTH
FMAT,2
METRIC
; #@! TA.AperFunction,Plated,PTH,ViaDrill
T1C0.400
; #@! TA.AperFunction,Plated,PTH,ViaDrill
T2C0.500
; #@! TA.AperFunction,Plated,PTH,ComponentDrill
T3C0.650
; #@! TA.AperFunction,Plated,PTH,ComponentDrill
T4C0.800
; #@! TA.AperFunction,Plated,PTH,ComponentDrill
T5C0.850
; #@! TA.AperFunction,Plated,PTH,ComponentDrill
T6C0.900
; #@! TA.AperFunction,Plated,PTH,ComponentDrill
T7C1.000
; #@! TA.AperFunction,Plated,PTH,ComponentDrill
T8C1.090
; #@! TA.AperFunction,Plated,PTH,ComponentDrill
T9C1.300
%
G90
G05
T1
X107.0Y-85.5
X113.0Y-91.75
X113.25Y-93.25
X113.5Y-81.5
X114.12Y-91.62
X114.25Y-119.75
X114.63Y-81.87
X116.036Y-86.964
X116.5Y-91.25
X116.974Y-87.901
X117.451Y-92.25
X118.183Y-93.0
X118.536Y-89.464
X118.883Y-94.0
X119.94Y-90.867
X120.502Y-89.009
X120.75Y-121.75
X122.25Y-93.0
X122.25Y-95.775
X123.011Y-112.78
X125.75Y-108.75
X126.899Y-107.3
X127.5Y-97.25
X128.0Y-82.75
X133.248Y-93.575
X138.75Y-80.75
X139.0Y-82.65
X139.666Y-109.601
X141.016Y-95.484
X142.5Y-106.75
X150.0Y-109.462
X158.33Y-100.08
X158.331Y-103.5
X160.7Y-110.24
X163.364Y-89.364
T2
X122.25Y-82.25
T4
X99.25Y-85.5
X101.75Y-85.5
X113.19Y-95.0
X113.19Y-97.54
X113.19Y-100.08
X113.19Y-102.62
X113.19Y-105.16
X113.19Y-107.7
X113.19Y-110.24
X113.19Y-112.78
X120.81Y-95.0
X120.81Y-97.54
X120.81Y-100.08
X120.81Y-102.62
X120.81Y-105.16
X120.81Y-107.7
X120.81Y-110.24
X120.81Y-112.78
X148.0Y-92.0
X150.5Y-92.0
X156.13Y-95.0
X156.13Y-97.54
X156.13Y-100.08
X156.13Y-102.62
X156.13Y-105.16
X156.13Y-107.7
X156.13Y-110.24
X156.13Y-112.78
X163.75Y-95.0
X163.75Y-97.54
X163.75Y-100.08
X163.75Y-102.62
X163.75Y-105.16
X163.75Y-107.7
X163.75Y-110.24
X163.75Y-112.78
T5
X128.75Y-112.713
X128.75Y-115.253
X128.75Y-117.793
X128.75Y-120.333
X128.75Y-122.873
X128.75Y-125.413
X128.75Y-127.953
X143.99Y-112.713
X143.99Y-115.253
X143.99Y-117.793
X143.99Y-120.333
X143.99Y-122.873
X143.99Y-125.413
X143.99Y-127.953
T6
X98.25Y-119.1
X98.25Y-122.4
X100.75Y-119.1
X100.75Y-122.4
X103.25Y-119.1
X103.25Y-122.4
T7
X99.0Y-94.75
X99.0Y-99.75
X99.0Y-104.75
X99.0Y-109.75
X99.0Y-114.75
X104.0Y-92.25
X104.0Y-97.25
X104.0Y-102.25
X104.0Y-107.25
X104.0Y-112.25
X104.37Y-77.23
X104.37Y-79.77
X106.91Y-77.23
X106.91Y-79.77
X109.45Y-77.23
X109.45Y-79.77
X111.99Y-77.23
X111.99Y-79.77
X114.53Y-77.23
X114.53Y-79.77
X117.07Y-77.23
X117.07Y-79.77
X119.61Y-77.23
X119.61Y-79.77
X122.15Y-77.23
X122.15Y-79.77
X124.69Y-77.23
X124.69Y-79.77
X127.23Y-77.23
X127.23Y-79.77
X129.77Y-77.23
X129.77Y-79.77
X132.31Y-77.23
X132.31Y-79.77
X134.85Y-77.23
X134.85Y-79.77
X135.25Y-91.0
X135.25Y-93.54
X135.25Y-96.08
X135.25Y-98.62
X137.39Y-77.23
X137.39Y-79.77
X137.79Y-90.99
X137.79Y-93.53
X137.79Y-96.07
X137.79Y-98.61
X139.93Y-77.23
X139.93Y-79.77
X142.47Y-77.23
X142.47Y-79.77
X145.01Y-77.23
X145.01Y-79.77
X147.55Y-77.23
X147.55Y-79.77
X150.09Y-77.23
X150.09Y-79.77
X152.63Y-77.23
X152.63Y-79.77
X161.63Y-121.75
X164.17Y-121.75
X166.71Y-121.75
X169.25Y-121.75
X171.79Y-121.75
X173.0Y-94.81
X173.0Y-99.81
X173.0Y-104.81
X173.0Y-109.81
X173.0Y-114.81
X178.0Y-92.31
X178.0Y-97.31
X178.0Y-102.31
X178.0Y-107.31
X178.0Y-112.31
T8
X101.5Y-92.07
X101.5Y-94.61
X101.5Y-97.15
X101.5Y-99.69
X101.5Y-102.23
X101.5Y-104.77
X101.5Y-107.31
X101.5Y-109.85
X101.5Y-112.39
X101.5Y-114.93
X175.5Y-92.25
X175.5Y-94.79
X175.5Y-97.33
X175.5Y-99.87
X175.5Y-102.41
X175.5Y-104.95
X175.5Y-107.49
X175.5Y-110.03
X175.5Y-112.57
X175.5Y-115.11
T9
X164.683Y-79.775
X169.762Y-79.775
X174.843Y-79.775
T3
G00X105.93Y-124.28
M15
G01X105.93Y-124.88
M16
G05
G00X105.93Y-128.08
M15
G01X105.93Y-128.68
M16
G05
G00X114.57Y-124.28
M15
G01X114.57Y-124.88
M16
G05
G00X114.57Y-128.08
M15
G01X114.57Y-128.68
M16
G05
M30
