%TF.GenerationSoftware,KiCad,Pcbnew,9.0.6*%
%TF.CreationDate,2025-11-29T13:47:23-05:00*%
%TF.ProjectId,SPI_Hat,5350495f-4861-4742-9e6b-696361645f70,rev?*%
%TF.SameCoordinates,Original*%
%TF.FileFunction,Soldermask,Bot*%
%TF.FilePolarity,Negative*%
%FSLAX46Y46*%
G04 Gerber Fmt 4.6, Leading zero omitted, Abs format (unit mm)*
G04 Created by KiCad (PCBNEW 9.0.6) date 2025-11-29 13:47:23*
%MOMM*%
%LPD*%
G01*
G04 APERTURE LIST*
G04 Aperture macros list*
%AMRoundRect*
0 Rectangle with rounded corners*
0 $1 Rounding radius*
0 $2 $3 $4 $5 $6 $7 $8 $9 X,Y pos of 4 corners*
0 Add a 4 corners polygon primitive as box body*
4,1,4,$2,$3,$4,$5,$6,$7,$8,$9,$2,$3,0*
0 Add four circle primitives for the rounded corners*
1,1,$1+$1,$2,$3*
1,1,$1+$1,$4,$5*
1,1,$1+$1,$6,$7*
1,1,$1+$1,$8,$9*
0 Add four rect primitives between the rounded corners*
20,1,$1+$1,$2,$3,$4,$5,0*
20,1,$1+$1,$4,$5,$6,$7,0*
20,1,$1+$1,$6,$7,$8,$9,0*
20,1,$1+$1,$8,$9,$2,$3,0*%
G04 Aperture macros list end*
%ADD10R,1.700000X1.700000*%
%ADD11C,1.700000*%
%ADD12C,2.700000*%
%ADD13O,1.354000X1.954000*%
%ADD14RoundRect,0.102000X0.679000X0.679000X-0.679000X0.679000X-0.679000X-0.679000X0.679000X-0.679000X0*%
%ADD15C,1.562000*%
%ADD16RoundRect,0.250000X0.550000X0.550000X-0.550000X0.550000X-0.550000X-0.550000X0.550000X-0.550000X0*%
%ADD17C,1.600000*%
%ADD18RoundRect,0.102000X-0.754000X0.754000X-0.754000X-0.754000X0.754000X-0.754000X0.754000X0.754000X0*%
%ADD19C,1.712000*%
%ADD20RoundRect,0.250000X-0.550000X-0.550000X0.550000X-0.550000X0.550000X0.550000X-0.550000X0.550000X0*%
%ADD21RoundRect,0.250000X0.620000X-0.620000X0.620000X0.620000X-0.620000X0.620000X-0.620000X-0.620000X0*%
%ADD22C,1.740000*%
%ADD23C,1.900000*%
%ADD24RoundRect,0.102000X-0.975000X-0.975000X0.975000X-0.975000X0.975000X0.975000X-0.975000X0.975000X0*%
%ADD25C,2.154000*%
%ADD26RoundRect,0.102000X0.754000X-0.754000X0.754000X0.754000X-0.754000X0.754000X-0.754000X-0.754000X0*%
%ADD27RoundRect,0.250000X-0.620000X0.620000X-0.620000X-0.620000X0.620000X-0.620000X0.620000X0.620000X0*%
G04 APERTURE END LIST*
D10*
%TO.C,J1*%
X104370000Y-79770000D03*
D11*
X104370000Y-77230000D03*
X106910000Y-79770000D03*
X106910000Y-77230000D03*
X109450000Y-79770000D03*
X109450000Y-77230000D03*
X111990000Y-79770000D03*
X111990000Y-77230000D03*
X114530000Y-79770000D03*
X114530000Y-77230000D03*
X117070000Y-79770000D03*
X117070000Y-77230000D03*
X119610000Y-79770000D03*
X119610000Y-77230000D03*
X122150000Y-79770000D03*
X122150000Y-77230000D03*
X124690000Y-79770000D03*
X124690000Y-77230000D03*
X127230000Y-79770000D03*
X127230000Y-77230000D03*
X129770000Y-79770000D03*
X129770000Y-77230000D03*
X132310000Y-79770000D03*
X132310000Y-77230000D03*
X134850000Y-79770000D03*
X134850000Y-77230000D03*
X137390000Y-79770000D03*
X137390000Y-77230000D03*
X139930000Y-79770000D03*
X139930000Y-77230000D03*
X142470000Y-79770000D03*
X142470000Y-77230000D03*
X145010000Y-79770000D03*
X145010000Y-77230000D03*
X147550000Y-79770000D03*
X147550000Y-77230000D03*
X150090000Y-79770000D03*
X150090000Y-77230000D03*
X152630000Y-79770000D03*
X152630000Y-77230000D03*
%TD*%
D12*
%TO.C,H3*%
X157500000Y-127500000D03*
%TD*%
D13*
%TO.C,5v_in1*%
X105930000Y-124580000D03*
X114570000Y-124580000D03*
X105930000Y-128380000D03*
X114570000Y-128380000D03*
%TD*%
D14*
%TO.C,U3*%
X143990000Y-127953000D03*
D15*
X143990000Y-125413000D03*
X143990000Y-122873000D03*
X143990000Y-120333000D03*
X143990000Y-117793000D03*
X143990000Y-115253000D03*
X143990000Y-112713000D03*
X128750000Y-112713000D03*
X128750000Y-115253000D03*
X128750000Y-117793000D03*
X128750000Y-120333000D03*
X128750000Y-122873000D03*
X128750000Y-125413000D03*
X128750000Y-127953000D03*
%TD*%
D16*
%TO.C,U2*%
X163750000Y-112780000D03*
D17*
X163750000Y-110240000D03*
X163750000Y-107700000D03*
X163750000Y-105160000D03*
X163750000Y-102620000D03*
X163750000Y-100080000D03*
X163750000Y-97540000D03*
X163750000Y-95000000D03*
X156130000Y-95000000D03*
X156130000Y-97540000D03*
X156130000Y-100080000D03*
X156130000Y-102620000D03*
X156130000Y-105160000D03*
X156130000Y-107700000D03*
X156130000Y-110240000D03*
X156130000Y-112780000D03*
%TD*%
D12*
%TO.C,H4*%
X99474874Y-127525126D03*
%TD*%
D18*
%TO.C,J3*%
X173000000Y-114810000D03*
D19*
X178000000Y-112310000D03*
X173000000Y-109810000D03*
X178000000Y-107310000D03*
X173000000Y-104810000D03*
X178000000Y-102310000D03*
X173000000Y-99810000D03*
X178000000Y-97310000D03*
X173000000Y-94810000D03*
X178000000Y-92310000D03*
%TD*%
D20*
%TO.C,C4*%
X99250000Y-85500000D03*
D17*
X101750000Y-85500000D03*
%TD*%
D20*
%TO.C,U1*%
X113190000Y-95000000D03*
D17*
X113190000Y-97540000D03*
X113190000Y-100080000D03*
X113190000Y-102620000D03*
X113190000Y-105160000D03*
X113190000Y-107700000D03*
X113190000Y-110240000D03*
X113190000Y-112780000D03*
X120810000Y-112780000D03*
X120810000Y-110240000D03*
X120810000Y-107700000D03*
X120810000Y-105160000D03*
X120810000Y-102620000D03*
X120810000Y-100080000D03*
X120810000Y-97540000D03*
X120810000Y-95000000D03*
%TD*%
D10*
%TO.C,J7*%
X161630000Y-121750000D03*
D11*
X164170000Y-121750000D03*
X166710000Y-121750000D03*
X169250000Y-121750000D03*
X171790000Y-121750000D03*
%TD*%
D21*
%TO.C,J9*%
X175500000Y-115110000D03*
D22*
X175500000Y-112570000D03*
X175500000Y-110030000D03*
X175500000Y-107490000D03*
X175500000Y-104950000D03*
X175500000Y-102410000D03*
X175500000Y-99870000D03*
X175500000Y-97330000D03*
X175500000Y-94790000D03*
X175500000Y-92250000D03*
%TD*%
D20*
%TO.C,C3*%
X148000000Y-92000000D03*
D17*
X150500000Y-92000000D03*
%TD*%
D12*
%TO.C,H1*%
X99500000Y-78500000D03*
%TD*%
D23*
%TO.C,SW1*%
X98250000Y-122400000D03*
X100750000Y-122400000D03*
X103250000Y-122400000D03*
X98250000Y-119100000D03*
X100750000Y-119100000D03*
X103250000Y-119100000D03*
%TD*%
D24*
%TO.C,J6*%
X164682500Y-79775000D03*
D25*
X169762500Y-79775000D03*
X174842500Y-79775000D03*
%TD*%
D10*
%TO.C,J4*%
X137790000Y-90990000D03*
D11*
X137790000Y-93530000D03*
X137790000Y-96070000D03*
X137790000Y-98610000D03*
%TD*%
D12*
%TO.C,H2*%
X157500000Y-78500000D03*
%TD*%
D10*
%TO.C,J5*%
X135250000Y-91000000D03*
D11*
X135250000Y-93540000D03*
X135250000Y-96080000D03*
X135250000Y-98620000D03*
%TD*%
D26*
%TO.C,J2*%
X104000000Y-92250000D03*
D19*
X99000000Y-94750000D03*
X104000000Y-97250000D03*
X99000000Y-99750000D03*
X104000000Y-102250000D03*
X99000000Y-104750000D03*
X104000000Y-107250000D03*
X99000000Y-109750000D03*
X104000000Y-112250000D03*
X99000000Y-114750000D03*
%TD*%
D27*
%TO.C,J8*%
X101500000Y-92070000D03*
D22*
X101500000Y-94610000D03*
X101500000Y-97150000D03*
X101500000Y-99690000D03*
X101500000Y-102230000D03*
X101500000Y-104770000D03*
X101500000Y-107310000D03*
X101500000Y-109850000D03*
X101500000Y-112390000D03*
X101500000Y-114930000D03*
%TD*%
M02*
