%TF.GenerationSoftware,KiCad,Pcbnew,9.0.6*%
%TF.CreationDate,2025-11-29T13:47:23-05:00*%
%TF.ProjectId,SPI_Hat,5350495f-4861-4742-9e6b-696361645f70,rev?*%
%TF.SameCoordinates,Original*%
%TF.FileFunction,Paste,Top*%
%TF.FilePolarity,Positive*%
%FSLAX46Y46*%
G04 Gerber Fmt 4.6, Leading zero omitted, Abs format (unit mm)*
G04 Created by KiCad (PCBNEW 9.0.6) date 2025-11-29 13:47:23*
%MOMM*%
%LPD*%
G01*
G04 APERTURE LIST*
G04 Aperture macros list*
%AMRoundRect*
0 Rectangle with rounded corners*
0 $1 Rounding radius*
0 $2 $3 $4 $5 $6 $7 $8 $9 X,Y pos of 4 corners*
0 Add a 4 corners polygon primitive as box body*
4,1,4,$2,$3,$4,$5,$6,$7,$8,$9,$2,$3,0*
0 Add four circle primitives for the rounded corners*
1,1,$1+$1,$2,$3*
1,1,$1+$1,$4,$5*
1,1,$1+$1,$6,$7*
1,1,$1+$1,$8,$9*
0 Add four rect primitives between the rounded corners*
20,1,$1+$1,$2,$3,$4,$5,0*
20,1,$1+$1,$4,$5,$6,$7,0*
20,1,$1+$1,$6,$7,$8,$9,0*
20,1,$1+$1,$8,$9,$2,$3,0*%
G04 Aperture macros list end*
%ADD10RoundRect,0.250000X0.400000X0.625000X-0.400000X0.625000X-0.400000X-0.625000X0.400000X-0.625000X0*%
%ADD11RoundRect,0.250001X0.462499X0.624999X-0.462499X0.624999X-0.462499X-0.624999X0.462499X-0.624999X0*%
%ADD12R,0.700000X1.200000*%
%ADD13R,0.760000X1.200000*%
%ADD14R,0.800000X1.200000*%
%ADD15RoundRect,0.250000X-0.400000X-0.625000X0.400000X-0.625000X0.400000X0.625000X-0.400000X0.625000X0*%
%ADD16RoundRect,0.250000X-0.625000X0.400000X-0.625000X-0.400000X0.625000X-0.400000X0.625000X0.400000X0*%
%ADD17RoundRect,0.250000X0.625000X-0.400000X0.625000X0.400000X-0.625000X0.400000X-0.625000X-0.400000X0*%
%ADD18RoundRect,0.250000X0.337500X0.475000X-0.337500X0.475000X-0.337500X-0.475000X0.337500X-0.475000X0*%
%ADD19RoundRect,0.250000X0.475000X-0.337500X0.475000X0.337500X-0.475000X0.337500X-0.475000X-0.337500X0*%
%ADD20RoundRect,0.250000X-0.475000X0.337500X-0.475000X-0.337500X0.475000X-0.337500X0.475000X0.337500X0*%
%ADD21RoundRect,0.250001X-0.624999X0.462499X-0.624999X-0.462499X0.624999X-0.462499X0.624999X0.462499X0*%
%ADD22RoundRect,0.250000X-0.337500X-0.475000X0.337500X-0.475000X0.337500X0.475000X-0.337500X0.475000X0*%
%ADD23RoundRect,0.033750X0.526250X0.101250X-0.526250X0.101250X-0.526250X-0.101250X0.526250X-0.101250X0*%
G04 APERTURE END LIST*
D10*
%TO.C,R8*%
X152050000Y-117250000D03*
X148950000Y-117250000D03*
%TD*%
D11*
%TO.C,D2*%
X160487500Y-86500000D03*
X157512500Y-86500000D03*
%TD*%
D12*
%TO.C,5v_in1*%
X109750000Y-124500000D03*
D13*
X111770000Y-124500000D03*
D14*
X113000000Y-124500000D03*
D12*
X110750000Y-124500000D03*
D13*
X108730000Y-124500000D03*
D14*
X107500000Y-124500000D03*
%TD*%
D15*
%TO.C,R6*%
X157577000Y-90500000D03*
X160677000Y-90500000D03*
%TD*%
D16*
%TO.C,R1*%
X125000000Y-102450000D03*
X125000000Y-105550000D03*
%TD*%
D17*
%TO.C,R2*%
X152500000Y-103800000D03*
X152500000Y-100700000D03*
%TD*%
D16*
%TO.C,R4*%
X107500000Y-118700000D03*
X107500000Y-121800000D03*
%TD*%
D18*
%TO.C,C5*%
X143382657Y-84404749D03*
X141307657Y-84404749D03*
%TD*%
D19*
%TO.C,C2*%
X124750000Y-96750000D03*
X124750000Y-94675000D03*
%TD*%
D20*
%TO.C,C7*%
X123000000Y-125962500D03*
X123000000Y-128037500D03*
%TD*%
D15*
%TO.C,R7*%
X148950000Y-121500000D03*
X152050000Y-121500000D03*
%TD*%
D21*
%TO.C,D1*%
X110500000Y-84025000D03*
X110500000Y-87000000D03*
%TD*%
D20*
%TO.C,C1*%
X152500000Y-109462500D03*
X152500000Y-111537500D03*
%TD*%
D16*
%TO.C,R5*%
X110000000Y-118700000D03*
X110000000Y-121800000D03*
%TD*%
%TO.C,R3*%
X114000000Y-83950000D03*
X114000000Y-87050000D03*
%TD*%
D22*
%TO.C,C6*%
X129557657Y-84404749D03*
X131632657Y-84404749D03*
%TD*%
D23*
%TO.C,U4*%
X138057657Y-85990842D03*
X138057657Y-85490842D03*
X138057657Y-84990842D03*
X138057657Y-84490842D03*
X135247657Y-84490842D03*
X135247657Y-84990842D03*
X135247657Y-85490842D03*
X135247657Y-85990842D03*
%TD*%
M02*
