%TF.GenerationSoftware,KiCad,Pcbnew,9.0.6*%
%TF.CreationDate,2025-11-29T13:47:23-05:00*%
%TF.ProjectId,SPI_Hat,5350495f-4861-4742-9e6b-696361645f70,rev?*%
%TF.SameCoordinates,Original*%
%TF.FileFunction,Copper,L1,Top*%
%TF.FilePolarity,Positive*%
%FSLAX46Y46*%
G04 Gerber Fmt 4.6, Leading zero omitted, Abs format (unit mm)*
G04 Created by KiCad (PCBNEW 9.0.6) date 2025-11-29 13:47:23*
%MOMM*%
%LPD*%
G01*
G04 APERTURE LIST*
G04 Aperture macros list*
%AMRoundRect*
0 Rectangle with rounded corners*
0 $1 Rounding radius*
0 $2 $3 $4 $5 $6 $7 $8 $9 X,Y pos of 4 corners*
0 Add a 4 corners polygon primitive as box body*
4,1,4,$2,$3,$4,$5,$6,$7,$8,$9,$2,$3,0*
0 Add four circle primitives for the rounded corners*
1,1,$1+$1,$2,$3*
1,1,$1+$1,$4,$5*
1,1,$1+$1,$6,$7*
1,1,$1+$1,$8,$9*
0 Add four rect primitives between the rounded corners*
20,1,$1+$1,$2,$3,$4,$5,0*
20,1,$1+$1,$4,$5,$6,$7,0*
20,1,$1+$1,$6,$7,$8,$9,0*
20,1,$1+$1,$8,$9,$2,$3,0*%
G04 Aperture macros list end*
%TA.AperFunction,ComponentPad*%
%ADD10R,1.700000X1.700000*%
%TD*%
%TA.AperFunction,ComponentPad*%
%ADD11C,1.700000*%
%TD*%
%TA.AperFunction,SMDPad,CuDef*%
%ADD12RoundRect,0.250000X0.400000X0.625000X-0.400000X0.625000X-0.400000X-0.625000X0.400000X-0.625000X0*%
%TD*%
%TA.AperFunction,SMDPad,CuDef*%
%ADD13RoundRect,0.250001X0.462499X0.624999X-0.462499X0.624999X-0.462499X-0.624999X0.462499X-0.624999X0*%
%TD*%
%TA.AperFunction,SMDPad,CuDef*%
%ADD14R,0.700000X1.200000*%
%TD*%
%TA.AperFunction,SMDPad,CuDef*%
%ADD15R,0.760000X1.200000*%
%TD*%
%TA.AperFunction,SMDPad,CuDef*%
%ADD16R,0.800000X1.200000*%
%TD*%
%TA.AperFunction,ComponentPad*%
%ADD17O,1.150000X1.750000*%
%TD*%
%TA.AperFunction,ComponentPad*%
%ADD18R,1.358000X1.358000*%
%TD*%
%TA.AperFunction,ComponentPad*%
%ADD19C,1.358000*%
%TD*%
%TA.AperFunction,ComponentPad*%
%ADD20RoundRect,0.250000X0.550000X0.550000X-0.550000X0.550000X-0.550000X-0.550000X0.550000X-0.550000X0*%
%TD*%
%TA.AperFunction,ComponentPad*%
%ADD21C,1.600000*%
%TD*%
%TA.AperFunction,SMDPad,CuDef*%
%ADD22RoundRect,0.250000X-0.400000X-0.625000X0.400000X-0.625000X0.400000X0.625000X-0.400000X0.625000X0*%
%TD*%
%TA.AperFunction,ComponentPad*%
%ADD23R,1.508000X1.508000*%
%TD*%
%TA.AperFunction,ComponentPad*%
%ADD24C,1.508000*%
%TD*%
%TA.AperFunction,ComponentPad*%
%ADD25RoundRect,0.250000X-0.550000X-0.550000X0.550000X-0.550000X0.550000X0.550000X-0.550000X0.550000X0*%
%TD*%
%TA.AperFunction,SMDPad,CuDef*%
%ADD26RoundRect,0.250000X-0.625000X0.400000X-0.625000X-0.400000X0.625000X-0.400000X0.625000X0.400000X0*%
%TD*%
%TA.AperFunction,SMDPad,CuDef*%
%ADD27RoundRect,0.250000X0.625000X-0.400000X0.625000X0.400000X-0.625000X0.400000X-0.625000X-0.400000X0*%
%TD*%
%TA.AperFunction,ComponentPad*%
%ADD28RoundRect,0.250000X0.620000X-0.620000X0.620000X0.620000X-0.620000X0.620000X-0.620000X-0.620000X0*%
%TD*%
%TA.AperFunction,ComponentPad*%
%ADD29C,1.740000*%
%TD*%
%TA.AperFunction,ComponentPad*%
%ADD30C,1.900000*%
%TD*%
%TA.AperFunction,SMDPad,CuDef*%
%ADD31RoundRect,0.250000X0.337500X0.475000X-0.337500X0.475000X-0.337500X-0.475000X0.337500X-0.475000X0*%
%TD*%
%TA.AperFunction,SMDPad,CuDef*%
%ADD32RoundRect,0.250000X0.475000X-0.337500X0.475000X0.337500X-0.475000X0.337500X-0.475000X-0.337500X0*%
%TD*%
%TA.AperFunction,SMDPad,CuDef*%
%ADD33RoundRect,0.250000X-0.475000X0.337500X-0.475000X-0.337500X0.475000X-0.337500X0.475000X0.337500X0*%
%TD*%
%TA.AperFunction,SMDPad,CuDef*%
%ADD34RoundRect,0.250001X-0.624999X0.462499X-0.624999X-0.462499X0.624999X-0.462499X0.624999X0.462499X0*%
%TD*%
%TA.AperFunction,ComponentPad*%
%ADD35R,1.950000X1.950000*%
%TD*%
%TA.AperFunction,ComponentPad*%
%ADD36C,1.950000*%
%TD*%
%TA.AperFunction,SMDPad,CuDef*%
%ADD37RoundRect,0.250000X-0.337500X-0.475000X0.337500X-0.475000X0.337500X0.475000X-0.337500X0.475000X0*%
%TD*%
%TA.AperFunction,SMDPad,CuDef*%
%ADD38RoundRect,0.033750X0.526250X0.101250X-0.526250X0.101250X-0.526250X-0.101250X0.526250X-0.101250X0*%
%TD*%
%TA.AperFunction,ComponentPad*%
%ADD39RoundRect,0.250000X-0.620000X0.620000X-0.620000X-0.620000X0.620000X-0.620000X0.620000X0.620000X0*%
%TD*%
%TA.AperFunction,ViaPad*%
%ADD40C,0.800000*%
%TD*%
%TA.AperFunction,Conductor*%
%ADD41C,1.500000*%
%TD*%
%TA.AperFunction,Conductor*%
%ADD42C,0.600000*%
%TD*%
%TA.AperFunction,Conductor*%
%ADD43C,1.000000*%
%TD*%
%TA.AperFunction,Conductor*%
%ADD44C,0.200000*%
%TD*%
%TA.AperFunction,Conductor*%
%ADD45C,0.800000*%
%TD*%
%TA.AperFunction,Conductor*%
%ADD46C,0.900000*%
%TD*%
G04 APERTURE END LIST*
D10*
%TO.P,J1,1,Pin_1*%
%TO.N,+3.3VA*%
X104370000Y-79770000D03*
D11*
%TO.P,J1,2,Pin_2*%
%TO.N,+5VA*%
X104370000Y-77230000D03*
%TO.P,J1,3,GPIO2*%
%TO.N,Net-(J1-GPIO2)*%
X106910000Y-79770000D03*
%TO.P,J1,4,Pin_4*%
%TO.N,+5VA*%
X106910000Y-77230000D03*
%TO.P,J1,5,GPIO3*%
%TO.N,Net-(J1-GPIO3)*%
X109450000Y-79770000D03*
%TO.P,J1,6,Pin_6*%
%TO.N,unconnected-(J1-Pin_6-Pad6)*%
X109450000Y-77230000D03*
%TO.P,J1,7,Pin_7*%
%TO.N,Net-(J1-Pin_7)*%
X111990000Y-79770000D03*
%TO.P,J1,8,Pin_8*%
%TO.N,Net-(J1-Pin_8)*%
X111990000Y-77230000D03*
%TO.P,J1,9,Pin_9*%
%TO.N,unconnected-(J1-Pin_9-Pad9)*%
X114530000Y-79770000D03*
%TO.P,J1,10,Pin_10*%
%TO.N,Net-(J1-Pin_10)*%
X114530000Y-77230000D03*
%TO.P,J1,11,Pin_11*%
%TO.N,Net-(J1-Pin_11)*%
X117070000Y-79770000D03*
%TO.P,J1,12,Pin_12*%
%TO.N,unconnected-(J1-Pin_12-Pad12)*%
X117070000Y-77230000D03*
%TO.P,J1,13,Pin_13*%
%TO.N,Net-(J1-Pin_13)*%
X119610000Y-79770000D03*
%TO.P,J1,14,Pin_14*%
%TO.N,unconnected-(J1-Pin_14-Pad14)*%
X119610000Y-77230000D03*
%TO.P,J1,15,Pin_15*%
%TO.N,Net-(J1-Pin_15)*%
X122150000Y-79770000D03*
%TO.P,J1,16,Pin_16*%
%TO.N,unconnected-(J1-Pin_16-Pad16)*%
X122150000Y-77230000D03*
%TO.P,J1,17,Pin_17*%
%TO.N,unconnected-(J1-Pin_17-Pad17)*%
X124690000Y-79770000D03*
%TO.P,J1,18,Pin_18*%
%TO.N,unconnected-(J1-Pin_18-Pad18)*%
X124690000Y-77230000D03*
%TO.P,J1,19,Pin_19*%
%TO.N,unconnected-(J1-Pin_19-Pad19)*%
X127230000Y-79770000D03*
%TO.P,J1,20,Pin_20*%
%TO.N,unconnected-(J1-Pin_20-Pad20)*%
X127230000Y-77230000D03*
%TO.P,J1,21,Pin_21*%
%TO.N,unconnected-(J1-Pin_21-Pad21)*%
X129770000Y-79770000D03*
%TO.P,J1,22,Pin_22*%
%TO.N,unconnected-(J1-Pin_22-Pad22)*%
X129770000Y-77230000D03*
%TO.P,J1,23,Pin_23*%
%TO.N,unconnected-(J1-Pin_23-Pad23)*%
X132310000Y-79770000D03*
%TO.P,J1,24,Pin_24*%
%TO.N,unconnected-(J1-Pin_24-Pad24)*%
X132310000Y-77230000D03*
%TO.P,J1,25,Pin_25*%
%TO.N,unconnected-(J1-Pin_25-Pad25)*%
X134850000Y-79770000D03*
%TO.P,J1,26,Pin_26*%
%TO.N,unconnected-(J1-Pin_26-Pad26)*%
X134850000Y-77230000D03*
%TO.P,J1,27,Pin_27*%
%TO.N,unconnected-(J1-Pin_27-Pad27)*%
X137390000Y-79770000D03*
%TO.P,J1,28,Pin_28*%
%TO.N,unconnected-(J1-Pin_28-Pad28)*%
X137390000Y-77230000D03*
%TO.P,J1,29,Pin_29*%
%TO.N,unconnected-(J1-Pin_29-Pad29)*%
X139930000Y-79770000D03*
%TO.P,J1,30,Pin_30*%
%TO.N,unconnected-(J1-Pin_30-Pad30)*%
X139930000Y-77230000D03*
%TO.P,J1,31,Pin_31*%
%TO.N,unconnected-(J1-Pin_31-Pad31)*%
X142470000Y-79770000D03*
%TO.P,J1,32,Pin_32*%
%TO.N,unconnected-(J1-Pin_32-Pad32)*%
X142470000Y-77230000D03*
%TO.P,J1,33,Pin_33*%
%TO.N,unconnected-(J1-Pin_33-Pad33)*%
X145010000Y-79770000D03*
%TO.P,J1,34,Pin_34*%
%TO.N,unconnected-(J1-Pin_34-Pad34)*%
X145010000Y-77230000D03*
%TO.P,J1,35,Pin_35*%
%TO.N,unconnected-(J1-Pin_35-Pad35)*%
X147550000Y-79770000D03*
%TO.P,J1,36,Pin_36*%
%TO.N,unconnected-(J1-Pin_36-Pad36)*%
X147550000Y-77230000D03*
%TO.P,J1,37,Pin_37*%
%TO.N,unconnected-(J1-Pin_37-Pad37)*%
X150090000Y-79770000D03*
%TO.P,J1,38,Pin_38*%
%TO.N,unconnected-(J1-Pin_38-Pad38)*%
X150090000Y-77230000D03*
%TO.P,J1,39,Pin_39*%
%TO.N,unconnected-(J1-Pin_39-Pad39)*%
X152630000Y-79770000D03*
%TO.P,J1,40,Pin_40*%
%TO.N,unconnected-(J1-Pin_40-Pad40)*%
X152630000Y-77230000D03*
%TD*%
D12*
%TO.P,R8,1*%
%TO.N,GND*%
X152050000Y-117250000D03*
%TO.P,R8,2*%
%TO.N,Net-(U3-D1)*%
X148950000Y-117250000D03*
%TD*%
D13*
%TO.P,D2,1,K*%
%TO.N,GND*%
X160487500Y-86500000D03*
%TO.P,D2,2,A*%
%TO.N,Net-(D2-A)*%
X157512500Y-86500000D03*
%TD*%
D14*
%TO.P,5v_in1,A5,CC1*%
%TO.N,Net-(5v_in1-CC1)*%
X109750000Y-124500000D03*
D15*
%TO.P,5v_in1,A9,VBUS_A*%
%TO.N,Net-(5v_in1-VBUS_A)*%
X111770000Y-124500000D03*
D16*
%TO.P,5v_in1,A12,GND_A*%
%TO.N,Net-(5v_in1-GND_A)*%
X113000000Y-124500000D03*
D14*
%TO.P,5v_in1,B5,CC2*%
%TO.N,Net-(5v_in1-CC2)*%
X110750000Y-124500000D03*
D15*
%TO.P,5v_in1,B9,VBUS_B*%
%TO.N,unconnected-(5v_in1-VBUS_B-PadB9)*%
X108730000Y-124500000D03*
D16*
%TO.P,5v_in1,B12,GND_B*%
%TO.N,unconnected-(5v_in1-GND_B-PadB12)*%
X107500000Y-124500000D03*
D17*
%TO.P,5v_in1,SH1,SHIELD*%
%TO.N,unconnected-(5v_in1-SHIELD-PadSH1)*%
X105930000Y-124580000D03*
%TO.P,5v_in1,SH2,SHIELD__1*%
%TO.N,unconnected-(5v_in1-SHIELD__1-PadSH2)*%
X114570000Y-124580000D03*
%TO.P,5v_in1,SH3,SHIELD__2*%
%TO.N,unconnected-(5v_in1-SHIELD__2-PadSH3)*%
X105930000Y-128380000D03*
%TO.P,5v_in1,SH4,SHIELD__3*%
%TO.N,unconnected-(5v_in1-SHIELD__3-PadSH4)*%
X114570000Y-128380000D03*
%TD*%
D18*
%TO.P,U3,1,D0*%
%TO.N,unconnected-(U3-D0-Pad1)*%
X143990000Y-127953000D03*
D19*
%TO.P,U3,2,D1*%
%TO.N,Net-(U3-D1)*%
X143990000Y-125413000D03*
%TO.P,U3,3,D2*%
%TO.N,unconnected-(U3-D2-Pad3)*%
X143990000Y-122873000D03*
%TO.P,U3,4,D3*%
%TO.N,unconnected-(U3-D3-Pad4)*%
X143990000Y-120333000D03*
%TO.P,U3,5,D4*%
%TO.N,unconnected-(U3-D4-Pad5)*%
X143990000Y-117793000D03*
%TO.P,U3,6,D5*%
%TO.N,unconnected-(U3-D5-Pad6)*%
X143990000Y-115253000D03*
%TO.P,U3,7,TX_D6*%
%TO.N,Net-(J1-Pin_10)*%
X143990000Y-112713000D03*
%TO.P,U3,8,RX_D7*%
%TO.N,Net-(J1-Pin_8)*%
X128750000Y-112713000D03*
%TO.P,U3,9,D8*%
%TO.N,unconnected-(U3-D8-Pad9)*%
X128750000Y-115253000D03*
%TO.P,U3,10,D9*%
%TO.N,unconnected-(U3-D9-Pad10)*%
X128750000Y-117793000D03*
%TO.P,U3,11,D10*%
%TO.N,Net-(U3-D10)*%
X128750000Y-120333000D03*
%TO.P,U3,12,VCC_3V3*%
%TO.N,unconnected-(U3-VCC_3V3-Pad12)*%
X128750000Y-122873000D03*
%TO.P,U3,13,GND*%
%TO.N,GND*%
X128750000Y-125413000D03*
%TO.P,U3,14,VUSB*%
%TO.N,+5VA*%
X128750000Y-127953000D03*
%TD*%
D20*
%TO.P,U2,1,QB*%
%TO.N,Net-(J3-Pin_2)*%
X163750000Y-112780000D03*
D21*
%TO.P,U2,2,QC*%
%TO.N,Net-(J3-Pin_3)*%
X163750000Y-110240000D03*
%TO.P,U2,3,QD*%
%TO.N,Net-(J3-Pin_4)*%
X163750000Y-107700000D03*
%TO.P,U2,4,QE*%
%TO.N,Net-(J3-Pin_5)*%
X163750000Y-105160000D03*
%TO.P,U2,5,QF*%
%TO.N,Net-(J3-Pin_6)*%
X163750000Y-102620000D03*
%TO.P,U2,6,QG*%
%TO.N,Net-(J3-Pin_7)*%
X163750000Y-100080000D03*
%TO.P,U2,7,QH*%
%TO.N,Net-(J3-Pin_8)*%
X163750000Y-97540000D03*
%TO.P,U2,8,GND*%
%TO.N,GND*%
X163750000Y-95000000D03*
%TO.P,U2,9,QH'*%
%TO.N,Net-(J7-Pin_3)*%
X156130000Y-95000000D03*
%TO.P,U2,10,~{SRCLR}*%
%TO.N,+5VA*%
X156130000Y-97540000D03*
%TO.P,U2,11,SRCLK*%
%TO.N,Net-(J1-Pin_7)*%
X156130000Y-100080000D03*
%TO.P,U2,12,RCLK*%
%TO.N,Net-(J1-Pin_15)*%
X156130000Y-102620000D03*
%TO.P,U2,13,~{OE}*%
%TO.N,Net-(U2-~{OE})*%
X156130000Y-105160000D03*
%TO.P,U2,14,SER*%
%TO.N,Net-(U1-QH')*%
X156130000Y-107700000D03*
%TO.P,U2,15,QA*%
%TO.N,Net-(J3-Pin_1)*%
X156130000Y-110240000D03*
%TO.P,U2,16,VCC*%
%TO.N,+5VA*%
X156130000Y-112780000D03*
%TD*%
D22*
%TO.P,R6,1*%
%TO.N,Net-(U3-D10)*%
X157577000Y-90500000D03*
%TO.P,R6,2*%
%TO.N,Net-(D2-A)*%
X160677000Y-90500000D03*
%TD*%
D23*
%TO.P,J3,1,Pin_1*%
%TO.N,Net-(J3-Pin_1)*%
X173000000Y-114810000D03*
D24*
%TO.P,J3,2,Pin_2*%
%TO.N,Net-(J3-Pin_2)*%
X178000000Y-112310000D03*
%TO.P,J3,3,Pin_3*%
%TO.N,Net-(J3-Pin_3)*%
X173000000Y-109810000D03*
%TO.P,J3,4,Pin_4*%
%TO.N,Net-(J3-Pin_4)*%
X178000000Y-107310000D03*
%TO.P,J3,5,Pin_5*%
%TO.N,Net-(J3-Pin_5)*%
X173000000Y-104810000D03*
%TO.P,J3,6,Pin_6*%
%TO.N,Net-(J3-Pin_6)*%
X178000000Y-102310000D03*
%TO.P,J3,7,Pin_7*%
%TO.N,Net-(J3-Pin_7)*%
X173000000Y-99810000D03*
%TO.P,J3,8,Pin_8*%
%TO.N,Net-(J3-Pin_8)*%
X178000000Y-97310000D03*
%TO.P,J3,9,Pin_9*%
%TO.N,GND*%
X173000000Y-94810000D03*
%TO.P,J3,10,Pin_10*%
%TO.N,+5VA*%
X178000000Y-92310000D03*
%TD*%
D25*
%TO.P,C4,1*%
%TO.N,+5VA*%
X99250000Y-85500000D03*
D21*
%TO.P,C4,2*%
%TO.N,GND*%
X101750000Y-85500000D03*
%TD*%
D25*
%TO.P,U1,1,QB*%
%TO.N,Net-(J2-Pin_2)*%
X113190000Y-95000000D03*
D21*
%TO.P,U1,2,QC*%
%TO.N,Net-(J2-Pin_3)*%
X113190000Y-97540000D03*
%TO.P,U1,3,QD*%
%TO.N,Net-(J2-Pin_4)*%
X113190000Y-100080000D03*
%TO.P,U1,4,QE*%
%TO.N,Net-(J2-Pin_5)*%
X113190000Y-102620000D03*
%TO.P,U1,5,QF*%
%TO.N,Net-(J2-Pin_6)*%
X113190000Y-105160000D03*
%TO.P,U1,6,QG*%
%TO.N,Net-(J2-Pin_7)*%
X113190000Y-107700000D03*
%TO.P,U1,7,QH*%
%TO.N,Net-(J2-Pin_8)*%
X113190000Y-110240000D03*
%TO.P,U1,8,GND*%
%TO.N,GND*%
X113190000Y-112780000D03*
%TO.P,U1,9,QH'*%
%TO.N,Net-(U1-QH')*%
X120810000Y-112780000D03*
%TO.P,U1,10,~{SRCLR}*%
%TO.N,+5VA*%
X120810000Y-110240000D03*
%TO.P,U1,11,SRCLK*%
%TO.N,Net-(J1-Pin_7)*%
X120810000Y-107700000D03*
%TO.P,U1,12,RCLK*%
%TO.N,Net-(J1-Pin_15)*%
X120810000Y-105160000D03*
%TO.P,U1,13,~{OE}*%
%TO.N,Net-(J1-Pin_11)*%
X120810000Y-102620000D03*
%TO.P,U1,14,SER*%
%TO.N,Net-(J1-Pin_13)*%
X120810000Y-100080000D03*
%TO.P,U1,15,QA*%
%TO.N,Net-(J2-Pin_1)*%
X120810000Y-97540000D03*
%TO.P,U1,16,VCC*%
%TO.N,+5VA*%
X120810000Y-95000000D03*
%TD*%
D26*
%TO.P,R1,1*%
%TO.N,Net-(J1-Pin_11)*%
X125000000Y-102450000D03*
%TO.P,R1,2*%
%TO.N,+5VA*%
X125000000Y-105550000D03*
%TD*%
D27*
%TO.P,R2,1*%
%TO.N,Net-(U2-~{OE})*%
X152500000Y-103800000D03*
%TO.P,R2,2*%
%TO.N,+5VA*%
X152500000Y-100700000D03*
%TD*%
D26*
%TO.P,R4,1*%
%TO.N,GND*%
X107500000Y-118700000D03*
%TO.P,R4,2*%
%TO.N,Net-(5v_in1-CC1)*%
X107500000Y-121800000D03*
%TD*%
D10*
%TO.P,J7,1,Pin_1*%
%TO.N,Net-(J1-Pin_15)*%
X161630000Y-121750000D03*
D11*
%TO.P,J7,2,Pin_2*%
%TO.N,Net-(J1-Pin_7)*%
X164170000Y-121750000D03*
%TO.P,J7,3,Pin_3*%
%TO.N,Net-(J7-Pin_3)*%
X166710000Y-121750000D03*
%TO.P,J7,4,Pin_4*%
%TO.N,GND*%
X169250000Y-121750000D03*
%TO.P,J7,5,Pin_5*%
%TO.N,+5VA*%
X171790000Y-121750000D03*
%TD*%
D28*
%TO.P,J9,1,Pin_1*%
%TO.N,Net-(J3-Pin_1)*%
X175500000Y-115110000D03*
D29*
%TO.P,J9,2,Pin_2*%
%TO.N,Net-(J3-Pin_2)*%
X175500000Y-112570000D03*
%TO.P,J9,3,Pin_3*%
%TO.N,Net-(J3-Pin_3)*%
X175500000Y-110030000D03*
%TO.P,J9,4,Pin_4*%
%TO.N,Net-(J3-Pin_4)*%
X175500000Y-107490000D03*
%TO.P,J9,5,Pin_5*%
%TO.N,Net-(J3-Pin_5)*%
X175500000Y-104950000D03*
%TO.P,J9,6,Pin_6*%
%TO.N,Net-(J3-Pin_6)*%
X175500000Y-102410000D03*
%TO.P,J9,7,Pin_7*%
%TO.N,Net-(J3-Pin_7)*%
X175500000Y-99870000D03*
%TO.P,J9,8,Pin_8*%
%TO.N,Net-(J3-Pin_8)*%
X175500000Y-97330000D03*
%TO.P,J9,9,Pin_9*%
%TO.N,GND*%
X175500000Y-94790000D03*
%TO.P,J9,10,Pin_10*%
%TO.N,+5VA*%
X175500000Y-92250000D03*
%TD*%
D25*
%TO.P,C3,1*%
%TO.N,+3.3VA*%
X148000000Y-92000000D03*
D21*
%TO.P,C3,2*%
%TO.N,GND*%
X150500000Y-92000000D03*
%TD*%
D30*
%TO.P,SW1,1,A*%
%TO.N,unconnected-(SW1-A-Pad1)*%
X98250000Y-122400000D03*
%TO.P,SW1,2,B*%
%TO.N,GND*%
X100750000Y-122400000D03*
%TO.P,SW1,3,C*%
%TO.N,Net-(5v_in1-GND_A)*%
X103250000Y-122400000D03*
%TO.P,SW1,4,C*%
%TO.N,unconnected-(SW1-C-Pad4)*%
X98250000Y-119100000D03*
%TO.P,SW1,5,B*%
%TO.N,+5VA*%
X100750000Y-119100000D03*
%TO.P,SW1,6,A*%
%TO.N,Net-(5v_in1-VBUS_A)*%
X103250000Y-119100000D03*
%TD*%
D31*
%TO.P,C5,1*%
%TO.N,GND*%
X143382657Y-84404749D03*
%TO.P,C5,2*%
%TO.N,+3.3VA*%
X141307657Y-84404749D03*
%TD*%
D32*
%TO.P,C2,1*%
%TO.N,GND*%
X124750000Y-96750000D03*
%TO.P,C2,2*%
%TO.N,+5VA*%
X124750000Y-94675000D03*
%TD*%
D33*
%TO.P,C7,1*%
%TO.N,GND*%
X123000000Y-125962500D03*
%TO.P,C7,2*%
%TO.N,+5VA*%
X123000000Y-128037500D03*
%TD*%
D22*
%TO.P,R7,1*%
%TO.N,Net-(U3-D1)*%
X148950000Y-121500000D03*
%TO.P,R7,2*%
%TO.N,Net-(J6-Pin_3)*%
X152050000Y-121500000D03*
%TD*%
D34*
%TO.P,D1,1,K*%
%TO.N,GND*%
X110500000Y-84025000D03*
%TO.P,D1,2,A*%
%TO.N,Net-(D1-A)*%
X110500000Y-87000000D03*
%TD*%
D33*
%TO.P,C1,1*%
%TO.N,GND*%
X152500000Y-109462500D03*
%TO.P,C1,2*%
%TO.N,+5VA*%
X152500000Y-111537500D03*
%TD*%
D26*
%TO.P,R5,1*%
%TO.N,GND*%
X110000000Y-118700000D03*
%TO.P,R5,2*%
%TO.N,Net-(5v_in1-CC2)*%
X110000000Y-121800000D03*
%TD*%
D35*
%TO.P,J6,1,Pin_1*%
%TO.N,+5VA*%
X164682500Y-79775000D03*
D36*
%TO.P,J6,2,Pin_2*%
%TO.N,GND*%
X169762500Y-79775000D03*
%TO.P,J6,3,Pin_3*%
%TO.N,Net-(J6-Pin_3)*%
X174842500Y-79775000D03*
%TD*%
D26*
%TO.P,R3,1*%
%TO.N,Net-(D1-A)*%
X114000000Y-83950000D03*
%TO.P,R3,2*%
%TO.N,+5VA*%
X114000000Y-87050000D03*
%TD*%
D37*
%TO.P,C6,1*%
%TO.N,GND*%
X129557657Y-84404749D03*
%TO.P,C6,2*%
%TO.N,+5VA*%
X131632657Y-84404749D03*
%TD*%
D10*
%TO.P,J4,1,Pin_1*%
%TO.N,GND*%
X137790000Y-90990000D03*
D11*
%TO.P,J4,2,Pin_2*%
%TO.N,+5VA*%
X137790000Y-93530000D03*
%TO.P,J4,3,Pin_3*%
%TO.N,Net-(J4-Pin_3)*%
X137790000Y-96070000D03*
%TO.P,J4,4,Pin_4*%
%TO.N,Net-(J4-Pin_4)*%
X137790000Y-98610000D03*
%TD*%
D38*
%TO.P,U4,1,GND*%
%TO.N,GND*%
X138057657Y-85990842D03*
%TO.P,U4,2,VREF_A*%
%TO.N,+3.3VA*%
X138057657Y-85490842D03*
%TO.P,U4,3,A1*%
%TO.N,Net-(J1-GPIO2)*%
X138057657Y-84990842D03*
%TO.P,U4,4,A2*%
%TO.N,Net-(J1-GPIO3)*%
X138057657Y-84490842D03*
%TO.P,U4,5,B2*%
%TO.N,Net-(J4-Pin_4)*%
X135247657Y-84490842D03*
%TO.P,U4,6,B1*%
%TO.N,Net-(J4-Pin_3)*%
X135247657Y-84990842D03*
%TO.P,U4,7,VREF_B*%
%TO.N,+5VA*%
X135247657Y-85490842D03*
%TO.P,U4,8,EN*%
X135247657Y-85990842D03*
%TD*%
D10*
%TO.P,J5,1,Pin_1*%
%TO.N,GND*%
X135250000Y-91000000D03*
D11*
%TO.P,J5,2,Pin_2*%
%TO.N,+5VA*%
X135250000Y-93540000D03*
%TO.P,J5,3,Pin_3*%
%TO.N,Net-(J4-Pin_3)*%
X135250000Y-96080000D03*
%TO.P,J5,4,Pin_4*%
%TO.N,Net-(J4-Pin_4)*%
X135250000Y-98620000D03*
%TD*%
D23*
%TO.P,J2,1,Pin_1*%
%TO.N,Net-(J2-Pin_1)*%
X104000000Y-92250000D03*
D24*
%TO.P,J2,2,Pin_2*%
%TO.N,Net-(J2-Pin_2)*%
X99000000Y-94750000D03*
%TO.P,J2,3,Pin_3*%
%TO.N,Net-(J2-Pin_3)*%
X104000000Y-97250000D03*
%TO.P,J2,4,Pin_4*%
%TO.N,Net-(J2-Pin_4)*%
X99000000Y-99750000D03*
%TO.P,J2,5,Pin_5*%
%TO.N,Net-(J2-Pin_5)*%
X104000000Y-102250000D03*
%TO.P,J2,6,Pin_6*%
%TO.N,Net-(J2-Pin_6)*%
X99000000Y-104750000D03*
%TO.P,J2,7,Pin_7*%
%TO.N,Net-(J2-Pin_7)*%
X104000000Y-107250000D03*
%TO.P,J2,8,Pin_8*%
%TO.N,Net-(J2-Pin_8)*%
X99000000Y-109750000D03*
%TO.P,J2,9,Pin_9*%
%TO.N,GND*%
X104000000Y-112250000D03*
%TO.P,J2,10,Pin_10*%
%TO.N,+5VA*%
X99000000Y-114750000D03*
%TD*%
D39*
%TO.P,J8,1,Pin_1*%
%TO.N,Net-(J2-Pin_1)*%
X101500000Y-92070000D03*
D29*
%TO.P,J8,2,Pin_2*%
%TO.N,Net-(J2-Pin_2)*%
X101500000Y-94610000D03*
%TO.P,J8,3,Pin_3*%
%TO.N,Net-(J2-Pin_3)*%
X101500000Y-97150000D03*
%TO.P,J8,4,Pin_4*%
%TO.N,Net-(J2-Pin_4)*%
X101500000Y-99690000D03*
%TO.P,J8,5,Pin_5*%
%TO.N,Net-(J2-Pin_5)*%
X101500000Y-102230000D03*
%TO.P,J8,6,Pin_6*%
%TO.N,Net-(J2-Pin_6)*%
X101500000Y-104770000D03*
%TO.P,J8,7,Pin_7*%
%TO.N,Net-(J2-Pin_7)*%
X101500000Y-107310000D03*
%TO.P,J8,8,Pin_8*%
%TO.N,Net-(J2-Pin_8)*%
X101500000Y-109850000D03*
%TO.P,J8,9,Pin_9*%
%TO.N,GND*%
X101500000Y-112390000D03*
%TO.P,J8,10,Pin_10*%
%TO.N,+5VA*%
X101500000Y-114930000D03*
%TD*%
D40*
%TO.N,GND*%
X163363603Y-89363603D03*
X127500000Y-97250000D03*
X150000000Y-109462500D03*
X114250000Y-119750000D03*
X107000000Y-85500000D03*
X120750000Y-121750000D03*
X128000000Y-82750000D03*
%TO.N,+3.3VA*%
X122250000Y-82250000D03*
%TO.N,Net-(J2-Pin_1)*%
X113250000Y-93250000D03*
X118883372Y-94000000D03*
%TO.N,Net-(J3-Pin_1)*%
X160700000Y-110240000D03*
%TO.N,Net-(J1-GPIO2)*%
X138750000Y-80750000D03*
X139000000Y-82650000D03*
%TO.N,Net-(J1-Pin_11)*%
X119939963Y-90867227D03*
X118183372Y-93000000D03*
%TO.N,Net-(J1-Pin_13)*%
X122250000Y-93000000D03*
X122250000Y-95775000D03*
%TO.N,Net-(J1-Pin_15)*%
X120502000Y-89008626D03*
X117451000Y-92250000D03*
X126898584Y-107300000D03*
X158331000Y-103500000D03*
%TO.N,Net-(J1-Pin_7)*%
X158330000Y-100080000D03*
X118536368Y-89463632D03*
X125750000Y-108750000D03*
X116500000Y-91250000D03*
%TO.N,Net-(J4-Pin_3)*%
X133247793Y-93575000D03*
%TO.N,Net-(J4-Pin_4)*%
X141016397Y-95483603D03*
%TO.N,Net-(U3-D10)*%
X142500000Y-106750000D03*
X139666500Y-109601000D03*
%TO.N,Net-(U1-QH')*%
X123011000Y-112780000D03*
%TO.N,Net-(J1-Pin_8)*%
X113000000Y-91750000D03*
X113500000Y-81500000D03*
X116036368Y-86963632D03*
%TO.N,Net-(J1-Pin_10)*%
X114630025Y-81869975D03*
X116973515Y-87900778D03*
X114119975Y-91619975D03*
%TD*%
D41*
%TO.N,+5VA*%
X104370000Y-87250000D02*
X104370000Y-83372000D01*
D42*
X154220000Y-99450000D02*
X153750000Y-99450000D01*
D41*
X102569000Y-81571000D02*
X102569000Y-77780000D01*
D42*
X157430000Y-98840000D02*
X157430000Y-111480000D01*
X126376000Y-100257502D02*
X123524000Y-97405502D01*
D43*
X147622735Y-97000000D02*
X156099000Y-88523735D01*
D44*
X135247657Y-85490842D02*
X134747657Y-85990842D01*
D41*
X104370000Y-77230000D02*
X106910000Y-77230000D01*
D45*
X119076000Y-116076000D02*
X117930000Y-114930000D01*
D42*
X121135000Y-94675000D02*
X120810000Y-95000000D01*
D41*
X103707603Y-88751000D02*
X100499000Y-88751000D01*
D42*
X123524000Y-97405502D02*
X123524000Y-95901000D01*
D43*
X156099000Y-88523735D02*
X156099000Y-85474156D01*
D41*
X100750000Y-119100000D02*
X100750000Y-116500000D01*
D43*
X105599301Y-88479301D02*
X104370000Y-87250000D01*
D42*
X125000000Y-106050000D02*
X125000000Y-105550000D01*
D43*
X124750000Y-94675000D02*
X121135000Y-94675000D01*
D42*
X156130000Y-112780000D02*
X153742500Y-112780000D01*
D41*
X104370000Y-83372000D02*
X102569000Y-81571000D01*
D42*
X133218750Y-85990842D02*
X135247657Y-85990842D01*
D43*
X179455000Y-114085000D02*
X171790000Y-121750000D01*
X140975744Y-97000000D02*
X147622735Y-97000000D01*
D45*
X101500000Y-115750000D02*
X100750000Y-116500000D01*
D42*
X131863954Y-87561046D02*
X124750000Y-94675000D01*
X153742500Y-112780000D02*
X152500000Y-111537500D01*
D41*
X99250000Y-87250000D02*
X99250000Y-85500000D01*
D45*
X117930000Y-114930000D02*
X101500000Y-114930000D01*
D43*
X178000000Y-80562278D02*
X178000000Y-92310000D01*
X178000000Y-92310000D02*
X175560000Y-92310000D01*
X124750000Y-94675000D02*
X134115000Y-94675000D01*
D41*
X104370000Y-77230000D02*
X103119000Y-77230000D01*
D42*
X131632657Y-84404749D02*
X133218750Y-85990842D01*
D41*
X97250000Y-92000000D02*
X97250000Y-113000000D01*
D43*
X114000000Y-87050000D02*
X120810000Y-93860000D01*
X164682500Y-79775000D02*
X166358500Y-78099000D01*
D42*
X131863954Y-84636046D02*
X131863954Y-87561046D01*
X123000000Y-128037500D02*
X128665500Y-128037500D01*
X123524000Y-95901000D02*
X124750000Y-94675000D01*
X135260000Y-93530000D02*
X135250000Y-93540000D01*
D43*
X137790000Y-93530000D02*
X137790000Y-93814256D01*
X178000000Y-92310000D02*
X179455000Y-93765000D01*
D41*
X102569000Y-77780000D02*
X103119000Y-77230000D01*
D43*
X175536722Y-78099000D02*
X178000000Y-80562278D01*
X162208256Y-92076000D02*
X164682500Y-89601756D01*
D41*
X100499000Y-88751000D02*
X97250000Y-92000000D01*
D43*
X114000000Y-87050000D02*
X112570699Y-88479301D01*
D41*
X104370000Y-88088603D02*
X104370000Y-87250000D01*
D42*
X156130000Y-97540000D02*
X157430000Y-98840000D01*
D43*
X152500000Y-100700000D02*
X153750000Y-99450000D01*
D42*
X157430000Y-111480000D02*
X156130000Y-112780000D01*
D41*
X100750000Y-116500000D02*
X99000000Y-114750000D01*
D43*
X120810000Y-93860000D02*
X120810000Y-95000000D01*
D42*
X156130000Y-97540000D02*
X154220000Y-99450000D01*
D45*
X119076000Y-124113500D02*
X119076000Y-116076000D01*
D43*
X112570699Y-88479301D02*
X105599301Y-88479301D01*
X137790000Y-93814256D02*
X140975744Y-97000000D01*
D45*
X101500000Y-114930000D02*
X101500000Y-115750000D01*
D43*
X166358500Y-78099000D02*
X175536722Y-78099000D01*
D42*
X126376000Y-104174000D02*
X126376000Y-100257502D01*
D43*
X156099000Y-85474156D02*
X161798156Y-79775000D01*
D41*
X97250000Y-113000000D02*
X99000000Y-114750000D01*
D42*
X128665500Y-128037500D02*
X128750000Y-127953000D01*
D43*
X153750000Y-95257265D02*
X156931265Y-92076000D01*
X164682500Y-89601756D02*
X164682500Y-79775000D01*
X134115000Y-94675000D02*
X135250000Y-93540000D01*
X156931265Y-92076000D02*
X162208256Y-92076000D01*
D42*
X125000000Y-105550000D02*
X126376000Y-104174000D01*
D43*
X153750000Y-99450000D02*
X153750000Y-95257265D01*
D41*
X97250000Y-89250000D02*
X99250000Y-87250000D01*
X97250000Y-92000000D02*
X97250000Y-89250000D01*
D42*
X120810000Y-110240000D02*
X125000000Y-106050000D01*
X131632657Y-84404749D02*
X131863954Y-84636046D01*
D43*
X179455000Y-93765000D02*
X179455000Y-114085000D01*
D41*
X103707603Y-88751000D02*
X104370000Y-88088603D01*
D43*
X175560000Y-92310000D02*
X175500000Y-92250000D01*
X161798156Y-79775000D02*
X164682500Y-79775000D01*
X137790000Y-93530000D02*
X135260000Y-93530000D01*
D45*
X119076000Y-124113500D02*
X123000000Y-128037500D01*
D44*
%TO.N,GND*%
X138192657Y-86125842D02*
X138057657Y-85990842D01*
X110000000Y-118700000D02*
X113200000Y-118700000D01*
X123000000Y-124000000D02*
X120750000Y-121750000D01*
X141661564Y-86125842D02*
X138192657Y-86125842D01*
X138057657Y-85990842D02*
X137790000Y-86258499D01*
X128000000Y-82750000D02*
X129557657Y-84307657D01*
X108475000Y-84025000D02*
X107000000Y-85500000D01*
X150000000Y-115200000D02*
X150000000Y-109462500D01*
X152050000Y-117250000D02*
X150000000Y-115200000D01*
X107500000Y-118700000D02*
X110000000Y-118700000D01*
X129557657Y-84307657D02*
X129557657Y-84404749D01*
X160500000Y-86500000D02*
X160487500Y-86500000D01*
X150000000Y-109462500D02*
X152500000Y-109462500D01*
X137790000Y-86258499D02*
X137790000Y-90990000D01*
X113200000Y-118700000D02*
X114250000Y-119750000D01*
X123000000Y-125962500D02*
X123000000Y-124000000D01*
X127000000Y-97250000D02*
X126500000Y-96750000D01*
X127500000Y-97250000D02*
X127000000Y-97250000D01*
X163363603Y-89363603D02*
X160500000Y-86500000D01*
X143382657Y-84404749D02*
X141661564Y-86125842D01*
X126500000Y-96750000D02*
X124750000Y-96750000D01*
X110500000Y-84025000D02*
X108475000Y-84025000D01*
D42*
%TO.N,+3.3VA*%
X141332308Y-81750000D02*
X142647357Y-83065049D01*
X148000000Y-92000000D02*
X148000000Y-87140590D01*
X122886398Y-82886398D02*
X124022796Y-81750000D01*
X124022796Y-81750000D02*
X141332308Y-81750000D01*
X141307657Y-84404749D02*
X140953908Y-84404749D01*
X148000000Y-87140590D02*
X143924459Y-83065049D01*
X141307657Y-84404749D02*
X142647357Y-83065049D01*
D44*
X138057657Y-85490842D02*
X138942343Y-85490842D01*
D42*
X139867815Y-85490842D02*
X138942343Y-85490842D01*
X140953908Y-84404749D02*
X139867815Y-85490842D01*
X122886398Y-82886398D02*
X122250000Y-82250000D01*
X143924459Y-83065049D02*
X142647357Y-83065049D01*
D44*
%TO.N,Net-(J2-Pin_7)*%
X101560000Y-107250000D02*
X101500000Y-107310000D01*
X104000000Y-107250000D02*
X101560000Y-107250000D01*
X104450000Y-107700000D02*
X104000000Y-107250000D01*
X113190000Y-107700000D02*
X104450000Y-107700000D01*
%TO.N,Net-(J2-Pin_2)*%
X99140000Y-94610000D02*
X99000000Y-94750000D01*
X101890000Y-95000000D02*
X101500000Y-94610000D01*
X101500000Y-94610000D02*
X99140000Y-94610000D01*
X113190000Y-95000000D02*
X101890000Y-95000000D01*
%TO.N,Net-(J2-Pin_6)*%
X113190000Y-105160000D02*
X101890000Y-105160000D01*
X99020000Y-104770000D02*
X99000000Y-104750000D01*
X101500000Y-104770000D02*
X99020000Y-104770000D01*
X101890000Y-105160000D02*
X101500000Y-104770000D01*
%TO.N,Net-(J2-Pin_3)*%
X101600000Y-97250000D02*
X101500000Y-97150000D01*
X104000000Y-97250000D02*
X101600000Y-97250000D01*
X113190000Y-97540000D02*
X104290000Y-97540000D01*
X104290000Y-97540000D02*
X104000000Y-97250000D01*
%TO.N,Net-(J2-Pin_5)*%
X113190000Y-102620000D02*
X104370000Y-102620000D01*
X104000000Y-102250000D02*
X103750000Y-102250000D01*
X104370000Y-102620000D02*
X104000000Y-102250000D01*
X103750000Y-102250000D02*
X103730000Y-102230000D01*
X103730000Y-102230000D02*
X101500000Y-102230000D01*
%TO.N,Net-(J2-Pin_8)*%
X101500000Y-109850000D02*
X99100000Y-109850000D01*
X113190000Y-110240000D02*
X101890000Y-110240000D01*
X99100000Y-109850000D02*
X99000000Y-109750000D01*
X101890000Y-110240000D02*
X101500000Y-109850000D01*
%TO.N,Net-(J2-Pin_4)*%
X113190000Y-100080000D02*
X101890000Y-100080000D01*
X101250000Y-99750000D02*
X99000000Y-99750000D01*
X101890000Y-100080000D02*
X101500000Y-99690000D01*
X101500000Y-99690000D02*
X101310000Y-99690000D01*
X101310000Y-99690000D02*
X101250000Y-99750000D01*
%TO.N,Net-(J2-Pin_1)*%
X104000000Y-92250000D02*
X112250000Y-92250000D01*
X101680000Y-92250000D02*
X101500000Y-92070000D01*
X118883372Y-95613372D02*
X120810000Y-97540000D01*
X112250000Y-92250000D02*
X113250000Y-93250000D01*
X118883372Y-94000000D02*
X118883372Y-95613372D01*
X104000000Y-92250000D02*
X101680000Y-92250000D01*
%TO.N,Net-(J3-Pin_2)*%
X177740000Y-112570000D02*
X178000000Y-112310000D01*
X175290000Y-112780000D02*
X175500000Y-112570000D01*
X175500000Y-112570000D02*
X177740000Y-112570000D01*
X163750000Y-112780000D02*
X175290000Y-112780000D01*
%TO.N,Net-(J3-Pin_3)*%
X175280000Y-109810000D02*
X175500000Y-110030000D01*
X172570000Y-110240000D02*
X173000000Y-109810000D01*
X163750000Y-110240000D02*
X172570000Y-110240000D01*
X173000000Y-109810000D02*
X175280000Y-109810000D01*
%TO.N,Net-(J3-Pin_6)*%
X163750000Y-102620000D02*
X175290000Y-102620000D01*
X175290000Y-102620000D02*
X175500000Y-102410000D01*
X175500000Y-102410000D02*
X177900000Y-102410000D01*
X177900000Y-102410000D02*
X178000000Y-102310000D01*
%TO.N,Net-(J3-Pin_5)*%
X163750000Y-105160000D02*
X172650000Y-105160000D01*
X173000000Y-104810000D02*
X175360000Y-104810000D01*
X172650000Y-105160000D02*
X173000000Y-104810000D01*
X175360000Y-104810000D02*
X175500000Y-104950000D01*
%TO.N,Net-(J3-Pin_4)*%
X175500000Y-107490000D02*
X177820000Y-107490000D01*
X163750000Y-107700000D02*
X175290000Y-107700000D01*
X177820000Y-107490000D02*
X178000000Y-107310000D01*
X175290000Y-107700000D02*
X175500000Y-107490000D01*
%TO.N,Net-(J3-Pin_1)*%
X160700000Y-110240000D02*
X160700000Y-111616160D01*
X163893840Y-114810000D02*
X173000000Y-114810000D01*
X160700000Y-111616160D02*
X163893840Y-114810000D01*
%TO.N,Net-(J3-Pin_7)*%
X175440000Y-99810000D02*
X175500000Y-99870000D01*
X163750000Y-100080000D02*
X172730000Y-100080000D01*
X173000000Y-99810000D02*
X175440000Y-99810000D01*
X172730000Y-100080000D02*
X173000000Y-99810000D01*
%TO.N,Net-(J3-Pin_8)*%
X175500000Y-97330000D02*
X177980000Y-97330000D01*
X163750000Y-97540000D02*
X175290000Y-97540000D01*
X175290000Y-97540000D02*
X175500000Y-97330000D01*
X177980000Y-97330000D02*
X178000000Y-97310000D01*
%TO.N,Net-(J1-GPIO3)*%
X121783785Y-93701000D02*
X122540364Y-93701000D01*
X130446157Y-85795207D02*
X130446157Y-83694589D01*
X113749000Y-82999000D02*
X114860160Y-82999000D01*
X130446157Y-83694589D02*
X130761997Y-83378749D01*
X122540364Y-93701000D02*
X130446157Y-85795207D01*
X136945564Y-83378749D02*
X138057657Y-84490842D01*
X115176000Y-83314840D02*
X115176000Y-87093214D01*
X110601000Y-80921000D02*
X111671000Y-80921000D01*
X114860160Y-82999000D02*
X115176000Y-83314840D01*
X109450000Y-79770000D02*
X110601000Y-80921000D01*
X130761997Y-83378749D02*
X136945564Y-83378749D01*
X111671000Y-80921000D02*
X113749000Y-82999000D01*
X115176000Y-87093214D02*
X121783785Y-93701000D01*
%TO.N,Net-(J1-GPIO2)*%
X138104760Y-78619000D02*
X138723499Y-79237739D01*
X139000000Y-84650341D02*
X138723499Y-84926842D01*
X138723499Y-79237739D02*
X138723499Y-80723499D01*
X139000000Y-82650000D02*
X139000000Y-84650341D01*
X108061000Y-78619000D02*
X138104760Y-78619000D01*
X138121657Y-84926842D02*
X138057657Y-84990842D01*
X138723499Y-80723499D02*
X138750000Y-80750000D01*
X138723499Y-84926842D02*
X138121657Y-84926842D01*
X106910000Y-79770000D02*
X108061000Y-78619000D01*
%TO.N,Net-(J1-Pin_11)*%
X119401000Y-85083900D02*
X119401000Y-90328264D01*
X117070000Y-79770000D02*
X117070000Y-82752900D01*
X120980000Y-102450000D02*
X120810000Y-102620000D01*
X118183372Y-93000000D02*
X118183372Y-99993372D01*
X118183372Y-99993372D02*
X120810000Y-102620000D01*
X125000000Y-102450000D02*
X120980000Y-102450000D01*
X117070000Y-82752900D02*
X119401000Y-85083900D01*
X119401000Y-90328264D02*
X119939963Y-90867227D01*
%TO.N,Net-(J1-Pin_13)*%
X122250000Y-93000000D02*
X122250000Y-91747990D01*
X122250000Y-95775000D02*
X122250000Y-98640000D01*
X122250000Y-98640000D02*
X120810000Y-100080000D01*
X119801000Y-89298990D02*
X119801000Y-79961000D01*
X122250000Y-91747990D02*
X119801000Y-89298990D01*
X119801000Y-79961000D02*
X119610000Y-79770000D01*
%TO.N,Net-(J1-Pin_15)*%
X122150000Y-79770000D02*
X120502000Y-81418000D01*
X158331000Y-103500000D02*
X158331000Y-118451000D01*
X120502000Y-81418000D02*
X120502000Y-89008626D01*
X127591084Y-107992500D02*
X146496340Y-107992500D01*
X151868840Y-102620000D02*
X156130000Y-102620000D01*
X117451000Y-92250000D02*
X117451000Y-101801000D01*
X117451000Y-101801000D02*
X120810000Y-105160000D01*
X158331000Y-118451000D02*
X161630000Y-121750000D01*
X146496340Y-107992500D02*
X151868840Y-102620000D01*
X126898584Y-107300000D02*
X127591084Y-107992500D01*
%TO.N,Net-(J1-Pin_7)*%
X126401000Y-106599000D02*
X125750000Y-107250000D01*
X125750000Y-107250000D02*
X125750000Y-108750000D01*
X116751000Y-103641000D02*
X116751000Y-91501000D01*
X118536368Y-89463632D02*
X119000000Y-89000000D01*
X116751000Y-91501000D02*
X116500000Y-91250000D01*
X111990000Y-79770000D02*
X112902240Y-79770000D01*
X112902240Y-79770000D02*
X114053240Y-80921000D01*
X159032000Y-100782000D02*
X159032000Y-116612000D01*
X127188948Y-106599000D02*
X126401000Y-106599000D01*
X128040948Y-107451000D02*
X127188948Y-106599000D01*
X119000000Y-89000000D02*
X119000000Y-85250000D01*
X148590364Y-101651000D02*
X142790364Y-107451000D01*
X119000000Y-85250000D02*
X114671000Y-80921000D01*
X158330000Y-100080000D02*
X159032000Y-100782000D01*
X114053240Y-80921000D02*
X114671000Y-80921000D01*
X120810000Y-107700000D02*
X116751000Y-103641000D01*
X154559000Y-101651000D02*
X148590364Y-101651000D01*
X159032000Y-116612000D02*
X164170000Y-121750000D01*
X156130000Y-100080000D02*
X154559000Y-101651000D01*
X142790364Y-107451000D02*
X128040948Y-107451000D01*
%TO.N,Net-(D1-A)*%
X110950000Y-87000000D02*
X114000000Y-83950000D01*
X110500000Y-87000000D02*
X110950000Y-87000000D01*
%TO.N,Net-(D2-A)*%
X160800000Y-90750000D02*
X160800000Y-89787500D01*
X160800000Y-89787500D02*
X157512500Y-86500000D01*
%TO.N,Net-(J4-Pin_3)*%
X133247793Y-90002207D02*
X133247793Y-93575000D01*
X136108657Y-85250000D02*
X136108657Y-87141343D01*
X135250000Y-96080000D02*
X137780000Y-96080000D01*
X137780000Y-96080000D02*
X137790000Y-96070000D01*
X136108657Y-87141343D02*
X133247793Y-90002207D01*
X135247657Y-84990842D02*
X135849499Y-84990842D01*
X135849499Y-84990842D02*
X136108657Y-85250000D01*
D41*
%TO.N,Net-(5v_in1-GND_A)*%
X112250000Y-126406000D02*
X112906000Y-125750000D01*
X105297910Y-126406000D02*
X103250000Y-124358090D01*
X103250000Y-124358090D02*
X103250000Y-122400000D01*
X112906000Y-125750000D02*
X113000000Y-125750000D01*
X112250000Y-126406000D02*
X105297910Y-126406000D01*
D43*
X113000000Y-124500000D02*
X113000000Y-125750000D01*
D44*
%TO.N,Net-(5v_in1-CC2)*%
X110750000Y-122550000D02*
X110750000Y-124500000D01*
X110000000Y-121800000D02*
X110750000Y-122550000D01*
D41*
%TO.N,Net-(5v_in1-VBUS_A)*%
X116874000Y-121101000D02*
X114649000Y-121101000D01*
X103250000Y-119100000D02*
X105251000Y-117099000D01*
X114649000Y-121101000D02*
X112801000Y-122949000D01*
D46*
X112501000Y-123249000D02*
X112801000Y-122949000D01*
D41*
X117725000Y-119225000D02*
X117725000Y-120250000D01*
D46*
X111949000Y-123801000D02*
X111949000Y-123249000D01*
X111770000Y-123980000D02*
X111949000Y-123801000D01*
D41*
X117725000Y-120250000D02*
X116874000Y-121101000D01*
D46*
X111949000Y-123249000D02*
X112501000Y-123249000D01*
D41*
X115599000Y-117099000D02*
X117725000Y-119225000D01*
D46*
X111770000Y-124500000D02*
X111770000Y-123980000D01*
D41*
X105251000Y-117099000D02*
X115599000Y-117099000D01*
D44*
%TO.N,Net-(5v_in1-CC1)*%
X109750000Y-124050000D02*
X109750000Y-124500000D01*
X107500000Y-121800000D02*
X109750000Y-124050000D01*
%TO.N,Net-(J4-Pin_4)*%
X135247657Y-84490842D02*
X135916599Y-84490842D01*
X135250000Y-98620000D02*
X137780000Y-98620000D01*
X136639000Y-85213243D02*
X136639000Y-92141000D01*
X138141000Y-92141000D02*
X141016397Y-95016397D01*
X141016397Y-95016397D02*
X141016397Y-95483603D01*
X137780000Y-98620000D02*
X137790000Y-98610000D01*
X136639000Y-92141000D02*
X138141000Y-92141000D01*
X135916599Y-84490842D02*
X136639000Y-85213243D01*
%TO.N,Net-(J6-Pin_3)*%
X167861000Y-121273240D02*
X167861000Y-122226760D01*
X174842500Y-82350450D02*
X160000000Y-97192950D01*
X167186760Y-122901000D02*
X153451000Y-122901000D01*
X153451000Y-122901000D02*
X152050000Y-121500000D01*
X160000000Y-113412240D02*
X167861000Y-121273240D01*
X160000000Y-97192950D02*
X160000000Y-113412240D01*
X174842500Y-79775000D02*
X174842500Y-82350450D01*
X167861000Y-122226760D02*
X167186760Y-122901000D01*
%TO.N,Net-(U2-~{OE})*%
X156130000Y-105160000D02*
X153860000Y-105160000D01*
X153860000Y-105160000D02*
X152500000Y-103800000D01*
%TO.N,Net-(U3-D10)*%
X156927000Y-90500000D02*
X142500000Y-104927000D01*
X142500000Y-104927000D02*
X142500000Y-106750000D01*
X139482000Y-109601000D02*
X128750000Y-120333000D01*
X139666500Y-109601000D02*
X139482000Y-109601000D01*
X157577000Y-90500000D02*
X156927000Y-90500000D01*
%TO.N,Net-(U1-QH')*%
X127000000Y-108500000D02*
X123011000Y-112489000D01*
X123011000Y-112489000D02*
X123011000Y-112780000D01*
X156130000Y-107700000D02*
X155330000Y-108500000D01*
X155330000Y-108500000D02*
X127000000Y-108500000D01*
%TO.N,Net-(J7-Pin_3)*%
X160750000Y-115790000D02*
X166710000Y-121750000D01*
X160750000Y-114729340D02*
X160750000Y-115790000D01*
X159500000Y-98370000D02*
X159500000Y-113479340D01*
X159500000Y-113479340D02*
X160750000Y-114729340D01*
X156130000Y-95000000D02*
X159500000Y-98370000D01*
%TO.N,Net-(J1-Pin_8)*%
X116000000Y-86927264D02*
X116000000Y-83571740D01*
X116036368Y-86963632D02*
X116000000Y-86927264D01*
X113000000Y-91750000D02*
X115000000Y-93750000D01*
X115000000Y-109500000D02*
X121000000Y-115500000D01*
X115026260Y-82598000D02*
X114348000Y-82598000D01*
X116000000Y-83571740D02*
X115026260Y-82598000D01*
X121000000Y-115500000D02*
X125963000Y-115500000D01*
X125963000Y-115500000D02*
X128750000Y-112713000D01*
X115000000Y-93750000D02*
X115000000Y-109500000D01*
X113500000Y-81750000D02*
X113500000Y-81500000D01*
X114348000Y-82598000D02*
X113500000Y-81750000D01*
%TO.N,Net-(J1-Pin_10)*%
X116874293Y-87801556D02*
X116874293Y-83878933D01*
X140178000Y-108901000D02*
X131176070Y-108901000D01*
X143990000Y-112713000D02*
X140178000Y-108901000D01*
X116874293Y-83878933D02*
X114865335Y-81869975D01*
X124978070Y-115099000D02*
X121349000Y-115099000D01*
X114865335Y-81869975D02*
X114630025Y-81869975D01*
X116973515Y-87900778D02*
X116874293Y-87801556D01*
X115549000Y-93049000D02*
X114119975Y-91619975D01*
X115549000Y-109299000D02*
X115549000Y-93049000D01*
X121349000Y-115099000D02*
X115549000Y-109299000D01*
X131176070Y-108901000D02*
X124978070Y-115099000D01*
%TO.N,Net-(U3-D1)*%
X148950000Y-121500000D02*
X147903000Y-121500000D01*
X147903000Y-121500000D02*
X143990000Y-125413000D01*
X148950000Y-117250000D02*
X148950000Y-121500000D01*
%TD*%
M02*
